M48
; DRILL file {KiCad (5.1.10)-1} date 10/24/21 16:06:26
; FORMAT={-:-/ absolute / metric / decimal}
; #@! TF.CreationDate,2021-10-24T16:06:26+08:00
; #@! TF.GenerationSoftware,Kicad,Pcbnew,(5.1.10)-1
; #@! TF.FileFunction,Plated,1,2,PTH
FMAT,2
METRIC
T1C0.400
T2C0.600
T3C0.750
T4C0.889
T5C1.000
T6C2.700
%
G90
G05
T1
X175.006Y-98.044
X175.006Y-99.06
X175.26Y-130.81
X177.292Y-130.81
X178.816Y-94.488
X178.816Y-95.504
X178.816Y-96.52
X178.816Y-97.536
X178.816Y-98.552
X179.578Y-101.6
X179.578Y-130.81
X197.866Y-93.98
X197.866Y-94.996
X197.866Y-96.012
X198.882Y-93.98
X198.882Y-94.996
X198.882Y-96.012
X203.2Y-118.618
X211.074Y-118.618
X213.106Y-100.076
X213.868Y-100.838
X215.392Y-97.028
X216.154Y-97.79
X228.854Y-98.298
X229.616Y-94.742
T2
X199.95Y-144.272
T3
X203.962Y-95.504
X203.962Y-96.774
X203.962Y-98.044
T4
X205.241Y-111.144
X205.241Y-113.684
X205.241Y-116.224
X205.241Y-118.764
X205.241Y-121.304
X205.241Y-123.844
X205.241Y-126.384
X205.241Y-128.924
X205.241Y-131.464
X207.781Y-111.144
X207.781Y-113.684
X207.781Y-116.224
X207.781Y-118.764
X207.781Y-121.304
X207.781Y-123.844
X207.781Y-126.384
X207.781Y-128.924
X207.781Y-131.464
X210.537Y-104.53
X210.537Y-107.07
X213.077Y-104.53
X213.077Y-107.07
X215.617Y-104.53
X215.617Y-107.07
X218.157Y-104.53
X218.157Y-107.07
X220.697Y-104.53
X220.697Y-107.07
X223.237Y-104.53
X223.237Y-107.07
X225.777Y-104.53
X225.777Y-107.07
X228.317Y-104.53
X228.317Y-107.07
X230.857Y-104.53
X230.857Y-107.07
X233.397Y-104.53
X233.397Y-107.07
X237.499Y-110.89
X237.499Y-113.43
X237.499Y-115.97
X237.499Y-118.51
X237.499Y-121.05
X237.499Y-123.59
X237.499Y-126.13
X237.499Y-128.67
X237.499Y-131.21
X240.039Y-110.89
X240.039Y-113.43
X240.039Y-115.97
X240.039Y-118.51
X240.039Y-121.05
X240.039Y-123.59
X240.039Y-126.13
X240.039Y-128.67
X240.039Y-131.21
T5
X234.442Y-140.97
X236.982Y-140.97
X239.522Y-140.97
X242.062Y-140.97
T6
X207.982Y-137.764
X215.182Y-137.764
T2
G00X204.832Y-144.314
M15
G01X204.832Y-143.214
M16
G05
G00X218.332Y-144.314
M15
G01X218.332Y-143.214
M16
G05
T0
M30
