%TF.GenerationSoftware,KiCad,Pcbnew,(5.1.10)-1*%
%TF.CreationDate,2021-10-24T16:06:26+08:00*%
%TF.ProjectId,M1W,4d31572e-6b69-4636-9164-5f7063625858,rev?*%
%TF.SameCoordinates,Original*%
%TF.FileFunction,Soldermask,Top*%
%TF.FilePolarity,Negative*%
%FSLAX46Y46*%
G04 Gerber Fmt 4.6, Leading zero omitted, Abs format (unit mm)*
G04 Created by KiCad (PCBNEW (5.1.10)-1) date 2021-10-24 16:06:26*
%MOMM*%
%LPD*%
G01*
G04 APERTURE LIST*
%ADD10R,1.500000X1.050000*%
%ADD11O,1.500000X1.050000*%
%ADD12R,3.716000X3.716000*%
%ADD13C,3.716000*%
%ADD14O,1.200000X2.400000*%
%ADD15O,1.700000X1.700000*%
%ADD16R,1.700000X1.700000*%
%ADD17R,2.000000X1.100000*%
%ADD18R,1.400000X2.100000*%
%ADD19R,2.500000X2.500000*%
%ADD20R,1.574800X1.574800*%
%ADD21R,3.100020X3.100020*%
G04 APERTURE END LIST*
%TO.C,R8*%
G36*
G01*
X232302000Y-97478001D02*
X232302000Y-96577999D01*
G75*
G02*
X232551999Y-96328000I249999J0D01*
G01*
X233252001Y-96328000D01*
G75*
G02*
X233502000Y-96577999I0J-249999D01*
G01*
X233502000Y-97478001D01*
G75*
G02*
X233252001Y-97728000I-249999J0D01*
G01*
X232551999Y-97728000D01*
G75*
G02*
X232302000Y-97478001I0J249999D01*
G01*
G37*
G36*
G01*
X230302000Y-97478001D02*
X230302000Y-96577999D01*
G75*
G02*
X230551999Y-96328000I249999J0D01*
G01*
X231252001Y-96328000D01*
G75*
G02*
X231502000Y-96577999I0J-249999D01*
G01*
X231502000Y-97478001D01*
G75*
G02*
X231252001Y-97728000I-249999J0D01*
G01*
X230551999Y-97728000D01*
G75*
G02*
X230302000Y-97478001I0J249999D01*
G01*
G37*
%TD*%
%TO.C,R7*%
G36*
G01*
X232302000Y-99510001D02*
X232302000Y-98609999D01*
G75*
G02*
X232551999Y-98360000I249999J0D01*
G01*
X233252001Y-98360000D01*
G75*
G02*
X233502000Y-98609999I0J-249999D01*
G01*
X233502000Y-99510001D01*
G75*
G02*
X233252001Y-99760000I-249999J0D01*
G01*
X232551999Y-99760000D01*
G75*
G02*
X232302000Y-99510001I0J249999D01*
G01*
G37*
G36*
G01*
X230302000Y-99510001D02*
X230302000Y-98609999D01*
G75*
G02*
X230551999Y-98360000I249999J0D01*
G01*
X231252001Y-98360000D01*
G75*
G02*
X231502000Y-98609999I0J-249999D01*
G01*
X231502000Y-99510001D01*
G75*
G02*
X231252001Y-99760000I-249999J0D01*
G01*
X230551999Y-99760000D01*
G75*
G02*
X230302000Y-99510001I0J249999D01*
G01*
G37*
%TD*%
%TO.C,R6*%
G36*
G01*
X232302000Y-95446001D02*
X232302000Y-94545999D01*
G75*
G02*
X232551999Y-94296000I249999J0D01*
G01*
X233252001Y-94296000D01*
G75*
G02*
X233502000Y-94545999I0J-249999D01*
G01*
X233502000Y-95446001D01*
G75*
G02*
X233252001Y-95696000I-249999J0D01*
G01*
X232551999Y-95696000D01*
G75*
G02*
X232302000Y-95446001I0J249999D01*
G01*
G37*
G36*
G01*
X230302000Y-95446001D02*
X230302000Y-94545999D01*
G75*
G02*
X230551999Y-94296000I249999J0D01*
G01*
X231252001Y-94296000D01*
G75*
G02*
X231502000Y-94545999I0J-249999D01*
G01*
X231502000Y-95446001D01*
G75*
G02*
X231252001Y-95696000I-249999J0D01*
G01*
X230551999Y-95696000D01*
G75*
G02*
X230302000Y-95446001I0J249999D01*
G01*
G37*
%TD*%
%TO.C,R5*%
G36*
G01*
X210458000Y-97478001D02*
X210458000Y-96577999D01*
G75*
G02*
X210707999Y-96328000I249999J0D01*
G01*
X211408001Y-96328000D01*
G75*
G02*
X211658000Y-96577999I0J-249999D01*
G01*
X211658000Y-97478001D01*
G75*
G02*
X211408001Y-97728000I-249999J0D01*
G01*
X210707999Y-97728000D01*
G75*
G02*
X210458000Y-97478001I0J249999D01*
G01*
G37*
G36*
G01*
X208458000Y-97478001D02*
X208458000Y-96577999D01*
G75*
G02*
X208707999Y-96328000I249999J0D01*
G01*
X209408001Y-96328000D01*
G75*
G02*
X209658000Y-96577999I0J-249999D01*
G01*
X209658000Y-97478001D01*
G75*
G02*
X209408001Y-97728000I-249999J0D01*
G01*
X208707999Y-97728000D01*
G75*
G02*
X208458000Y-97478001I0J249999D01*
G01*
G37*
%TD*%
%TO.C,R4*%
G36*
G01*
X210458000Y-95446001D02*
X210458000Y-94545999D01*
G75*
G02*
X210707999Y-94296000I249999J0D01*
G01*
X211408001Y-94296000D01*
G75*
G02*
X211658000Y-94545999I0J-249999D01*
G01*
X211658000Y-95446001D01*
G75*
G02*
X211408001Y-95696000I-249999J0D01*
G01*
X210707999Y-95696000D01*
G75*
G02*
X210458000Y-95446001I0J249999D01*
G01*
G37*
G36*
G01*
X208458000Y-95446001D02*
X208458000Y-94545999D01*
G75*
G02*
X208707999Y-94296000I249999J0D01*
G01*
X209408001Y-94296000D01*
G75*
G02*
X209658000Y-94545999I0J-249999D01*
G01*
X209658000Y-95446001D01*
G75*
G02*
X209408001Y-95696000I-249999J0D01*
G01*
X208707999Y-95696000D01*
G75*
G02*
X208458000Y-95446001I0J249999D01*
G01*
G37*
%TD*%
D10*
%TO.C,Q1*%
X203962000Y-95504000D03*
D11*
X203962000Y-98044000D03*
X203962000Y-96774000D03*
%TD*%
D12*
%TO.C,J1*%
X215182000Y-137764000D03*
D13*
X207982000Y-137764000D03*
D14*
X218332000Y-143764000D03*
X204832000Y-143764000D03*
%TD*%
D15*
%TO.C,H1*%
X234442000Y-140970000D03*
X236982000Y-140970000D03*
X239522000Y-140970000D03*
D16*
X242062000Y-140970000D03*
%TD*%
D17*
%TO.C,D4*%
X222390000Y-98728000D03*
X222390000Y-97028000D03*
X222390000Y-95328000D03*
X227190000Y-95328000D03*
X227190000Y-97028000D03*
X227190000Y-98728000D03*
%TD*%
D18*
%TO.C,S2*%
X211364000Y-114068000D03*
X211364000Y-123168000D03*
X215364000Y-123168000D03*
X215364000Y-114068000D03*
%TD*%
%TO.C,S1*%
X203164000Y-123168000D03*
X203164000Y-114068000D03*
X199164000Y-114068000D03*
X199164000Y-123168000D03*
%TD*%
D19*
%TO.C,U1*%
X195619000Y-144071000D03*
X195619000Y-95071000D03*
X175619000Y-144071000D03*
X175619000Y-95071000D03*
%TD*%
D20*
%TO.C,MAIN1*%
X233396641Y-104530201D03*
X233396641Y-107070201D03*
X225776641Y-104530201D03*
X218156641Y-107070201D03*
X215616641Y-107070201D03*
X210536641Y-107070201D03*
X210536641Y-104530201D03*
X213076641Y-104530201D03*
X215616641Y-104530201D03*
X228316641Y-104530201D03*
X220696641Y-104530201D03*
X223236641Y-107070201D03*
X225776641Y-107070201D03*
X230856641Y-104530201D03*
X223236641Y-104530201D03*
X213076641Y-107070201D03*
X218156641Y-104530201D03*
X230856641Y-107070201D03*
X220696641Y-107070201D03*
X228316641Y-107070201D03*
X240039201Y-113430361D03*
X240039201Y-121050361D03*
X237499201Y-123590361D03*
X240039201Y-110890361D03*
X237499201Y-118510361D03*
X240039201Y-115970361D03*
X240039201Y-118510361D03*
X237499201Y-110890361D03*
X240039201Y-123590361D03*
X237499201Y-121050361D03*
X237499201Y-115970361D03*
X237499201Y-113430361D03*
X205241201Y-126384361D03*
X207781201Y-126384361D03*
X205241201Y-131464361D03*
X207781201Y-131464361D03*
X205241201Y-128924361D03*
X207781201Y-128924361D03*
D21*
X200415201Y-136864401D03*
X246135201Y-136864401D03*
X200415201Y-105744321D03*
D20*
X207781201Y-111144361D03*
X205241201Y-111144361D03*
X207781201Y-113684361D03*
X205241201Y-113684361D03*
X207781201Y-116224361D03*
X205241201Y-116224361D03*
X207781201Y-118764361D03*
X205241201Y-118764361D03*
X207781201Y-121304361D03*
X205241201Y-121304361D03*
X207781201Y-123844361D03*
X205241201Y-123844361D03*
X237499201Y-131210361D03*
X240039201Y-131210361D03*
X237499201Y-128670361D03*
X240039201Y-128670361D03*
X237499201Y-126130361D03*
X240039201Y-126130361D03*
%TD*%
M02*
