%TF.GenerationSoftware,KiCad,Pcbnew,(5.1.10)-1*%
%TF.CreationDate,2021-10-24T16:06:26+08:00*%
%TF.ProjectId,M1W,4d31572e-6b69-4636-9164-5f7063625858,rev?*%
%TF.SameCoordinates,Original*%
%TF.FileFunction,Copper,L1,Top*%
%TF.FilePolarity,Positive*%
%FSLAX46Y46*%
G04 Gerber Fmt 4.6, Leading zero omitted, Abs format (unit mm)*
G04 Created by KiCad (PCBNEW (5.1.10)-1) date 2021-10-24 16:06:26*
%MOMM*%
%LPD*%
G01*
G04 APERTURE LIST*
%TA.AperFunction,ComponentPad*%
%ADD10R,1.500000X1.050000*%
%TD*%
%TA.AperFunction,ComponentPad*%
%ADD11O,1.500000X1.050000*%
%TD*%
%TA.AperFunction,ComponentPad*%
%ADD12R,3.716000X3.716000*%
%TD*%
%TA.AperFunction,ComponentPad*%
%ADD13C,3.716000*%
%TD*%
%TA.AperFunction,ComponentPad*%
%ADD14O,1.200000X2.400000*%
%TD*%
%TA.AperFunction,ComponentPad*%
%ADD15O,1.700000X1.700000*%
%TD*%
%TA.AperFunction,ComponentPad*%
%ADD16R,1.700000X1.700000*%
%TD*%
%TA.AperFunction,SMDPad,CuDef*%
%ADD17R,2.000000X1.100000*%
%TD*%
%TA.AperFunction,SMDPad,CuDef*%
%ADD18R,1.400000X2.100000*%
%TD*%
%TA.AperFunction,SMDPad,CuDef*%
%ADD19R,2.500000X2.500000*%
%TD*%
%TA.AperFunction,ComponentPad*%
%ADD20R,1.574800X1.574800*%
%TD*%
%TA.AperFunction,WasherPad*%
%ADD21R,3.100020X3.100020*%
%TD*%
%TA.AperFunction,ViaPad*%
%ADD22C,0.800000*%
%TD*%
%TA.AperFunction,ViaPad*%
%ADD23C,1.200000*%
%TD*%
%TA.AperFunction,Conductor*%
%ADD24C,1.200000*%
%TD*%
%TA.AperFunction,Conductor*%
%ADD25C,0.800000*%
%TD*%
%TA.AperFunction,Conductor*%
%ADD26C,0.500000*%
%TD*%
%TA.AperFunction,Conductor*%
%ADD27C,0.254000*%
%TD*%
%TA.AperFunction,Conductor*%
%ADD28C,0.350000*%
%TD*%
%ADD29C,0.350000*%
%ADD30O,0.600000X1.700000*%
G04 APERTURE END LIST*
%TO.P,R8,2*%
%TO.N,RGB5050-B*%
%TA.AperFunction,SMDPad,CuDef*%
G36*
G01*
X232302000Y-97478001D02*
X232302000Y-96577999D01*
G75*
G02*
X232551999Y-96328000I249999J0D01*
G01*
X233252001Y-96328000D01*
G75*
G02*
X233502000Y-96577999I0J-249999D01*
G01*
X233502000Y-97478001D01*
G75*
G02*
X233252001Y-97728000I-249999J0D01*
G01*
X232551999Y-97728000D01*
G75*
G02*
X232302000Y-97478001I0J249999D01*
G01*
G37*
%TD.AperFunction*%
%TO.P,R8,1*%
%TO.N,Net-(D4-Pad3)*%
%TA.AperFunction,SMDPad,CuDef*%
G36*
G01*
X230302000Y-97478001D02*
X230302000Y-96577999D01*
G75*
G02*
X230551999Y-96328000I249999J0D01*
G01*
X231252001Y-96328000D01*
G75*
G02*
X231502000Y-96577999I0J-249999D01*
G01*
X231502000Y-97478001D01*
G75*
G02*
X231252001Y-97728000I-249999J0D01*
G01*
X230551999Y-97728000D01*
G75*
G02*
X230302000Y-97478001I0J249999D01*
G01*
G37*
%TD.AperFunction*%
%TD*%
%TO.P,R7,2*%
%TO.N,RGB5050-G*%
%TA.AperFunction,SMDPad,CuDef*%
G36*
G01*
X232302000Y-99510001D02*
X232302000Y-98609999D01*
G75*
G02*
X232551999Y-98360000I249999J0D01*
G01*
X233252001Y-98360000D01*
G75*
G02*
X233502000Y-98609999I0J-249999D01*
G01*
X233502000Y-99510001D01*
G75*
G02*
X233252001Y-99760000I-249999J0D01*
G01*
X232551999Y-99760000D01*
G75*
G02*
X232302000Y-99510001I0J249999D01*
G01*
G37*
%TD.AperFunction*%
%TO.P,R7,1*%
%TO.N,Net-(D4-Pad2)*%
%TA.AperFunction,SMDPad,CuDef*%
G36*
G01*
X230302000Y-99510001D02*
X230302000Y-98609999D01*
G75*
G02*
X230551999Y-98360000I249999J0D01*
G01*
X231252001Y-98360000D01*
G75*
G02*
X231502000Y-98609999I0J-249999D01*
G01*
X231502000Y-99510001D01*
G75*
G02*
X231252001Y-99760000I-249999J0D01*
G01*
X230551999Y-99760000D01*
G75*
G02*
X230302000Y-99510001I0J249999D01*
G01*
G37*
%TD.AperFunction*%
%TD*%
%TO.P,R6,2*%
%TO.N,RGB5050-R*%
%TA.AperFunction,SMDPad,CuDef*%
G36*
G01*
X232302000Y-95446001D02*
X232302000Y-94545999D01*
G75*
G02*
X232551999Y-94296000I249999J0D01*
G01*
X233252001Y-94296000D01*
G75*
G02*
X233502000Y-94545999I0J-249999D01*
G01*
X233502000Y-95446001D01*
G75*
G02*
X233252001Y-95696000I-249999J0D01*
G01*
X232551999Y-95696000D01*
G75*
G02*
X232302000Y-95446001I0J249999D01*
G01*
G37*
%TD.AperFunction*%
%TO.P,R6,1*%
%TO.N,Net-(D4-Pad1)*%
%TA.AperFunction,SMDPad,CuDef*%
G36*
G01*
X230302000Y-95446001D02*
X230302000Y-94545999D01*
G75*
G02*
X230551999Y-94296000I249999J0D01*
G01*
X231252001Y-94296000D01*
G75*
G02*
X231502000Y-94545999I0J-249999D01*
G01*
X231502000Y-95446001D01*
G75*
G02*
X231252001Y-95696000I-249999J0D01*
G01*
X230551999Y-95696000D01*
G75*
G02*
X230302000Y-95446001I0J249999D01*
G01*
G37*
%TD.AperFunction*%
%TD*%
%TO.P,R5,2*%
%TO.N,GND*%
%TA.AperFunction,SMDPad,CuDef*%
G36*
G01*
X210458000Y-97478001D02*
X210458000Y-96577999D01*
G75*
G02*
X210707999Y-96328000I249999J0D01*
G01*
X211408001Y-96328000D01*
G75*
G02*
X211658000Y-96577999I0J-249999D01*
G01*
X211658000Y-97478001D01*
G75*
G02*
X211408001Y-97728000I-249999J0D01*
G01*
X210707999Y-97728000D01*
G75*
G02*
X210458000Y-97478001I0J249999D01*
G01*
G37*
%TD.AperFunction*%
%TO.P,R5,1*%
%TO.N,Net-(Q1-Pad2)*%
%TA.AperFunction,SMDPad,CuDef*%
G36*
G01*
X208458000Y-97478001D02*
X208458000Y-96577999D01*
G75*
G02*
X208707999Y-96328000I249999J0D01*
G01*
X209408001Y-96328000D01*
G75*
G02*
X209658000Y-96577999I0J-249999D01*
G01*
X209658000Y-97478001D01*
G75*
G02*
X209408001Y-97728000I-249999J0D01*
G01*
X208707999Y-97728000D01*
G75*
G02*
X208458000Y-97478001I0J249999D01*
G01*
G37*
%TD.AperFunction*%
%TD*%
%TO.P,R4,2*%
%TO.N,IO8_LED*%
%TA.AperFunction,SMDPad,CuDef*%
G36*
G01*
X210458000Y-95446001D02*
X210458000Y-94545999D01*
G75*
G02*
X210707999Y-94296000I249999J0D01*
G01*
X211408001Y-94296000D01*
G75*
G02*
X211658000Y-94545999I0J-249999D01*
G01*
X211658000Y-95446001D01*
G75*
G02*
X211408001Y-95696000I-249999J0D01*
G01*
X210707999Y-95696000D01*
G75*
G02*
X210458000Y-95446001I0J249999D01*
G01*
G37*
%TD.AperFunction*%
%TO.P,R4,1*%
%TO.N,Net-(Q1-Pad2)*%
%TA.AperFunction,SMDPad,CuDef*%
G36*
G01*
X208458000Y-95446001D02*
X208458000Y-94545999D01*
G75*
G02*
X208707999Y-94296000I249999J0D01*
G01*
X209408001Y-94296000D01*
G75*
G02*
X209658000Y-94545999I0J-249999D01*
G01*
X209658000Y-95446001D01*
G75*
G02*
X209408001Y-95696000I-249999J0D01*
G01*
X208707999Y-95696000D01*
G75*
G02*
X208458000Y-95446001I0J249999D01*
G01*
G37*
%TD.AperFunction*%
%TD*%
D10*
%TO.P,Q1,1*%
%TO.N,GND*%
X203962000Y-95504000D03*
D11*
%TO.P,Q1,3*%
%TO.N,Net-(D1-Pad1)*%
X203962000Y-98044000D03*
%TO.P,Q1,2*%
%TO.N,Net-(Q1-Pad2)*%
X203962000Y-96774000D03*
%TD*%
D12*
%TO.P,J1,1*%
%TO.N,Net-(J1-Pad1)*%
X215182000Y-137764000D03*
D13*
%TO.P,J1,2*%
%TO.N,Net-(J1-Pad2)*%
X207982000Y-137764000D03*
D14*
%TO.P,J1,S1*%
%TO.N,N/C*%
X218332000Y-143764000D03*
%TO.P,J1,S2*%
X204832000Y-143764000D03*
%TD*%
D15*
%TO.P,H1,4*%
%TO.N,GND*%
X234442000Y-140970000D03*
%TO.P,H1,3*%
X236982000Y-140970000D03*
%TO.P,H1,2*%
%TO.N,+5V*%
X239522000Y-140970000D03*
D16*
%TO.P,H1,1*%
X242062000Y-140970000D03*
%TD*%
D17*
%TO.P,D4,6*%
%TO.N,GND*%
X222390000Y-98728000D03*
%TO.P,D4,5*%
X222390000Y-97028000D03*
%TO.P,D4,4*%
X222390000Y-95328000D03*
%TO.P,D4,3*%
%TO.N,Net-(D4-Pad3)*%
X227190000Y-95328000D03*
%TO.P,D4,2*%
%TO.N,Net-(D4-Pad2)*%
X227190000Y-97028000D03*
%TO.P,D4,1*%
%TO.N,Net-(D4-Pad1)*%
X227190000Y-98728000D03*
%TD*%
D18*
%TO.P,S2,2*%
%TO.N,Key2*%
X211364000Y-114068000D03*
%TO.P,S2,1*%
X211364000Y-123168000D03*
%TO.P,S2,3*%
%TO.N,GND*%
X215364000Y-123168000D03*
%TO.P,S2,4*%
X215364000Y-114068000D03*
%TD*%
%TO.P,S1,2*%
%TO.N,Key1*%
X203164000Y-123168000D03*
%TO.P,S1,1*%
X203164000Y-114068000D03*
%TO.P,S1,3*%
%TO.N,GND*%
X199164000Y-114068000D03*
%TO.P,S1,4*%
X199164000Y-123168000D03*
%TD*%
D19*
%TO.P,U1,2*%
%TO.N,Net-(J1-Pad2)*%
X195619000Y-144071000D03*
%TO.P,U1,3*%
%TO.N,GND*%
X195619000Y-95071000D03*
%TO.P,U1,1*%
%TO.N,Net-(J1-Pad1)*%
X175619000Y-144071000D03*
%TO.P,U1,4*%
%TO.N,Net-(FU1-Pad1)*%
X175619000Y-95071000D03*
%TD*%
D20*
%TO.P,MAIN1,34*%
%TO.N,N/C*%
X233396641Y-104530201D03*
%TO.P,MAIN1,35*%
X233396641Y-107070201D03*
%TO.P,MAIN1,28*%
%TO.N,RGB5050-G*%
X225776641Y-104530201D03*
%TO.P,MAIN1,23*%
%TO.N,N/C*%
X218156641Y-107070201D03*
%TO.P,MAIN1,21*%
X215616641Y-107070201D03*
%TO.P,MAIN1,56*%
X210536641Y-107070201D03*
%TO.P,MAIN1,57*%
X210536641Y-104530201D03*
%TO.P,MAIN1,18*%
X213076641Y-104530201D03*
%TO.P,MAIN1,20*%
X215616641Y-104530201D03*
%TO.P,MAIN1,30*%
X228316641Y-104530201D03*
%TO.P,MAIN1,24*%
X220696641Y-104530201D03*
%TO.P,MAIN1,27*%
%TO.N,RGB5050-R*%
X223236641Y-107070201D03*
%TO.P,MAIN1,29*%
%TO.N,RGB5050-B*%
X225776641Y-107070201D03*
%TO.P,MAIN1,32*%
%TO.N,N/C*%
X230856641Y-104530201D03*
%TO.P,MAIN1,26*%
%TO.N,IO8_LED*%
X223236641Y-104530201D03*
%TO.P,MAIN1,19*%
%TO.N,N/C*%
X213076641Y-107070201D03*
%TO.P,MAIN1,22*%
X218156641Y-104530201D03*
%TO.P,MAIN1,33*%
X230856641Y-107070201D03*
%TO.P,MAIN1,25*%
X220696641Y-107070201D03*
%TO.P,MAIN1,31*%
X228316641Y-107070201D03*
%TO.P,MAIN1,39*%
X240039201Y-113430361D03*
%TO.P,MAIN1,45*%
X240039201Y-121050361D03*
%TO.P,MAIN1,46*%
X237499201Y-123590361D03*
%TO.P,MAIN1,37*%
X240039201Y-110890361D03*
%TO.P,MAIN1,42*%
X237499201Y-118510361D03*
%TO.P,MAIN1,41*%
X240039201Y-115970361D03*
%TO.P,MAIN1,43*%
X240039201Y-118510361D03*
%TO.P,MAIN1,36*%
X237499201Y-110890361D03*
%TO.P,MAIN1,47*%
X240039201Y-123590361D03*
%TO.P,MAIN1,44*%
X237499201Y-121050361D03*
%TO.P,MAIN1,40*%
X237499201Y-115970361D03*
%TO.P,MAIN1,38*%
X237499201Y-113430361D03*
%TO.P,MAIN1,4*%
X205241201Y-126384361D03*
%TO.P,MAIN1,5*%
X207781201Y-126384361D03*
%TO.P,MAIN1,0*%
X205241201Y-131464361D03*
%TO.P,MAIN1,1*%
X207781201Y-131464361D03*
%TO.P,MAIN1,2*%
X205241201Y-128924361D03*
%TO.P,MAIN1,3*%
X207781201Y-128924361D03*
D21*
%TO.P,MAIN1,*%
%TO.N,*%
X200415201Y-136864401D03*
X246135201Y-136864401D03*
X200415201Y-105744321D03*
D20*
%TO.P,MAIN1,17*%
%TO.N,N/C*%
X207781201Y-111144361D03*
%TO.P,MAIN1,16*%
X205241201Y-111144361D03*
%TO.P,MAIN1,15*%
X207781201Y-113684361D03*
%TO.P,MAIN1,14*%
X205241201Y-113684361D03*
%TO.P,MAIN1,13*%
X207781201Y-116224361D03*
%TO.P,MAIN1,12*%
X205241201Y-116224361D03*
%TO.P,MAIN1,11*%
%TO.N,Key2*%
X207781201Y-118764361D03*
%TO.P,MAIN1,10*%
%TO.N,Key1*%
X205241201Y-118764361D03*
%TO.P,MAIN1,9*%
%TO.N,N/C*%
X207781201Y-121304361D03*
%TO.P,MAIN1,8*%
X205241201Y-121304361D03*
%TO.P,MAIN1,7*%
X207781201Y-123844361D03*
%TO.P,MAIN1,6*%
X205241201Y-123844361D03*
%TO.P,MAIN1,51*%
X237499201Y-131210361D03*
%TO.P,MAIN1,50*%
X240039201Y-131210361D03*
%TO.P,MAIN1,52*%
%TO.N,+5V*%
X237499201Y-128670361D03*
%TO.P,MAIN1,53*%
%TO.N,N/C*%
X240039201Y-128670361D03*
%TO.P,MAIN1,54*%
%TO.N,GND*%
X237499201Y-126130361D03*
%TO.P,MAIN1,55*%
X240039201Y-126130361D03*
%TD*%
D22*
%TO.N,+5V*%
X179578000Y-130810000D03*
X179578000Y-101600000D03*
X175260000Y-130810000D03*
X177292000Y-130810000D03*
%TO.N,GND*%
X197866000Y-93980000D03*
X197866000Y-94996000D03*
X197866000Y-96012000D03*
X198882000Y-93980000D03*
X198882000Y-94996000D03*
X198882000Y-96012000D03*
X213106000Y-100076000D03*
X215392000Y-97028000D03*
X213868000Y-100838000D03*
X216154000Y-97790000D03*
%TO.N,Net-(FU1-Pad1)*%
X178816000Y-95504000D03*
X178816000Y-94488000D03*
X178816000Y-96520000D03*
X178816000Y-97536000D03*
X178816000Y-98552000D03*
X175006000Y-98044000D03*
X175006000Y-99060000D03*
D23*
%TO.N,Net-(J1-Pad2)*%
X199950000Y-144272000D03*
D22*
%TO.N,Key2*%
X211074000Y-118618000D03*
%TO.N,Key1*%
X203200000Y-118618000D03*
%TO.N,Net-(D4-Pad1)*%
X228854000Y-98298000D03*
X229616000Y-94742000D03*
%TD*%
D24*
%TO.N,+5V*%
X179578000Y-130810000D02*
X188214000Y-139446000D01*
D25*
X239522000Y-140970000D02*
X242062000Y-140970000D01*
X237343639Y-128670361D02*
X237499201Y-128670361D01*
X231549562Y-134620000D02*
X231549562Y-134464438D01*
D24*
X179578000Y-130810000D02*
X177292000Y-130810000D01*
X175260000Y-130810000D02*
X175006000Y-130810000D01*
X177292000Y-130810000D02*
X175260000Y-130810000D01*
X177292000Y-130810000D02*
X185928000Y-139446000D01*
X175260000Y-130810000D02*
X183896000Y-139446000D01*
X183896000Y-139446000D02*
X186944000Y-139446000D01*
X186944000Y-139446000D02*
X188214000Y-139446000D01*
X185928000Y-139446000D02*
X186944000Y-139446000D01*
X231295562Y-134366000D02*
X231549562Y-134620000D01*
X206756000Y-134366000D02*
X231295562Y-134366000D01*
X202296589Y-139214421D02*
X202765221Y-138745789D01*
X201907579Y-139214421D02*
X202296589Y-139214421D01*
X202765221Y-138356779D02*
X206756000Y-134366000D01*
X202765221Y-138745789D02*
X202765221Y-138356779D01*
X201676000Y-139446000D02*
X201907579Y-139214421D01*
X188214000Y-139446000D02*
X201676000Y-139446000D01*
X236835639Y-128670361D02*
X237343639Y-128670361D01*
X231549562Y-133956438D02*
X236835639Y-128670361D01*
X231549562Y-134464438D02*
X231549562Y-133956438D01*
X239522000Y-140716000D02*
X239522000Y-140970000D01*
X233426000Y-134620000D02*
X239522000Y-140716000D01*
X231549562Y-134620000D02*
X233426000Y-134620000D01*
D26*
%TO.N,RGB5050-B*%
X227014042Y-108307602D02*
X225776641Y-107070201D01*
X235944043Y-108307602D02*
X227014042Y-108307602D01*
X236474000Y-107777645D02*
X235944043Y-108307602D01*
X236474000Y-100600000D02*
X236474000Y-107777645D01*
X232902000Y-97028000D02*
X236474000Y-100600000D01*
D25*
%TO.N,RGB5050-G*%
X232902000Y-99760000D02*
X232078000Y-100584000D01*
X232902000Y-99060000D02*
X232902000Y-99760000D01*
X232078000Y-100584000D02*
X228600000Y-100584000D01*
X225776641Y-103407359D02*
X225776641Y-104530201D01*
X228600000Y-100584000D02*
X225776641Y-103407359D01*
D26*
%TO.N,RGB5050-R*%
X225386440Y-109220000D02*
X223236641Y-107070201D01*
X236021609Y-109220000D02*
X225386440Y-109220000D01*
X237236000Y-108005609D02*
X236021609Y-109220000D01*
X237236000Y-99330000D02*
X237236000Y-108005609D01*
X232902000Y-94996000D02*
X237236000Y-99330000D01*
D24*
%TO.N,Net-(J1-Pad1)*%
X213658000Y-137764000D02*
X215182000Y-137764000D01*
X210198000Y-141224000D02*
X213658000Y-137764000D01*
X179228000Y-141224000D02*
X210198000Y-141224000D01*
X175873000Y-144579000D02*
X179228000Y-141224000D01*
%TO.N,Net-(J1-Pad2)*%
X196180000Y-144272000D02*
X195873000Y-144579000D01*
X199950000Y-144272000D02*
X196180000Y-144272000D01*
D26*
%TO.N,Key2*%
X211074000Y-114358000D02*
X211364000Y-114068000D01*
X211074000Y-118618000D02*
X211074000Y-114358000D01*
X211074000Y-122878000D02*
X211364000Y-123168000D01*
X211074000Y-118618000D02*
X211074000Y-122878000D01*
D25*
X207927562Y-118618000D02*
X207781201Y-118764361D01*
X211074000Y-118618000D02*
X207927562Y-118618000D01*
D26*
%TO.N,Key1*%
X203200000Y-123132000D02*
X203164000Y-123168000D01*
X203200000Y-118618000D02*
X203200000Y-123132000D01*
X203200000Y-114104000D02*
X203164000Y-114068000D01*
X203200000Y-118618000D02*
X203200000Y-114104000D01*
D25*
X205094840Y-118618000D02*
X205241201Y-118764361D01*
X203200000Y-118618000D02*
X205094840Y-118618000D01*
D26*
%TO.N,Net-(D4-Pad3)*%
X227190000Y-95328000D02*
X228690000Y-95328000D01*
X228690000Y-95328000D02*
X230390000Y-97028000D01*
X230390000Y-97028000D02*
X230902000Y-97028000D01*
%TO.N,Net-(D4-Pad2)*%
X228870000Y-97028000D02*
X230902000Y-99060000D01*
X227190000Y-97028000D02*
X228870000Y-97028000D01*
%TO.N,Net-(D4-Pad1)*%
X227190000Y-98728000D02*
X228424000Y-98728000D01*
X228424000Y-98728000D02*
X228854000Y-98298000D01*
X230648000Y-94742000D02*
X230902000Y-94996000D01*
X229616000Y-94742000D02*
X230648000Y-94742000D01*
D25*
%TO.N,IO8_LED*%
X223236641Y-103856641D02*
X223236641Y-104530201D01*
X219740010Y-100360010D02*
X223236641Y-103856641D01*
X216422010Y-100360010D02*
X219740010Y-100360010D01*
X211058000Y-94996000D02*
X216422010Y-100360010D01*
%TO.N,Net-(Q1-Pad2)*%
X209058000Y-97028000D02*
X209058000Y-94996000D01*
X208659001Y-96629001D02*
X209058000Y-97028000D01*
X204106999Y-96629001D02*
X208659001Y-96629001D01*
X203962000Y-96774000D02*
X204106999Y-96629001D01*
%TD*%
D27*
%TO.N,Net-(FU1-Pad1)*%
X179705000Y-99695000D02*
X174371000Y-99695000D01*
X174371000Y-96959066D01*
X175333250Y-96956000D01*
X175492000Y-96797250D01*
X175492000Y-95198000D01*
X175746000Y-95198000D01*
X175746000Y-96797250D01*
X175904750Y-96956000D01*
X176869000Y-96959072D01*
X176993482Y-96946812D01*
X177113180Y-96910502D01*
X177223494Y-96851537D01*
X177320185Y-96772185D01*
X177399537Y-96675494D01*
X177458502Y-96565180D01*
X177494812Y-96445482D01*
X177507072Y-96321000D01*
X177504000Y-95356750D01*
X177345250Y-95198000D01*
X175746000Y-95198000D01*
X175492000Y-95198000D01*
X175472000Y-95198000D01*
X175472000Y-94944000D01*
X175492000Y-94944000D01*
X175492000Y-94924000D01*
X175746000Y-94924000D01*
X175746000Y-94944000D01*
X177345250Y-94944000D01*
X177504000Y-94785250D01*
X177506890Y-93878000D01*
X179705000Y-93878000D01*
X179705000Y-99695000D01*
%TA.AperFunction,Conductor*%
D28*
G36*
X179705000Y-99695000D02*
G01*
X174371000Y-99695000D01*
X174371000Y-96959066D01*
X175333250Y-96956000D01*
X175492000Y-96797250D01*
X175492000Y-95198000D01*
X175746000Y-95198000D01*
X175746000Y-96797250D01*
X175904750Y-96956000D01*
X176869000Y-96959072D01*
X176993482Y-96946812D01*
X177113180Y-96910502D01*
X177223494Y-96851537D01*
X177320185Y-96772185D01*
X177399537Y-96675494D01*
X177458502Y-96565180D01*
X177494812Y-96445482D01*
X177507072Y-96321000D01*
X177504000Y-95356750D01*
X177345250Y-95198000D01*
X175746000Y-95198000D01*
X175492000Y-95198000D01*
X175472000Y-95198000D01*
X175472000Y-94944000D01*
X175492000Y-94944000D01*
X175492000Y-94924000D01*
X175746000Y-94924000D01*
X175746000Y-94944000D01*
X177345250Y-94944000D01*
X177504000Y-94785250D01*
X177506890Y-93878000D01*
X179705000Y-93878000D01*
X179705000Y-99695000D01*
G37*
%TD.AperFunction*%
%TD*%
D27*
%TO.N,GND*%
X208080038Y-93918038D02*
X207969595Y-94052613D01*
X207887528Y-94206149D01*
X207836992Y-94372745D01*
X207819928Y-94545999D01*
X207819928Y-95446001D01*
X207834505Y-95594001D01*
X204157834Y-95594001D01*
X204106999Y-95588994D01*
X204056164Y-95594001D01*
X204056161Y-95594001D01*
X203904104Y-95608977D01*
X203887546Y-95614000D01*
X203680021Y-95614000D01*
X203509600Y-95630785D01*
X203508891Y-95631000D01*
X202735750Y-95631000D01*
X202577000Y-95789750D01*
X202573928Y-96029000D01*
X202586188Y-96153482D01*
X202622498Y-96273180D01*
X202657093Y-96337902D01*
X202593785Y-96546600D01*
X202571388Y-96774000D01*
X202593785Y-97001400D01*
X202660115Y-97220060D01*
X202761105Y-97409000D01*
X202660115Y-97597940D01*
X202593785Y-97816600D01*
X202571388Y-98044000D01*
X202593785Y-98271400D01*
X202660115Y-98490060D01*
X202767829Y-98691579D01*
X202912788Y-98868212D01*
X203089421Y-99013171D01*
X203290940Y-99120885D01*
X203509600Y-99187215D01*
X203680021Y-99204000D01*
X204243979Y-99204000D01*
X204414400Y-99187215D01*
X204633060Y-99120885D01*
X204834579Y-99013171D01*
X205011212Y-98868212D01*
X205156171Y-98691579D01*
X205263885Y-98490060D01*
X205330215Y-98271400D01*
X205352612Y-98044000D01*
X205330215Y-97816600D01*
X205283924Y-97664001D01*
X207840858Y-97664001D01*
X207887528Y-97817851D01*
X207969595Y-97971387D01*
X208080038Y-98105962D01*
X208214613Y-98216405D01*
X208368149Y-98298472D01*
X208534745Y-98349008D01*
X208707999Y-98366072D01*
X209408001Y-98366072D01*
X209581255Y-98349008D01*
X209747851Y-98298472D01*
X209901387Y-98216405D01*
X210035962Y-98105962D01*
X210146405Y-97971387D01*
X210228472Y-97817851D01*
X210279008Y-97651255D01*
X210296072Y-97478001D01*
X210296072Y-96577999D01*
X210279008Y-96404745D01*
X210228472Y-96238149D01*
X210188126Y-96162668D01*
X210214613Y-96184405D01*
X210368149Y-96266472D01*
X210534745Y-96317008D01*
X210707999Y-96334072D01*
X210932362Y-96334072D01*
X215654206Y-101055917D01*
X215686614Y-101095406D01*
X215726102Y-101127813D01*
X215844212Y-101224744D01*
X215903684Y-101256532D01*
X216024017Y-101320851D01*
X216219115Y-101380034D01*
X216371172Y-101395010D01*
X216371175Y-101395010D01*
X216422010Y-101400017D01*
X216472845Y-101395010D01*
X219311300Y-101395010D01*
X221021018Y-103104729D01*
X219909241Y-103104729D01*
X219784759Y-103116989D01*
X219665061Y-103153299D01*
X219554747Y-103212264D01*
X219458056Y-103291616D01*
X219426641Y-103329895D01*
X219395226Y-103291616D01*
X219298535Y-103212264D01*
X219188221Y-103153299D01*
X219068523Y-103116989D01*
X218944041Y-103104729D01*
X217369241Y-103104729D01*
X217244759Y-103116989D01*
X217125061Y-103153299D01*
X217014747Y-103212264D01*
X216918056Y-103291616D01*
X216886641Y-103329895D01*
X216855226Y-103291616D01*
X216758535Y-103212264D01*
X216648221Y-103153299D01*
X216528523Y-103116989D01*
X216404041Y-103104729D01*
X214829241Y-103104729D01*
X214704759Y-103116989D01*
X214585061Y-103153299D01*
X214474747Y-103212264D01*
X214378056Y-103291616D01*
X214346641Y-103329895D01*
X214315226Y-103291616D01*
X214218535Y-103212264D01*
X214108221Y-103153299D01*
X213988523Y-103116989D01*
X213864041Y-103104729D01*
X212289241Y-103104729D01*
X212164759Y-103116989D01*
X212045061Y-103153299D01*
X211934747Y-103212264D01*
X211838056Y-103291616D01*
X211806641Y-103329895D01*
X211775226Y-103291616D01*
X211678535Y-103212264D01*
X211568221Y-103153299D01*
X211448523Y-103116989D01*
X211324041Y-103104729D01*
X209749241Y-103104729D01*
X209624759Y-103116989D01*
X209505061Y-103153299D01*
X209394747Y-103212264D01*
X209298056Y-103291616D01*
X209218704Y-103388307D01*
X209159739Y-103498621D01*
X209123429Y-103618319D01*
X209111169Y-103742801D01*
X209111169Y-105317601D01*
X209123429Y-105442083D01*
X209159739Y-105561781D01*
X209218704Y-105672095D01*
X209298056Y-105768786D01*
X209336335Y-105800201D01*
X209298056Y-105831616D01*
X209218704Y-105928307D01*
X209159739Y-106038621D01*
X209123429Y-106158319D01*
X209111169Y-106282801D01*
X209111169Y-107857601D01*
X209123429Y-107982083D01*
X209159739Y-108101781D01*
X209218704Y-108212095D01*
X209298056Y-108308786D01*
X209394747Y-108388138D01*
X209505061Y-108447103D01*
X209624759Y-108483413D01*
X209749241Y-108495673D01*
X211324041Y-108495673D01*
X211448523Y-108483413D01*
X211568221Y-108447103D01*
X211678535Y-108388138D01*
X211775226Y-108308786D01*
X211806641Y-108270507D01*
X211838056Y-108308786D01*
X211934747Y-108388138D01*
X212045061Y-108447103D01*
X212164759Y-108483413D01*
X212289241Y-108495673D01*
X213864041Y-108495673D01*
X213988523Y-108483413D01*
X214108221Y-108447103D01*
X214218535Y-108388138D01*
X214315226Y-108308786D01*
X214346641Y-108270507D01*
X214378056Y-108308786D01*
X214474747Y-108388138D01*
X214585061Y-108447103D01*
X214704759Y-108483413D01*
X214829241Y-108495673D01*
X216404041Y-108495673D01*
X216528523Y-108483413D01*
X216648221Y-108447103D01*
X216758535Y-108388138D01*
X216855226Y-108308786D01*
X216886641Y-108270507D01*
X216918056Y-108308786D01*
X217014747Y-108388138D01*
X217125061Y-108447103D01*
X217244759Y-108483413D01*
X217369241Y-108495673D01*
X218944041Y-108495673D01*
X219068523Y-108483413D01*
X219188221Y-108447103D01*
X219298535Y-108388138D01*
X219395226Y-108308786D01*
X219426641Y-108270507D01*
X219458056Y-108308786D01*
X219554747Y-108388138D01*
X219665061Y-108447103D01*
X219784759Y-108483413D01*
X219909241Y-108495673D01*
X221484041Y-108495673D01*
X221608523Y-108483413D01*
X221728221Y-108447103D01*
X221838535Y-108388138D01*
X221935226Y-108308786D01*
X221966641Y-108270507D01*
X221998056Y-108308786D01*
X222094747Y-108388138D01*
X222205061Y-108447103D01*
X222324759Y-108483413D01*
X222449241Y-108495673D01*
X223410535Y-108495673D01*
X224729910Y-109815049D01*
X224757623Y-109848817D01*
X224791391Y-109876530D01*
X224791393Y-109876532D01*
X224827027Y-109905776D01*
X224892381Y-109959411D01*
X225046127Y-110041589D01*
X225212950Y-110092195D01*
X225342963Y-110105000D01*
X225342971Y-110105000D01*
X225386440Y-110109281D01*
X225429909Y-110105000D01*
X235978140Y-110105000D01*
X236021609Y-110109281D01*
X236065078Y-110105000D01*
X236065086Y-110105000D01*
X236073729Y-110104149D01*
X236073729Y-111677761D01*
X236085989Y-111802243D01*
X236122299Y-111921941D01*
X236181264Y-112032255D01*
X236260616Y-112128946D01*
X236298895Y-112160361D01*
X236260616Y-112191776D01*
X236181264Y-112288467D01*
X236122299Y-112398781D01*
X236085989Y-112518479D01*
X236073729Y-112642961D01*
X236073729Y-114217761D01*
X236085989Y-114342243D01*
X236122299Y-114461941D01*
X236181264Y-114572255D01*
X236260616Y-114668946D01*
X236298895Y-114700361D01*
X236260616Y-114731776D01*
X236181264Y-114828467D01*
X236122299Y-114938781D01*
X236085989Y-115058479D01*
X236073729Y-115182961D01*
X236073729Y-116757761D01*
X236085989Y-116882243D01*
X236122299Y-117001941D01*
X236181264Y-117112255D01*
X236260616Y-117208946D01*
X236298895Y-117240361D01*
X236260616Y-117271776D01*
X236181264Y-117368467D01*
X236122299Y-117478781D01*
X236085989Y-117598479D01*
X236073729Y-117722961D01*
X236073729Y-119297761D01*
X236085989Y-119422243D01*
X236122299Y-119541941D01*
X236181264Y-119652255D01*
X236260616Y-119748946D01*
X236298895Y-119780361D01*
X236260616Y-119811776D01*
X236181264Y-119908467D01*
X236122299Y-120018781D01*
X236085989Y-120138479D01*
X236073729Y-120262961D01*
X236073729Y-121837761D01*
X236085989Y-121962243D01*
X236122299Y-122081941D01*
X236181264Y-122192255D01*
X236260616Y-122288946D01*
X236298895Y-122320361D01*
X236260616Y-122351776D01*
X236181264Y-122448467D01*
X236122299Y-122558781D01*
X236085989Y-122678479D01*
X236073729Y-122802961D01*
X236073729Y-124377761D01*
X236085989Y-124502243D01*
X236122299Y-124621941D01*
X236181264Y-124732255D01*
X236260616Y-124828946D01*
X236298895Y-124860361D01*
X236260616Y-124891776D01*
X236181264Y-124988467D01*
X236122299Y-125098781D01*
X236085989Y-125218479D01*
X236073729Y-125342961D01*
X236076801Y-125844611D01*
X236235551Y-126003361D01*
X237372201Y-126003361D01*
X237372201Y-125983361D01*
X237626201Y-125983361D01*
X237626201Y-126003361D01*
X238762851Y-126003361D01*
X238769201Y-125997011D01*
X238775551Y-126003361D01*
X239912201Y-126003361D01*
X239912201Y-125983361D01*
X240166201Y-125983361D01*
X240166201Y-126003361D01*
X241302851Y-126003361D01*
X241461601Y-125844611D01*
X241464673Y-125342961D01*
X241452413Y-125218479D01*
X241416103Y-125098781D01*
X241357138Y-124988467D01*
X241277786Y-124891776D01*
X241239507Y-124860361D01*
X241277786Y-124828946D01*
X241357138Y-124732255D01*
X241416103Y-124621941D01*
X241452413Y-124502243D01*
X241464673Y-124377761D01*
X241464673Y-122802961D01*
X241452413Y-122678479D01*
X241416103Y-122558781D01*
X241357138Y-122448467D01*
X241277786Y-122351776D01*
X241239507Y-122320361D01*
X241277786Y-122288946D01*
X241357138Y-122192255D01*
X241416103Y-122081941D01*
X241452413Y-121962243D01*
X241464673Y-121837761D01*
X241464673Y-120262961D01*
X241452413Y-120138479D01*
X241416103Y-120018781D01*
X241357138Y-119908467D01*
X241277786Y-119811776D01*
X241239507Y-119780361D01*
X241277786Y-119748946D01*
X241357138Y-119652255D01*
X241416103Y-119541941D01*
X241452413Y-119422243D01*
X241464673Y-119297761D01*
X241464673Y-117722961D01*
X241452413Y-117598479D01*
X241416103Y-117478781D01*
X241357138Y-117368467D01*
X241277786Y-117271776D01*
X241239507Y-117240361D01*
X241277786Y-117208946D01*
X241357138Y-117112255D01*
X241416103Y-117001941D01*
X241452413Y-116882243D01*
X241464673Y-116757761D01*
X241464673Y-115182961D01*
X241452413Y-115058479D01*
X241416103Y-114938781D01*
X241357138Y-114828467D01*
X241277786Y-114731776D01*
X241239507Y-114700361D01*
X241277786Y-114668946D01*
X241357138Y-114572255D01*
X241416103Y-114461941D01*
X241452413Y-114342243D01*
X241464673Y-114217761D01*
X241464673Y-112642961D01*
X241452413Y-112518479D01*
X241416103Y-112398781D01*
X241357138Y-112288467D01*
X241277786Y-112191776D01*
X241239507Y-112160361D01*
X241277786Y-112128946D01*
X241357138Y-112032255D01*
X241416103Y-111921941D01*
X241452413Y-111802243D01*
X241464673Y-111677761D01*
X241464673Y-110102961D01*
X241452413Y-109978479D01*
X241416103Y-109858781D01*
X241357138Y-109748467D01*
X241277786Y-109651776D01*
X241181095Y-109572424D01*
X241070781Y-109513459D01*
X240951083Y-109477149D01*
X240826601Y-109464889D01*
X239251801Y-109464889D01*
X239127319Y-109477149D01*
X239007621Y-109513459D01*
X238897307Y-109572424D01*
X238800616Y-109651776D01*
X238769201Y-109690055D01*
X238737786Y-109651776D01*
X238641095Y-109572424D01*
X238530781Y-109513459D01*
X238411083Y-109477149D01*
X238286601Y-109464889D01*
X237028298Y-109464889D01*
X237831049Y-108662139D01*
X237864817Y-108634426D01*
X237975411Y-108499668D01*
X238057589Y-108345922D01*
X238108195Y-108179099D01*
X238121000Y-108049086D01*
X238121000Y-108049076D01*
X238125281Y-108005610D01*
X238121000Y-107962144D01*
X238121000Y-99373469D01*
X238125281Y-99330000D01*
X238121000Y-99286531D01*
X238121000Y-99286523D01*
X238108195Y-99156510D01*
X238063497Y-99009162D01*
X238057589Y-98989686D01*
X237975411Y-98835941D01*
X237892532Y-98734953D01*
X237892530Y-98734951D01*
X237864817Y-98701183D01*
X237831050Y-98673472D01*
X234140072Y-94982494D01*
X234140072Y-94545999D01*
X234123008Y-94372745D01*
X234072472Y-94206149D01*
X233990405Y-94052613D01*
X233879962Y-93918038D01*
X233831176Y-93878000D01*
X248514000Y-93878000D01*
X248514001Y-145390000D01*
X219028556Y-145390000D01*
X219209502Y-145241502D01*
X219363833Y-145053449D01*
X219478511Y-144838901D01*
X219549130Y-144606102D01*
X219567000Y-144424665D01*
X219567000Y-143103335D01*
X219549130Y-142921898D01*
X219478511Y-142689099D01*
X219363833Y-142474551D01*
X219209502Y-142286498D01*
X219021449Y-142132167D01*
X218806901Y-142017489D01*
X218574102Y-141946870D01*
X218332000Y-141923025D01*
X218089899Y-141946870D01*
X217857100Y-142017489D01*
X217642552Y-142132167D01*
X217454499Y-142286498D01*
X217300168Y-142474551D01*
X217185489Y-142689099D01*
X217114870Y-142921898D01*
X217097000Y-143103335D01*
X217097000Y-144424664D01*
X217114870Y-144606101D01*
X217185489Y-144838900D01*
X217300167Y-145053448D01*
X217454498Y-145241502D01*
X217635443Y-145390000D01*
X205528556Y-145390000D01*
X205709502Y-145241502D01*
X205863833Y-145053449D01*
X205978511Y-144838901D01*
X206049130Y-144606102D01*
X206067000Y-144424665D01*
X206067000Y-143103335D01*
X206049130Y-142921898D01*
X205978511Y-142689099D01*
X205863833Y-142474551D01*
X205851071Y-142459000D01*
X210137335Y-142459000D01*
X210198000Y-142464975D01*
X210258665Y-142459000D01*
X210440102Y-142441130D01*
X210672901Y-142370511D01*
X210887449Y-142255833D01*
X211075502Y-142101502D01*
X211114178Y-142054375D01*
X211841662Y-141326891D01*
X233000519Y-141326891D01*
X233097843Y-141601252D01*
X233246822Y-141851355D01*
X233441731Y-142067588D01*
X233675080Y-142241641D01*
X233937901Y-142366825D01*
X234085110Y-142411476D01*
X234315000Y-142290155D01*
X234315000Y-141097000D01*
X234569000Y-141097000D01*
X234569000Y-142290155D01*
X234798890Y-142411476D01*
X234946099Y-142366825D01*
X235208920Y-142241641D01*
X235442269Y-142067588D01*
X235637178Y-141851355D01*
X235712000Y-141725745D01*
X235786822Y-141851355D01*
X235981731Y-142067588D01*
X236215080Y-142241641D01*
X236477901Y-142366825D01*
X236625110Y-142411476D01*
X236855000Y-142290155D01*
X236855000Y-141097000D01*
X234569000Y-141097000D01*
X234315000Y-141097000D01*
X233121186Y-141097000D01*
X233000519Y-141326891D01*
X211841662Y-141326891D01*
X212555444Y-140613109D01*
X233000519Y-140613109D01*
X233121186Y-140843000D01*
X234315000Y-140843000D01*
X234315000Y-139649845D01*
X234085110Y-139528524D01*
X233937901Y-139573175D01*
X233675080Y-139698359D01*
X233441731Y-139872412D01*
X233246822Y-140088645D01*
X233097843Y-140338748D01*
X233000519Y-140613109D01*
X212555444Y-140613109D01*
X212999816Y-140168738D01*
X213079820Y-140211502D01*
X213199518Y-140247812D01*
X213324000Y-140260072D01*
X217040000Y-140260072D01*
X217164482Y-140247812D01*
X217284180Y-140211502D01*
X217394494Y-140152537D01*
X217491185Y-140073185D01*
X217570537Y-139976494D01*
X217629502Y-139866180D01*
X217665812Y-139746482D01*
X217678072Y-139622000D01*
X217678072Y-135906000D01*
X217665812Y-135781518D01*
X217629502Y-135661820D01*
X217596993Y-135601000D01*
X230798173Y-135601000D01*
X230860113Y-135651833D01*
X231074661Y-135766511D01*
X231191060Y-135801820D01*
X231307459Y-135837130D01*
X231549561Y-135860975D01*
X231610226Y-135855000D01*
X232914447Y-135855000D01*
X236596614Y-139537167D01*
X236477901Y-139573175D01*
X236215080Y-139698359D01*
X235981731Y-139872412D01*
X235786822Y-140088645D01*
X235712000Y-140214255D01*
X235637178Y-140088645D01*
X235442269Y-139872412D01*
X235208920Y-139698359D01*
X234946099Y-139573175D01*
X234798890Y-139528524D01*
X234569000Y-139649845D01*
X234569000Y-140843000D01*
X236855000Y-140843000D01*
X236855000Y-140823000D01*
X237109000Y-140823000D01*
X237109000Y-140843000D01*
X237129000Y-140843000D01*
X237129000Y-141097000D01*
X237109000Y-141097000D01*
X237109000Y-142290155D01*
X237338890Y-142411476D01*
X237486099Y-142366825D01*
X237748920Y-142241641D01*
X237982269Y-142067588D01*
X238177178Y-141851355D01*
X238246805Y-141734466D01*
X238368525Y-141916632D01*
X238575368Y-142123475D01*
X238818589Y-142285990D01*
X239088842Y-142397932D01*
X239375740Y-142455000D01*
X239668260Y-142455000D01*
X239955158Y-142397932D01*
X240225411Y-142285990D01*
X240468632Y-142123475D01*
X240587107Y-142005000D01*
X240604546Y-142005000D01*
X240622498Y-142064180D01*
X240681463Y-142174494D01*
X240760815Y-142271185D01*
X240857506Y-142350537D01*
X240967820Y-142409502D01*
X241087518Y-142445812D01*
X241212000Y-142458072D01*
X242912000Y-142458072D01*
X243036482Y-142445812D01*
X243156180Y-142409502D01*
X243266494Y-142350537D01*
X243363185Y-142271185D01*
X243442537Y-142174494D01*
X243501502Y-142064180D01*
X243537812Y-141944482D01*
X243550072Y-141820000D01*
X243550072Y-140120000D01*
X243537812Y-139995518D01*
X243501502Y-139875820D01*
X243442537Y-139765506D01*
X243363185Y-139668815D01*
X243266494Y-139589463D01*
X243156180Y-139530498D01*
X243036482Y-139494188D01*
X242912000Y-139481928D01*
X241212000Y-139481928D01*
X241087518Y-139494188D01*
X240967820Y-139530498D01*
X240857506Y-139589463D01*
X240760815Y-139668815D01*
X240681463Y-139765506D01*
X240622498Y-139875820D01*
X240604546Y-139935000D01*
X240587107Y-139935000D01*
X240468632Y-139816525D01*
X240225411Y-139654010D01*
X240193237Y-139640683D01*
X235866945Y-135314391D01*
X243947119Y-135314391D01*
X243947119Y-138414411D01*
X243959379Y-138538893D01*
X243995689Y-138658591D01*
X244054654Y-138768905D01*
X244134006Y-138865596D01*
X244230697Y-138944948D01*
X244341011Y-139003913D01*
X244460709Y-139040223D01*
X244585191Y-139052483D01*
X247685211Y-139052483D01*
X247809693Y-139040223D01*
X247929391Y-139003913D01*
X248039705Y-138944948D01*
X248136396Y-138865596D01*
X248215748Y-138768905D01*
X248274713Y-138658591D01*
X248311023Y-138538893D01*
X248323283Y-138414411D01*
X248323283Y-135314391D01*
X248311023Y-135189909D01*
X248274713Y-135070211D01*
X248215748Y-134959897D01*
X248136396Y-134863206D01*
X248039705Y-134783854D01*
X247929391Y-134724889D01*
X247809693Y-134688579D01*
X247685211Y-134676319D01*
X244585191Y-134676319D01*
X244460709Y-134688579D01*
X244341011Y-134724889D01*
X244230697Y-134783854D01*
X244134006Y-134863206D01*
X244054654Y-134959897D01*
X243995689Y-135070211D01*
X243959379Y-135189909D01*
X243947119Y-135314391D01*
X235866945Y-135314391D01*
X234342179Y-133789625D01*
X234303502Y-133742498D01*
X234115449Y-133588167D01*
X233900901Y-133473489D01*
X233807421Y-133445132D01*
X236073729Y-131178825D01*
X236073729Y-131997761D01*
X236085989Y-132122243D01*
X236122299Y-132241941D01*
X236181264Y-132352255D01*
X236260616Y-132448946D01*
X236357307Y-132528298D01*
X236467621Y-132587263D01*
X236587319Y-132623573D01*
X236711801Y-132635833D01*
X238286601Y-132635833D01*
X238411083Y-132623573D01*
X238530781Y-132587263D01*
X238641095Y-132528298D01*
X238737786Y-132448946D01*
X238769201Y-132410667D01*
X238800616Y-132448946D01*
X238897307Y-132528298D01*
X239007621Y-132587263D01*
X239127319Y-132623573D01*
X239251801Y-132635833D01*
X240826601Y-132635833D01*
X240951083Y-132623573D01*
X241070781Y-132587263D01*
X241181095Y-132528298D01*
X241277786Y-132448946D01*
X241357138Y-132352255D01*
X241416103Y-132241941D01*
X241452413Y-132122243D01*
X241464673Y-131997761D01*
X241464673Y-130422961D01*
X241452413Y-130298479D01*
X241416103Y-130178781D01*
X241357138Y-130068467D01*
X241277786Y-129971776D01*
X241239507Y-129940361D01*
X241277786Y-129908946D01*
X241357138Y-129812255D01*
X241416103Y-129701941D01*
X241452413Y-129582243D01*
X241464673Y-129457761D01*
X241464673Y-127882961D01*
X241452413Y-127758479D01*
X241416103Y-127638781D01*
X241357138Y-127528467D01*
X241277786Y-127431776D01*
X241239507Y-127400361D01*
X241277786Y-127368946D01*
X241357138Y-127272255D01*
X241416103Y-127161941D01*
X241452413Y-127042243D01*
X241464673Y-126917761D01*
X241461601Y-126416111D01*
X241302851Y-126257361D01*
X240166201Y-126257361D01*
X240166201Y-126277361D01*
X239912201Y-126277361D01*
X239912201Y-126257361D01*
X238775551Y-126257361D01*
X238769201Y-126263711D01*
X238762851Y-126257361D01*
X237626201Y-126257361D01*
X237626201Y-126277361D01*
X237372201Y-126277361D01*
X237372201Y-126257361D01*
X236235551Y-126257361D01*
X236076801Y-126416111D01*
X236073729Y-126917761D01*
X236085989Y-127042243D01*
X236122299Y-127161941D01*
X236181264Y-127272255D01*
X236260616Y-127368946D01*
X236298895Y-127400361D01*
X236260616Y-127431776D01*
X236181264Y-127528467D01*
X236122299Y-127638781D01*
X236114482Y-127664550D01*
X235958137Y-127792859D01*
X235919465Y-127839981D01*
X230719183Y-133040264D01*
X230672061Y-133078936D01*
X230629333Y-133131000D01*
X206816665Y-133131000D01*
X206756000Y-133125025D01*
X206695335Y-133131000D01*
X206513898Y-133148870D01*
X206281099Y-133219489D01*
X206066551Y-133334167D01*
X205878498Y-133488498D01*
X205839826Y-133535620D01*
X202603283Y-136772164D01*
X202603283Y-135314391D01*
X202591023Y-135189909D01*
X202554713Y-135070211D01*
X202495748Y-134959897D01*
X202416396Y-134863206D01*
X202319705Y-134783854D01*
X202209391Y-134724889D01*
X202089693Y-134688579D01*
X201965211Y-134676319D01*
X198865191Y-134676319D01*
X198740709Y-134688579D01*
X198621011Y-134724889D01*
X198510697Y-134783854D01*
X198414006Y-134863206D01*
X198334654Y-134959897D01*
X198275689Y-135070211D01*
X198239379Y-135189909D01*
X198227119Y-135314391D01*
X198227119Y-138211000D01*
X197485000Y-138211000D01*
X197485000Y-113018000D01*
X201825928Y-113018000D01*
X201825928Y-115118000D01*
X201838188Y-115242482D01*
X201874498Y-115362180D01*
X201933463Y-115472494D01*
X202012815Y-115569185D01*
X202109506Y-115648537D01*
X202219820Y-115707502D01*
X202315001Y-115736375D01*
X202315000Y-118078118D01*
X202311186Y-118085254D01*
X202282795Y-118127744D01*
X202263238Y-118174958D01*
X202239159Y-118220007D01*
X202224331Y-118268887D01*
X202204774Y-118316102D01*
X202194804Y-118366223D01*
X202179976Y-118415105D01*
X202174969Y-118465943D01*
X202165000Y-118516061D01*
X202165000Y-118567162D01*
X202159993Y-118618000D01*
X202165000Y-118668838D01*
X202165000Y-118719939D01*
X202174969Y-118770057D01*
X202179976Y-118820895D01*
X202194804Y-118869777D01*
X202204774Y-118919898D01*
X202224331Y-118967113D01*
X202239159Y-119015993D01*
X202263238Y-119061042D01*
X202282795Y-119108256D01*
X202311186Y-119150746D01*
X202315000Y-119157882D01*
X202315001Y-121499625D01*
X202219820Y-121528498D01*
X202109506Y-121587463D01*
X202012815Y-121666815D01*
X201933463Y-121763506D01*
X201874498Y-121873820D01*
X201838188Y-121993518D01*
X201825928Y-122118000D01*
X201825928Y-124218000D01*
X201838188Y-124342482D01*
X201874498Y-124462180D01*
X201933463Y-124572494D01*
X202012815Y-124669185D01*
X202109506Y-124748537D01*
X202219820Y-124807502D01*
X202339518Y-124843812D01*
X202464000Y-124856072D01*
X203858272Y-124856072D01*
X203864299Y-124875941D01*
X203923264Y-124986255D01*
X204002616Y-125082946D01*
X204040895Y-125114361D01*
X204002616Y-125145776D01*
X203923264Y-125242467D01*
X203864299Y-125352781D01*
X203827989Y-125472479D01*
X203815729Y-125596961D01*
X203815729Y-127171761D01*
X203827989Y-127296243D01*
X203864299Y-127415941D01*
X203923264Y-127526255D01*
X204002616Y-127622946D01*
X204040895Y-127654361D01*
X204002616Y-127685776D01*
X203923264Y-127782467D01*
X203864299Y-127892781D01*
X203827989Y-128012479D01*
X203815729Y-128136961D01*
X203815729Y-129711761D01*
X203827989Y-129836243D01*
X203864299Y-129955941D01*
X203923264Y-130066255D01*
X204002616Y-130162946D01*
X204040895Y-130194361D01*
X204002616Y-130225776D01*
X203923264Y-130322467D01*
X203864299Y-130432781D01*
X203827989Y-130552479D01*
X203815729Y-130676961D01*
X203815729Y-132251761D01*
X203827989Y-132376243D01*
X203864299Y-132495941D01*
X203923264Y-132606255D01*
X204002616Y-132702946D01*
X204099307Y-132782298D01*
X204209621Y-132841263D01*
X204329319Y-132877573D01*
X204453801Y-132889833D01*
X206028601Y-132889833D01*
X206153083Y-132877573D01*
X206272781Y-132841263D01*
X206383095Y-132782298D01*
X206479786Y-132702946D01*
X206511201Y-132664667D01*
X206542616Y-132702946D01*
X206639307Y-132782298D01*
X206749621Y-132841263D01*
X206869319Y-132877573D01*
X206993801Y-132889833D01*
X208568601Y-132889833D01*
X208693083Y-132877573D01*
X208812781Y-132841263D01*
X208923095Y-132782298D01*
X209019786Y-132702946D01*
X209099138Y-132606255D01*
X209158103Y-132495941D01*
X209194413Y-132376243D01*
X209206673Y-132251761D01*
X209206673Y-130676961D01*
X209194413Y-130552479D01*
X209158103Y-130432781D01*
X209099138Y-130322467D01*
X209019786Y-130225776D01*
X208981507Y-130194361D01*
X209019786Y-130162946D01*
X209099138Y-130066255D01*
X209158103Y-129955941D01*
X209194413Y-129836243D01*
X209206673Y-129711761D01*
X209206673Y-128136961D01*
X209194413Y-128012479D01*
X209158103Y-127892781D01*
X209099138Y-127782467D01*
X209019786Y-127685776D01*
X208981507Y-127654361D01*
X209019786Y-127622946D01*
X209099138Y-127526255D01*
X209158103Y-127415941D01*
X209194413Y-127296243D01*
X209206673Y-127171761D01*
X209206673Y-125596961D01*
X209194413Y-125472479D01*
X209158103Y-125352781D01*
X209099138Y-125242467D01*
X209019786Y-125145776D01*
X208981507Y-125114361D01*
X209019786Y-125082946D01*
X209099138Y-124986255D01*
X209158103Y-124875941D01*
X209194413Y-124756243D01*
X209206673Y-124631761D01*
X209206673Y-123056961D01*
X209194413Y-122932479D01*
X209158103Y-122812781D01*
X209099138Y-122702467D01*
X209019786Y-122605776D01*
X208981507Y-122574361D01*
X209019786Y-122542946D01*
X209099138Y-122446255D01*
X209158103Y-122335941D01*
X209194413Y-122216243D01*
X209206673Y-122091761D01*
X209206673Y-120516961D01*
X209194413Y-120392479D01*
X209158103Y-120272781D01*
X209099138Y-120162467D01*
X209019786Y-120065776D01*
X208981507Y-120034361D01*
X209019786Y-120002946D01*
X209099138Y-119906255D01*
X209158103Y-119795941D01*
X209194413Y-119676243D01*
X209196702Y-119653000D01*
X210189000Y-119653000D01*
X210189001Y-121695833D01*
X210133463Y-121763506D01*
X210074498Y-121873820D01*
X210038188Y-121993518D01*
X210025928Y-122118000D01*
X210025928Y-124218000D01*
X210038188Y-124342482D01*
X210074498Y-124462180D01*
X210133463Y-124572494D01*
X210212815Y-124669185D01*
X210309506Y-124748537D01*
X210419820Y-124807502D01*
X210539518Y-124843812D01*
X210664000Y-124856072D01*
X212064000Y-124856072D01*
X212188482Y-124843812D01*
X212308180Y-124807502D01*
X212418494Y-124748537D01*
X212515185Y-124669185D01*
X212594537Y-124572494D01*
X212653502Y-124462180D01*
X212689812Y-124342482D01*
X212702072Y-124218000D01*
X212702072Y-122118000D01*
X212689812Y-121993518D01*
X212653502Y-121873820D01*
X212594537Y-121763506D01*
X212515185Y-121666815D01*
X212418494Y-121587463D01*
X212308180Y-121528498D01*
X212188482Y-121492188D01*
X212064000Y-121479928D01*
X211959000Y-121479928D01*
X211959000Y-119157882D01*
X211962814Y-119150746D01*
X211991205Y-119108256D01*
X212010762Y-119061042D01*
X212034841Y-119015993D01*
X212049669Y-118967113D01*
X212069226Y-118919898D01*
X212079196Y-118869777D01*
X212094024Y-118820895D01*
X212099031Y-118770057D01*
X212109000Y-118719939D01*
X212109000Y-118668838D01*
X212114007Y-118618000D01*
X212109000Y-118567162D01*
X212109000Y-118516061D01*
X212099031Y-118465943D01*
X212094024Y-118415105D01*
X212079196Y-118366223D01*
X212069226Y-118316102D01*
X212049669Y-118268887D01*
X212034841Y-118220007D01*
X212010762Y-118174958D01*
X211991205Y-118127744D01*
X211962814Y-118085254D01*
X211959000Y-118078118D01*
X211959000Y-115756072D01*
X212064000Y-115756072D01*
X212188482Y-115743812D01*
X212308180Y-115707502D01*
X212418494Y-115648537D01*
X212515185Y-115569185D01*
X212594537Y-115472494D01*
X212653502Y-115362180D01*
X212689812Y-115242482D01*
X212702072Y-115118000D01*
X212702072Y-113018000D01*
X212689812Y-112893518D01*
X212653502Y-112773820D01*
X212594537Y-112663506D01*
X212515185Y-112566815D01*
X212418494Y-112487463D01*
X212308180Y-112428498D01*
X212188482Y-112392188D01*
X212064000Y-112379928D01*
X210664000Y-112379928D01*
X210539518Y-112392188D01*
X210419820Y-112428498D01*
X210309506Y-112487463D01*
X210212815Y-112566815D01*
X210133463Y-112663506D01*
X210074498Y-112773820D01*
X210038188Y-112893518D01*
X210025928Y-113018000D01*
X210025928Y-115118000D01*
X210038188Y-115242482D01*
X210074498Y-115362180D01*
X210133463Y-115472494D01*
X210189001Y-115540167D01*
X210189000Y-117583000D01*
X209066748Y-117583000D01*
X209019786Y-117525776D01*
X208981507Y-117494361D01*
X209019786Y-117462946D01*
X209099138Y-117366255D01*
X209158103Y-117255941D01*
X209194413Y-117136243D01*
X209206673Y-117011761D01*
X209206673Y-115436961D01*
X209194413Y-115312479D01*
X209158103Y-115192781D01*
X209099138Y-115082467D01*
X209019786Y-114985776D01*
X208981507Y-114954361D01*
X209019786Y-114922946D01*
X209099138Y-114826255D01*
X209158103Y-114715941D01*
X209194413Y-114596243D01*
X209206673Y-114471761D01*
X209206673Y-112896961D01*
X209194413Y-112772479D01*
X209158103Y-112652781D01*
X209099138Y-112542467D01*
X209019786Y-112445776D01*
X208981507Y-112414361D01*
X209019786Y-112382946D01*
X209099138Y-112286255D01*
X209158103Y-112175941D01*
X209194413Y-112056243D01*
X209206673Y-111931761D01*
X209206673Y-110356961D01*
X209194413Y-110232479D01*
X209158103Y-110112781D01*
X209099138Y-110002467D01*
X209019786Y-109905776D01*
X208923095Y-109826424D01*
X208812781Y-109767459D01*
X208693083Y-109731149D01*
X208568601Y-109718889D01*
X206993801Y-109718889D01*
X206869319Y-109731149D01*
X206749621Y-109767459D01*
X206639307Y-109826424D01*
X206542616Y-109905776D01*
X206511201Y-109944055D01*
X206479786Y-109905776D01*
X206383095Y-109826424D01*
X206272781Y-109767459D01*
X206153083Y-109731149D01*
X206028601Y-109718889D01*
X204453801Y-109718889D01*
X204329319Y-109731149D01*
X204209621Y-109767459D01*
X204099307Y-109826424D01*
X204002616Y-109905776D01*
X203923264Y-110002467D01*
X203864299Y-110112781D01*
X203827989Y-110232479D01*
X203815729Y-110356961D01*
X203815729Y-111931761D01*
X203827989Y-112056243D01*
X203864299Y-112175941D01*
X203923264Y-112286255D01*
X204002616Y-112382946D01*
X204028769Y-112404409D01*
X203988482Y-112392188D01*
X203864000Y-112379928D01*
X202464000Y-112379928D01*
X202339518Y-112392188D01*
X202219820Y-112428498D01*
X202109506Y-112487463D01*
X202012815Y-112566815D01*
X201933463Y-112663506D01*
X201874498Y-112773820D01*
X201838188Y-112893518D01*
X201825928Y-113018000D01*
X197485000Y-113018000D01*
X197485000Y-104194311D01*
X198227119Y-104194311D01*
X198227119Y-107294331D01*
X198239379Y-107418813D01*
X198275689Y-107538511D01*
X198334654Y-107648825D01*
X198414006Y-107745516D01*
X198510697Y-107824868D01*
X198621011Y-107883833D01*
X198740709Y-107920143D01*
X198865191Y-107932403D01*
X201965211Y-107932403D01*
X202089693Y-107920143D01*
X202209391Y-107883833D01*
X202319705Y-107824868D01*
X202416396Y-107745516D01*
X202495748Y-107648825D01*
X202554713Y-107538511D01*
X202591023Y-107418813D01*
X202603283Y-107294331D01*
X202603283Y-104194311D01*
X202591023Y-104069829D01*
X202554713Y-103950131D01*
X202495748Y-103839817D01*
X202416396Y-103743126D01*
X202319705Y-103663774D01*
X202209391Y-103604809D01*
X202089693Y-103568499D01*
X201965211Y-103556239D01*
X198865191Y-103556239D01*
X198740709Y-103568499D01*
X198621011Y-103604809D01*
X198510697Y-103663774D01*
X198414006Y-103743126D01*
X198334654Y-103839817D01*
X198275689Y-103950131D01*
X198239379Y-104069829D01*
X198227119Y-104194311D01*
X197485000Y-104194311D01*
X197485000Y-97282000D01*
X197482560Y-97257224D01*
X197475333Y-97233399D01*
X197463597Y-97211443D01*
X197447803Y-97192197D01*
X197428557Y-97176403D01*
X197406601Y-97164667D01*
X197382776Y-97157440D01*
X197358000Y-97155000D01*
X194183000Y-97155000D01*
X194183000Y-94979000D01*
X202573928Y-94979000D01*
X202577000Y-95218250D01*
X202735750Y-95377000D01*
X203835000Y-95377000D01*
X203835000Y-94502750D01*
X204089000Y-94502750D01*
X204089000Y-95377000D01*
X205188250Y-95377000D01*
X205347000Y-95218250D01*
X205350072Y-94979000D01*
X205337812Y-94854518D01*
X205301502Y-94734820D01*
X205242537Y-94624506D01*
X205163185Y-94527815D01*
X205066494Y-94448463D01*
X204956180Y-94389498D01*
X204836482Y-94353188D01*
X204712000Y-94340928D01*
X204247750Y-94344000D01*
X204089000Y-94502750D01*
X203835000Y-94502750D01*
X203676250Y-94344000D01*
X203212000Y-94340928D01*
X203087518Y-94353188D01*
X202967820Y-94389498D01*
X202857506Y-94448463D01*
X202760815Y-94527815D01*
X202681463Y-94624506D01*
X202622498Y-94734820D01*
X202586188Y-94854518D01*
X202573928Y-94979000D01*
X194183000Y-94979000D01*
X194183000Y-93878000D01*
X208128824Y-93878000D01*
X208080038Y-93918038D01*
%TA.AperFunction,Conductor*%
D28*
G36*
X208080038Y-93918038D02*
G01*
X207969595Y-94052613D01*
X207887528Y-94206149D01*
X207836992Y-94372745D01*
X207819928Y-94545999D01*
X207819928Y-95446001D01*
X207834505Y-95594001D01*
X204157834Y-95594001D01*
X204106999Y-95588994D01*
X204056164Y-95594001D01*
X204056161Y-95594001D01*
X203904104Y-95608977D01*
X203887546Y-95614000D01*
X203680021Y-95614000D01*
X203509600Y-95630785D01*
X203508891Y-95631000D01*
X202735750Y-95631000D01*
X202577000Y-95789750D01*
X202573928Y-96029000D01*
X202586188Y-96153482D01*
X202622498Y-96273180D01*
X202657093Y-96337902D01*
X202593785Y-96546600D01*
X202571388Y-96774000D01*
X202593785Y-97001400D01*
X202660115Y-97220060D01*
X202761105Y-97409000D01*
X202660115Y-97597940D01*
X202593785Y-97816600D01*
X202571388Y-98044000D01*
X202593785Y-98271400D01*
X202660115Y-98490060D01*
X202767829Y-98691579D01*
X202912788Y-98868212D01*
X203089421Y-99013171D01*
X203290940Y-99120885D01*
X203509600Y-99187215D01*
X203680021Y-99204000D01*
X204243979Y-99204000D01*
X204414400Y-99187215D01*
X204633060Y-99120885D01*
X204834579Y-99013171D01*
X205011212Y-98868212D01*
X205156171Y-98691579D01*
X205263885Y-98490060D01*
X205330215Y-98271400D01*
X205352612Y-98044000D01*
X205330215Y-97816600D01*
X205283924Y-97664001D01*
X207840858Y-97664001D01*
X207887528Y-97817851D01*
X207969595Y-97971387D01*
X208080038Y-98105962D01*
X208214613Y-98216405D01*
X208368149Y-98298472D01*
X208534745Y-98349008D01*
X208707999Y-98366072D01*
X209408001Y-98366072D01*
X209581255Y-98349008D01*
X209747851Y-98298472D01*
X209901387Y-98216405D01*
X210035962Y-98105962D01*
X210146405Y-97971387D01*
X210228472Y-97817851D01*
X210279008Y-97651255D01*
X210296072Y-97478001D01*
X210296072Y-96577999D01*
X210279008Y-96404745D01*
X210228472Y-96238149D01*
X210188126Y-96162668D01*
X210214613Y-96184405D01*
X210368149Y-96266472D01*
X210534745Y-96317008D01*
X210707999Y-96334072D01*
X210932362Y-96334072D01*
X215654206Y-101055917D01*
X215686614Y-101095406D01*
X215726102Y-101127813D01*
X215844212Y-101224744D01*
X215903684Y-101256532D01*
X216024017Y-101320851D01*
X216219115Y-101380034D01*
X216371172Y-101395010D01*
X216371175Y-101395010D01*
X216422010Y-101400017D01*
X216472845Y-101395010D01*
X219311300Y-101395010D01*
X221021018Y-103104729D01*
X219909241Y-103104729D01*
X219784759Y-103116989D01*
X219665061Y-103153299D01*
X219554747Y-103212264D01*
X219458056Y-103291616D01*
X219426641Y-103329895D01*
X219395226Y-103291616D01*
X219298535Y-103212264D01*
X219188221Y-103153299D01*
X219068523Y-103116989D01*
X218944041Y-103104729D01*
X217369241Y-103104729D01*
X217244759Y-103116989D01*
X217125061Y-103153299D01*
X217014747Y-103212264D01*
X216918056Y-103291616D01*
X216886641Y-103329895D01*
X216855226Y-103291616D01*
X216758535Y-103212264D01*
X216648221Y-103153299D01*
X216528523Y-103116989D01*
X216404041Y-103104729D01*
X214829241Y-103104729D01*
X214704759Y-103116989D01*
X214585061Y-103153299D01*
X214474747Y-103212264D01*
X214378056Y-103291616D01*
X214346641Y-103329895D01*
X214315226Y-103291616D01*
X214218535Y-103212264D01*
X214108221Y-103153299D01*
X213988523Y-103116989D01*
X213864041Y-103104729D01*
X212289241Y-103104729D01*
X212164759Y-103116989D01*
X212045061Y-103153299D01*
X211934747Y-103212264D01*
X211838056Y-103291616D01*
X211806641Y-103329895D01*
X211775226Y-103291616D01*
X211678535Y-103212264D01*
X211568221Y-103153299D01*
X211448523Y-103116989D01*
X211324041Y-103104729D01*
X209749241Y-103104729D01*
X209624759Y-103116989D01*
X209505061Y-103153299D01*
X209394747Y-103212264D01*
X209298056Y-103291616D01*
X209218704Y-103388307D01*
X209159739Y-103498621D01*
X209123429Y-103618319D01*
X209111169Y-103742801D01*
X209111169Y-105317601D01*
X209123429Y-105442083D01*
X209159739Y-105561781D01*
X209218704Y-105672095D01*
X209298056Y-105768786D01*
X209336335Y-105800201D01*
X209298056Y-105831616D01*
X209218704Y-105928307D01*
X209159739Y-106038621D01*
X209123429Y-106158319D01*
X209111169Y-106282801D01*
X209111169Y-107857601D01*
X209123429Y-107982083D01*
X209159739Y-108101781D01*
X209218704Y-108212095D01*
X209298056Y-108308786D01*
X209394747Y-108388138D01*
X209505061Y-108447103D01*
X209624759Y-108483413D01*
X209749241Y-108495673D01*
X211324041Y-108495673D01*
X211448523Y-108483413D01*
X211568221Y-108447103D01*
X211678535Y-108388138D01*
X211775226Y-108308786D01*
X211806641Y-108270507D01*
X211838056Y-108308786D01*
X211934747Y-108388138D01*
X212045061Y-108447103D01*
X212164759Y-108483413D01*
X212289241Y-108495673D01*
X213864041Y-108495673D01*
X213988523Y-108483413D01*
X214108221Y-108447103D01*
X214218535Y-108388138D01*
X214315226Y-108308786D01*
X214346641Y-108270507D01*
X214378056Y-108308786D01*
X214474747Y-108388138D01*
X214585061Y-108447103D01*
X214704759Y-108483413D01*
X214829241Y-108495673D01*
X216404041Y-108495673D01*
X216528523Y-108483413D01*
X216648221Y-108447103D01*
X216758535Y-108388138D01*
X216855226Y-108308786D01*
X216886641Y-108270507D01*
X216918056Y-108308786D01*
X217014747Y-108388138D01*
X217125061Y-108447103D01*
X217244759Y-108483413D01*
X217369241Y-108495673D01*
X218944041Y-108495673D01*
X219068523Y-108483413D01*
X219188221Y-108447103D01*
X219298535Y-108388138D01*
X219395226Y-108308786D01*
X219426641Y-108270507D01*
X219458056Y-108308786D01*
X219554747Y-108388138D01*
X219665061Y-108447103D01*
X219784759Y-108483413D01*
X219909241Y-108495673D01*
X221484041Y-108495673D01*
X221608523Y-108483413D01*
X221728221Y-108447103D01*
X221838535Y-108388138D01*
X221935226Y-108308786D01*
X221966641Y-108270507D01*
X221998056Y-108308786D01*
X222094747Y-108388138D01*
X222205061Y-108447103D01*
X222324759Y-108483413D01*
X222449241Y-108495673D01*
X223410535Y-108495673D01*
X224729910Y-109815049D01*
X224757623Y-109848817D01*
X224791391Y-109876530D01*
X224791393Y-109876532D01*
X224827027Y-109905776D01*
X224892381Y-109959411D01*
X225046127Y-110041589D01*
X225212950Y-110092195D01*
X225342963Y-110105000D01*
X225342971Y-110105000D01*
X225386440Y-110109281D01*
X225429909Y-110105000D01*
X235978140Y-110105000D01*
X236021609Y-110109281D01*
X236065078Y-110105000D01*
X236065086Y-110105000D01*
X236073729Y-110104149D01*
X236073729Y-111677761D01*
X236085989Y-111802243D01*
X236122299Y-111921941D01*
X236181264Y-112032255D01*
X236260616Y-112128946D01*
X236298895Y-112160361D01*
X236260616Y-112191776D01*
X236181264Y-112288467D01*
X236122299Y-112398781D01*
X236085989Y-112518479D01*
X236073729Y-112642961D01*
X236073729Y-114217761D01*
X236085989Y-114342243D01*
X236122299Y-114461941D01*
X236181264Y-114572255D01*
X236260616Y-114668946D01*
X236298895Y-114700361D01*
X236260616Y-114731776D01*
X236181264Y-114828467D01*
X236122299Y-114938781D01*
X236085989Y-115058479D01*
X236073729Y-115182961D01*
X236073729Y-116757761D01*
X236085989Y-116882243D01*
X236122299Y-117001941D01*
X236181264Y-117112255D01*
X236260616Y-117208946D01*
X236298895Y-117240361D01*
X236260616Y-117271776D01*
X236181264Y-117368467D01*
X236122299Y-117478781D01*
X236085989Y-117598479D01*
X236073729Y-117722961D01*
X236073729Y-119297761D01*
X236085989Y-119422243D01*
X236122299Y-119541941D01*
X236181264Y-119652255D01*
X236260616Y-119748946D01*
X236298895Y-119780361D01*
X236260616Y-119811776D01*
X236181264Y-119908467D01*
X236122299Y-120018781D01*
X236085989Y-120138479D01*
X236073729Y-120262961D01*
X236073729Y-121837761D01*
X236085989Y-121962243D01*
X236122299Y-122081941D01*
X236181264Y-122192255D01*
X236260616Y-122288946D01*
X236298895Y-122320361D01*
X236260616Y-122351776D01*
X236181264Y-122448467D01*
X236122299Y-122558781D01*
X236085989Y-122678479D01*
X236073729Y-122802961D01*
X236073729Y-124377761D01*
X236085989Y-124502243D01*
X236122299Y-124621941D01*
X236181264Y-124732255D01*
X236260616Y-124828946D01*
X236298895Y-124860361D01*
X236260616Y-124891776D01*
X236181264Y-124988467D01*
X236122299Y-125098781D01*
X236085989Y-125218479D01*
X236073729Y-125342961D01*
X236076801Y-125844611D01*
X236235551Y-126003361D01*
X237372201Y-126003361D01*
X237372201Y-125983361D01*
X237626201Y-125983361D01*
X237626201Y-126003361D01*
X238762851Y-126003361D01*
X238769201Y-125997011D01*
X238775551Y-126003361D01*
X239912201Y-126003361D01*
X239912201Y-125983361D01*
X240166201Y-125983361D01*
X240166201Y-126003361D01*
X241302851Y-126003361D01*
X241461601Y-125844611D01*
X241464673Y-125342961D01*
X241452413Y-125218479D01*
X241416103Y-125098781D01*
X241357138Y-124988467D01*
X241277786Y-124891776D01*
X241239507Y-124860361D01*
X241277786Y-124828946D01*
X241357138Y-124732255D01*
X241416103Y-124621941D01*
X241452413Y-124502243D01*
X241464673Y-124377761D01*
X241464673Y-122802961D01*
X241452413Y-122678479D01*
X241416103Y-122558781D01*
X241357138Y-122448467D01*
X241277786Y-122351776D01*
X241239507Y-122320361D01*
X241277786Y-122288946D01*
X241357138Y-122192255D01*
X241416103Y-122081941D01*
X241452413Y-121962243D01*
X241464673Y-121837761D01*
X241464673Y-120262961D01*
X241452413Y-120138479D01*
X241416103Y-120018781D01*
X241357138Y-119908467D01*
X241277786Y-119811776D01*
X241239507Y-119780361D01*
X241277786Y-119748946D01*
X241357138Y-119652255D01*
X241416103Y-119541941D01*
X241452413Y-119422243D01*
X241464673Y-119297761D01*
X241464673Y-117722961D01*
X241452413Y-117598479D01*
X241416103Y-117478781D01*
X241357138Y-117368467D01*
X241277786Y-117271776D01*
X241239507Y-117240361D01*
X241277786Y-117208946D01*
X241357138Y-117112255D01*
X241416103Y-117001941D01*
X241452413Y-116882243D01*
X241464673Y-116757761D01*
X241464673Y-115182961D01*
X241452413Y-115058479D01*
X241416103Y-114938781D01*
X241357138Y-114828467D01*
X241277786Y-114731776D01*
X241239507Y-114700361D01*
X241277786Y-114668946D01*
X241357138Y-114572255D01*
X241416103Y-114461941D01*
X241452413Y-114342243D01*
X241464673Y-114217761D01*
X241464673Y-112642961D01*
X241452413Y-112518479D01*
X241416103Y-112398781D01*
X241357138Y-112288467D01*
X241277786Y-112191776D01*
X241239507Y-112160361D01*
X241277786Y-112128946D01*
X241357138Y-112032255D01*
X241416103Y-111921941D01*
X241452413Y-111802243D01*
X241464673Y-111677761D01*
X241464673Y-110102961D01*
X241452413Y-109978479D01*
X241416103Y-109858781D01*
X241357138Y-109748467D01*
X241277786Y-109651776D01*
X241181095Y-109572424D01*
X241070781Y-109513459D01*
X240951083Y-109477149D01*
X240826601Y-109464889D01*
X239251801Y-109464889D01*
X239127319Y-109477149D01*
X239007621Y-109513459D01*
X238897307Y-109572424D01*
X238800616Y-109651776D01*
X238769201Y-109690055D01*
X238737786Y-109651776D01*
X238641095Y-109572424D01*
X238530781Y-109513459D01*
X238411083Y-109477149D01*
X238286601Y-109464889D01*
X237028298Y-109464889D01*
X237831049Y-108662139D01*
X237864817Y-108634426D01*
X237975411Y-108499668D01*
X238057589Y-108345922D01*
X238108195Y-108179099D01*
X238121000Y-108049086D01*
X238121000Y-108049076D01*
X238125281Y-108005610D01*
X238121000Y-107962144D01*
X238121000Y-99373469D01*
X238125281Y-99330000D01*
X238121000Y-99286531D01*
X238121000Y-99286523D01*
X238108195Y-99156510D01*
X238063497Y-99009162D01*
X238057589Y-98989686D01*
X237975411Y-98835941D01*
X237892532Y-98734953D01*
X237892530Y-98734951D01*
X237864817Y-98701183D01*
X237831050Y-98673472D01*
X234140072Y-94982494D01*
X234140072Y-94545999D01*
X234123008Y-94372745D01*
X234072472Y-94206149D01*
X233990405Y-94052613D01*
X233879962Y-93918038D01*
X233831176Y-93878000D01*
X248514000Y-93878000D01*
X248514001Y-145390000D01*
X219028556Y-145390000D01*
X219209502Y-145241502D01*
X219363833Y-145053449D01*
X219478511Y-144838901D01*
X219549130Y-144606102D01*
X219567000Y-144424665D01*
X219567000Y-143103335D01*
X219549130Y-142921898D01*
X219478511Y-142689099D01*
X219363833Y-142474551D01*
X219209502Y-142286498D01*
X219021449Y-142132167D01*
X218806901Y-142017489D01*
X218574102Y-141946870D01*
X218332000Y-141923025D01*
X218089899Y-141946870D01*
X217857100Y-142017489D01*
X217642552Y-142132167D01*
X217454499Y-142286498D01*
X217300168Y-142474551D01*
X217185489Y-142689099D01*
X217114870Y-142921898D01*
X217097000Y-143103335D01*
X217097000Y-144424664D01*
X217114870Y-144606101D01*
X217185489Y-144838900D01*
X217300167Y-145053448D01*
X217454498Y-145241502D01*
X217635443Y-145390000D01*
X205528556Y-145390000D01*
X205709502Y-145241502D01*
X205863833Y-145053449D01*
X205978511Y-144838901D01*
X206049130Y-144606102D01*
X206067000Y-144424665D01*
X206067000Y-143103335D01*
X206049130Y-142921898D01*
X205978511Y-142689099D01*
X205863833Y-142474551D01*
X205851071Y-142459000D01*
X210137335Y-142459000D01*
X210198000Y-142464975D01*
X210258665Y-142459000D01*
X210440102Y-142441130D01*
X210672901Y-142370511D01*
X210887449Y-142255833D01*
X211075502Y-142101502D01*
X211114178Y-142054375D01*
X211841662Y-141326891D01*
X233000519Y-141326891D01*
X233097843Y-141601252D01*
X233246822Y-141851355D01*
X233441731Y-142067588D01*
X233675080Y-142241641D01*
X233937901Y-142366825D01*
X234085110Y-142411476D01*
X234315000Y-142290155D01*
X234315000Y-141097000D01*
X234569000Y-141097000D01*
X234569000Y-142290155D01*
X234798890Y-142411476D01*
X234946099Y-142366825D01*
X235208920Y-142241641D01*
X235442269Y-142067588D01*
X235637178Y-141851355D01*
X235712000Y-141725745D01*
X235786822Y-141851355D01*
X235981731Y-142067588D01*
X236215080Y-142241641D01*
X236477901Y-142366825D01*
X236625110Y-142411476D01*
X236855000Y-142290155D01*
X236855000Y-141097000D01*
X234569000Y-141097000D01*
X234315000Y-141097000D01*
X233121186Y-141097000D01*
X233000519Y-141326891D01*
X211841662Y-141326891D01*
X212555444Y-140613109D01*
X233000519Y-140613109D01*
X233121186Y-140843000D01*
X234315000Y-140843000D01*
X234315000Y-139649845D01*
X234085110Y-139528524D01*
X233937901Y-139573175D01*
X233675080Y-139698359D01*
X233441731Y-139872412D01*
X233246822Y-140088645D01*
X233097843Y-140338748D01*
X233000519Y-140613109D01*
X212555444Y-140613109D01*
X212999816Y-140168738D01*
X213079820Y-140211502D01*
X213199518Y-140247812D01*
X213324000Y-140260072D01*
X217040000Y-140260072D01*
X217164482Y-140247812D01*
X217284180Y-140211502D01*
X217394494Y-140152537D01*
X217491185Y-140073185D01*
X217570537Y-139976494D01*
X217629502Y-139866180D01*
X217665812Y-139746482D01*
X217678072Y-139622000D01*
X217678072Y-135906000D01*
X217665812Y-135781518D01*
X217629502Y-135661820D01*
X217596993Y-135601000D01*
X230798173Y-135601000D01*
X230860113Y-135651833D01*
X231074661Y-135766511D01*
X231191060Y-135801820D01*
X231307459Y-135837130D01*
X231549561Y-135860975D01*
X231610226Y-135855000D01*
X232914447Y-135855000D01*
X236596614Y-139537167D01*
X236477901Y-139573175D01*
X236215080Y-139698359D01*
X235981731Y-139872412D01*
X235786822Y-140088645D01*
X235712000Y-140214255D01*
X235637178Y-140088645D01*
X235442269Y-139872412D01*
X235208920Y-139698359D01*
X234946099Y-139573175D01*
X234798890Y-139528524D01*
X234569000Y-139649845D01*
X234569000Y-140843000D01*
X236855000Y-140843000D01*
X236855000Y-140823000D01*
X237109000Y-140823000D01*
X237109000Y-140843000D01*
X237129000Y-140843000D01*
X237129000Y-141097000D01*
X237109000Y-141097000D01*
X237109000Y-142290155D01*
X237338890Y-142411476D01*
X237486099Y-142366825D01*
X237748920Y-142241641D01*
X237982269Y-142067588D01*
X238177178Y-141851355D01*
X238246805Y-141734466D01*
X238368525Y-141916632D01*
X238575368Y-142123475D01*
X238818589Y-142285990D01*
X239088842Y-142397932D01*
X239375740Y-142455000D01*
X239668260Y-142455000D01*
X239955158Y-142397932D01*
X240225411Y-142285990D01*
X240468632Y-142123475D01*
X240587107Y-142005000D01*
X240604546Y-142005000D01*
X240622498Y-142064180D01*
X240681463Y-142174494D01*
X240760815Y-142271185D01*
X240857506Y-142350537D01*
X240967820Y-142409502D01*
X241087518Y-142445812D01*
X241212000Y-142458072D01*
X242912000Y-142458072D01*
X243036482Y-142445812D01*
X243156180Y-142409502D01*
X243266494Y-142350537D01*
X243363185Y-142271185D01*
X243442537Y-142174494D01*
X243501502Y-142064180D01*
X243537812Y-141944482D01*
X243550072Y-141820000D01*
X243550072Y-140120000D01*
X243537812Y-139995518D01*
X243501502Y-139875820D01*
X243442537Y-139765506D01*
X243363185Y-139668815D01*
X243266494Y-139589463D01*
X243156180Y-139530498D01*
X243036482Y-139494188D01*
X242912000Y-139481928D01*
X241212000Y-139481928D01*
X241087518Y-139494188D01*
X240967820Y-139530498D01*
X240857506Y-139589463D01*
X240760815Y-139668815D01*
X240681463Y-139765506D01*
X240622498Y-139875820D01*
X240604546Y-139935000D01*
X240587107Y-139935000D01*
X240468632Y-139816525D01*
X240225411Y-139654010D01*
X240193237Y-139640683D01*
X235866945Y-135314391D01*
X243947119Y-135314391D01*
X243947119Y-138414411D01*
X243959379Y-138538893D01*
X243995689Y-138658591D01*
X244054654Y-138768905D01*
X244134006Y-138865596D01*
X244230697Y-138944948D01*
X244341011Y-139003913D01*
X244460709Y-139040223D01*
X244585191Y-139052483D01*
X247685211Y-139052483D01*
X247809693Y-139040223D01*
X247929391Y-139003913D01*
X248039705Y-138944948D01*
X248136396Y-138865596D01*
X248215748Y-138768905D01*
X248274713Y-138658591D01*
X248311023Y-138538893D01*
X248323283Y-138414411D01*
X248323283Y-135314391D01*
X248311023Y-135189909D01*
X248274713Y-135070211D01*
X248215748Y-134959897D01*
X248136396Y-134863206D01*
X248039705Y-134783854D01*
X247929391Y-134724889D01*
X247809693Y-134688579D01*
X247685211Y-134676319D01*
X244585191Y-134676319D01*
X244460709Y-134688579D01*
X244341011Y-134724889D01*
X244230697Y-134783854D01*
X244134006Y-134863206D01*
X244054654Y-134959897D01*
X243995689Y-135070211D01*
X243959379Y-135189909D01*
X243947119Y-135314391D01*
X235866945Y-135314391D01*
X234342179Y-133789625D01*
X234303502Y-133742498D01*
X234115449Y-133588167D01*
X233900901Y-133473489D01*
X233807421Y-133445132D01*
X236073729Y-131178825D01*
X236073729Y-131997761D01*
X236085989Y-132122243D01*
X236122299Y-132241941D01*
X236181264Y-132352255D01*
X236260616Y-132448946D01*
X236357307Y-132528298D01*
X236467621Y-132587263D01*
X236587319Y-132623573D01*
X236711801Y-132635833D01*
X238286601Y-132635833D01*
X238411083Y-132623573D01*
X238530781Y-132587263D01*
X238641095Y-132528298D01*
X238737786Y-132448946D01*
X238769201Y-132410667D01*
X238800616Y-132448946D01*
X238897307Y-132528298D01*
X239007621Y-132587263D01*
X239127319Y-132623573D01*
X239251801Y-132635833D01*
X240826601Y-132635833D01*
X240951083Y-132623573D01*
X241070781Y-132587263D01*
X241181095Y-132528298D01*
X241277786Y-132448946D01*
X241357138Y-132352255D01*
X241416103Y-132241941D01*
X241452413Y-132122243D01*
X241464673Y-131997761D01*
X241464673Y-130422961D01*
X241452413Y-130298479D01*
X241416103Y-130178781D01*
X241357138Y-130068467D01*
X241277786Y-129971776D01*
X241239507Y-129940361D01*
X241277786Y-129908946D01*
X241357138Y-129812255D01*
X241416103Y-129701941D01*
X241452413Y-129582243D01*
X241464673Y-129457761D01*
X241464673Y-127882961D01*
X241452413Y-127758479D01*
X241416103Y-127638781D01*
X241357138Y-127528467D01*
X241277786Y-127431776D01*
X241239507Y-127400361D01*
X241277786Y-127368946D01*
X241357138Y-127272255D01*
X241416103Y-127161941D01*
X241452413Y-127042243D01*
X241464673Y-126917761D01*
X241461601Y-126416111D01*
X241302851Y-126257361D01*
X240166201Y-126257361D01*
X240166201Y-126277361D01*
X239912201Y-126277361D01*
X239912201Y-126257361D01*
X238775551Y-126257361D01*
X238769201Y-126263711D01*
X238762851Y-126257361D01*
X237626201Y-126257361D01*
X237626201Y-126277361D01*
X237372201Y-126277361D01*
X237372201Y-126257361D01*
X236235551Y-126257361D01*
X236076801Y-126416111D01*
X236073729Y-126917761D01*
X236085989Y-127042243D01*
X236122299Y-127161941D01*
X236181264Y-127272255D01*
X236260616Y-127368946D01*
X236298895Y-127400361D01*
X236260616Y-127431776D01*
X236181264Y-127528467D01*
X236122299Y-127638781D01*
X236114482Y-127664550D01*
X235958137Y-127792859D01*
X235919465Y-127839981D01*
X230719183Y-133040264D01*
X230672061Y-133078936D01*
X230629333Y-133131000D01*
X206816665Y-133131000D01*
X206756000Y-133125025D01*
X206695335Y-133131000D01*
X206513898Y-133148870D01*
X206281099Y-133219489D01*
X206066551Y-133334167D01*
X205878498Y-133488498D01*
X205839826Y-133535620D01*
X202603283Y-136772164D01*
X202603283Y-135314391D01*
X202591023Y-135189909D01*
X202554713Y-135070211D01*
X202495748Y-134959897D01*
X202416396Y-134863206D01*
X202319705Y-134783854D01*
X202209391Y-134724889D01*
X202089693Y-134688579D01*
X201965211Y-134676319D01*
X198865191Y-134676319D01*
X198740709Y-134688579D01*
X198621011Y-134724889D01*
X198510697Y-134783854D01*
X198414006Y-134863206D01*
X198334654Y-134959897D01*
X198275689Y-135070211D01*
X198239379Y-135189909D01*
X198227119Y-135314391D01*
X198227119Y-138211000D01*
X197485000Y-138211000D01*
X197485000Y-113018000D01*
X201825928Y-113018000D01*
X201825928Y-115118000D01*
X201838188Y-115242482D01*
X201874498Y-115362180D01*
X201933463Y-115472494D01*
X202012815Y-115569185D01*
X202109506Y-115648537D01*
X202219820Y-115707502D01*
X202315001Y-115736375D01*
X202315000Y-118078118D01*
X202311186Y-118085254D01*
X202282795Y-118127744D01*
X202263238Y-118174958D01*
X202239159Y-118220007D01*
X202224331Y-118268887D01*
X202204774Y-118316102D01*
X202194804Y-118366223D01*
X202179976Y-118415105D01*
X202174969Y-118465943D01*
X202165000Y-118516061D01*
X202165000Y-118567162D01*
X202159993Y-118618000D01*
X202165000Y-118668838D01*
X202165000Y-118719939D01*
X202174969Y-118770057D01*
X202179976Y-118820895D01*
X202194804Y-118869777D01*
X202204774Y-118919898D01*
X202224331Y-118967113D01*
X202239159Y-119015993D01*
X202263238Y-119061042D01*
X202282795Y-119108256D01*
X202311186Y-119150746D01*
X202315000Y-119157882D01*
X202315001Y-121499625D01*
X202219820Y-121528498D01*
X202109506Y-121587463D01*
X202012815Y-121666815D01*
X201933463Y-121763506D01*
X201874498Y-121873820D01*
X201838188Y-121993518D01*
X201825928Y-122118000D01*
X201825928Y-124218000D01*
X201838188Y-124342482D01*
X201874498Y-124462180D01*
X201933463Y-124572494D01*
X202012815Y-124669185D01*
X202109506Y-124748537D01*
X202219820Y-124807502D01*
X202339518Y-124843812D01*
X202464000Y-124856072D01*
X203858272Y-124856072D01*
X203864299Y-124875941D01*
X203923264Y-124986255D01*
X204002616Y-125082946D01*
X204040895Y-125114361D01*
X204002616Y-125145776D01*
X203923264Y-125242467D01*
X203864299Y-125352781D01*
X203827989Y-125472479D01*
X203815729Y-125596961D01*
X203815729Y-127171761D01*
X203827989Y-127296243D01*
X203864299Y-127415941D01*
X203923264Y-127526255D01*
X204002616Y-127622946D01*
X204040895Y-127654361D01*
X204002616Y-127685776D01*
X203923264Y-127782467D01*
X203864299Y-127892781D01*
X203827989Y-128012479D01*
X203815729Y-128136961D01*
X203815729Y-129711761D01*
X203827989Y-129836243D01*
X203864299Y-129955941D01*
X203923264Y-130066255D01*
X204002616Y-130162946D01*
X204040895Y-130194361D01*
X204002616Y-130225776D01*
X203923264Y-130322467D01*
X203864299Y-130432781D01*
X203827989Y-130552479D01*
X203815729Y-130676961D01*
X203815729Y-132251761D01*
X203827989Y-132376243D01*
X203864299Y-132495941D01*
X203923264Y-132606255D01*
X204002616Y-132702946D01*
X204099307Y-132782298D01*
X204209621Y-132841263D01*
X204329319Y-132877573D01*
X204453801Y-132889833D01*
X206028601Y-132889833D01*
X206153083Y-132877573D01*
X206272781Y-132841263D01*
X206383095Y-132782298D01*
X206479786Y-132702946D01*
X206511201Y-132664667D01*
X206542616Y-132702946D01*
X206639307Y-132782298D01*
X206749621Y-132841263D01*
X206869319Y-132877573D01*
X206993801Y-132889833D01*
X208568601Y-132889833D01*
X208693083Y-132877573D01*
X208812781Y-132841263D01*
X208923095Y-132782298D01*
X209019786Y-132702946D01*
X209099138Y-132606255D01*
X209158103Y-132495941D01*
X209194413Y-132376243D01*
X209206673Y-132251761D01*
X209206673Y-130676961D01*
X209194413Y-130552479D01*
X209158103Y-130432781D01*
X209099138Y-130322467D01*
X209019786Y-130225776D01*
X208981507Y-130194361D01*
X209019786Y-130162946D01*
X209099138Y-130066255D01*
X209158103Y-129955941D01*
X209194413Y-129836243D01*
X209206673Y-129711761D01*
X209206673Y-128136961D01*
X209194413Y-128012479D01*
X209158103Y-127892781D01*
X209099138Y-127782467D01*
X209019786Y-127685776D01*
X208981507Y-127654361D01*
X209019786Y-127622946D01*
X209099138Y-127526255D01*
X209158103Y-127415941D01*
X209194413Y-127296243D01*
X209206673Y-127171761D01*
X209206673Y-125596961D01*
X209194413Y-125472479D01*
X209158103Y-125352781D01*
X209099138Y-125242467D01*
X209019786Y-125145776D01*
X208981507Y-125114361D01*
X209019786Y-125082946D01*
X209099138Y-124986255D01*
X209158103Y-124875941D01*
X209194413Y-124756243D01*
X209206673Y-124631761D01*
X209206673Y-123056961D01*
X209194413Y-122932479D01*
X209158103Y-122812781D01*
X209099138Y-122702467D01*
X209019786Y-122605776D01*
X208981507Y-122574361D01*
X209019786Y-122542946D01*
X209099138Y-122446255D01*
X209158103Y-122335941D01*
X209194413Y-122216243D01*
X209206673Y-122091761D01*
X209206673Y-120516961D01*
X209194413Y-120392479D01*
X209158103Y-120272781D01*
X209099138Y-120162467D01*
X209019786Y-120065776D01*
X208981507Y-120034361D01*
X209019786Y-120002946D01*
X209099138Y-119906255D01*
X209158103Y-119795941D01*
X209194413Y-119676243D01*
X209196702Y-119653000D01*
X210189000Y-119653000D01*
X210189001Y-121695833D01*
X210133463Y-121763506D01*
X210074498Y-121873820D01*
X210038188Y-121993518D01*
X210025928Y-122118000D01*
X210025928Y-124218000D01*
X210038188Y-124342482D01*
X210074498Y-124462180D01*
X210133463Y-124572494D01*
X210212815Y-124669185D01*
X210309506Y-124748537D01*
X210419820Y-124807502D01*
X210539518Y-124843812D01*
X210664000Y-124856072D01*
X212064000Y-124856072D01*
X212188482Y-124843812D01*
X212308180Y-124807502D01*
X212418494Y-124748537D01*
X212515185Y-124669185D01*
X212594537Y-124572494D01*
X212653502Y-124462180D01*
X212689812Y-124342482D01*
X212702072Y-124218000D01*
X212702072Y-122118000D01*
X212689812Y-121993518D01*
X212653502Y-121873820D01*
X212594537Y-121763506D01*
X212515185Y-121666815D01*
X212418494Y-121587463D01*
X212308180Y-121528498D01*
X212188482Y-121492188D01*
X212064000Y-121479928D01*
X211959000Y-121479928D01*
X211959000Y-119157882D01*
X211962814Y-119150746D01*
X211991205Y-119108256D01*
X212010762Y-119061042D01*
X212034841Y-119015993D01*
X212049669Y-118967113D01*
X212069226Y-118919898D01*
X212079196Y-118869777D01*
X212094024Y-118820895D01*
X212099031Y-118770057D01*
X212109000Y-118719939D01*
X212109000Y-118668838D01*
X212114007Y-118618000D01*
X212109000Y-118567162D01*
X212109000Y-118516061D01*
X212099031Y-118465943D01*
X212094024Y-118415105D01*
X212079196Y-118366223D01*
X212069226Y-118316102D01*
X212049669Y-118268887D01*
X212034841Y-118220007D01*
X212010762Y-118174958D01*
X211991205Y-118127744D01*
X211962814Y-118085254D01*
X211959000Y-118078118D01*
X211959000Y-115756072D01*
X212064000Y-115756072D01*
X212188482Y-115743812D01*
X212308180Y-115707502D01*
X212418494Y-115648537D01*
X212515185Y-115569185D01*
X212594537Y-115472494D01*
X212653502Y-115362180D01*
X212689812Y-115242482D01*
X212702072Y-115118000D01*
X212702072Y-113018000D01*
X212689812Y-112893518D01*
X212653502Y-112773820D01*
X212594537Y-112663506D01*
X212515185Y-112566815D01*
X212418494Y-112487463D01*
X212308180Y-112428498D01*
X212188482Y-112392188D01*
X212064000Y-112379928D01*
X210664000Y-112379928D01*
X210539518Y-112392188D01*
X210419820Y-112428498D01*
X210309506Y-112487463D01*
X210212815Y-112566815D01*
X210133463Y-112663506D01*
X210074498Y-112773820D01*
X210038188Y-112893518D01*
X210025928Y-113018000D01*
X210025928Y-115118000D01*
X210038188Y-115242482D01*
X210074498Y-115362180D01*
X210133463Y-115472494D01*
X210189001Y-115540167D01*
X210189000Y-117583000D01*
X209066748Y-117583000D01*
X209019786Y-117525776D01*
X208981507Y-117494361D01*
X209019786Y-117462946D01*
X209099138Y-117366255D01*
X209158103Y-117255941D01*
X209194413Y-117136243D01*
X209206673Y-117011761D01*
X209206673Y-115436961D01*
X209194413Y-115312479D01*
X209158103Y-115192781D01*
X209099138Y-115082467D01*
X209019786Y-114985776D01*
X208981507Y-114954361D01*
X209019786Y-114922946D01*
X209099138Y-114826255D01*
X209158103Y-114715941D01*
X209194413Y-114596243D01*
X209206673Y-114471761D01*
X209206673Y-112896961D01*
X209194413Y-112772479D01*
X209158103Y-112652781D01*
X209099138Y-112542467D01*
X209019786Y-112445776D01*
X208981507Y-112414361D01*
X209019786Y-112382946D01*
X209099138Y-112286255D01*
X209158103Y-112175941D01*
X209194413Y-112056243D01*
X209206673Y-111931761D01*
X209206673Y-110356961D01*
X209194413Y-110232479D01*
X209158103Y-110112781D01*
X209099138Y-110002467D01*
X209019786Y-109905776D01*
X208923095Y-109826424D01*
X208812781Y-109767459D01*
X208693083Y-109731149D01*
X208568601Y-109718889D01*
X206993801Y-109718889D01*
X206869319Y-109731149D01*
X206749621Y-109767459D01*
X206639307Y-109826424D01*
X206542616Y-109905776D01*
X206511201Y-109944055D01*
X206479786Y-109905776D01*
X206383095Y-109826424D01*
X206272781Y-109767459D01*
X206153083Y-109731149D01*
X206028601Y-109718889D01*
X204453801Y-109718889D01*
X204329319Y-109731149D01*
X204209621Y-109767459D01*
X204099307Y-109826424D01*
X204002616Y-109905776D01*
X203923264Y-110002467D01*
X203864299Y-110112781D01*
X203827989Y-110232479D01*
X203815729Y-110356961D01*
X203815729Y-111931761D01*
X203827989Y-112056243D01*
X203864299Y-112175941D01*
X203923264Y-112286255D01*
X204002616Y-112382946D01*
X204028769Y-112404409D01*
X203988482Y-112392188D01*
X203864000Y-112379928D01*
X202464000Y-112379928D01*
X202339518Y-112392188D01*
X202219820Y-112428498D01*
X202109506Y-112487463D01*
X202012815Y-112566815D01*
X201933463Y-112663506D01*
X201874498Y-112773820D01*
X201838188Y-112893518D01*
X201825928Y-113018000D01*
X197485000Y-113018000D01*
X197485000Y-104194311D01*
X198227119Y-104194311D01*
X198227119Y-107294331D01*
X198239379Y-107418813D01*
X198275689Y-107538511D01*
X198334654Y-107648825D01*
X198414006Y-107745516D01*
X198510697Y-107824868D01*
X198621011Y-107883833D01*
X198740709Y-107920143D01*
X198865191Y-107932403D01*
X201965211Y-107932403D01*
X202089693Y-107920143D01*
X202209391Y-107883833D01*
X202319705Y-107824868D01*
X202416396Y-107745516D01*
X202495748Y-107648825D01*
X202554713Y-107538511D01*
X202591023Y-107418813D01*
X202603283Y-107294331D01*
X202603283Y-104194311D01*
X202591023Y-104069829D01*
X202554713Y-103950131D01*
X202495748Y-103839817D01*
X202416396Y-103743126D01*
X202319705Y-103663774D01*
X202209391Y-103604809D01*
X202089693Y-103568499D01*
X201965211Y-103556239D01*
X198865191Y-103556239D01*
X198740709Y-103568499D01*
X198621011Y-103604809D01*
X198510697Y-103663774D01*
X198414006Y-103743126D01*
X198334654Y-103839817D01*
X198275689Y-103950131D01*
X198239379Y-104069829D01*
X198227119Y-104194311D01*
X197485000Y-104194311D01*
X197485000Y-97282000D01*
X197482560Y-97257224D01*
X197475333Y-97233399D01*
X197463597Y-97211443D01*
X197447803Y-97192197D01*
X197428557Y-97176403D01*
X197406601Y-97164667D01*
X197382776Y-97157440D01*
X197358000Y-97155000D01*
X194183000Y-97155000D01*
X194183000Y-94979000D01*
X202573928Y-94979000D01*
X202577000Y-95218250D01*
X202735750Y-95377000D01*
X203835000Y-95377000D01*
X203835000Y-94502750D01*
X204089000Y-94502750D01*
X204089000Y-95377000D01*
X205188250Y-95377000D01*
X205347000Y-95218250D01*
X205350072Y-94979000D01*
X205337812Y-94854518D01*
X205301502Y-94734820D01*
X205242537Y-94624506D01*
X205163185Y-94527815D01*
X205066494Y-94448463D01*
X204956180Y-94389498D01*
X204836482Y-94353188D01*
X204712000Y-94340928D01*
X204247750Y-94344000D01*
X204089000Y-94502750D01*
X203835000Y-94502750D01*
X203676250Y-94344000D01*
X203212000Y-94340928D01*
X203087518Y-94353188D01*
X202967820Y-94389498D01*
X202857506Y-94448463D01*
X202760815Y-94527815D01*
X202681463Y-94624506D01*
X202622498Y-94734820D01*
X202586188Y-94854518D01*
X202573928Y-94979000D01*
X194183000Y-94979000D01*
X194183000Y-93878000D01*
X208128824Y-93878000D01*
X208080038Y-93918038D01*
G37*
%TD.AperFunction*%
D27*
X228956226Y-93938063D02*
X228812063Y-94082226D01*
X228698795Y-94251744D01*
X228658806Y-94348286D01*
X228641185Y-94326815D01*
X228544494Y-94247463D01*
X228434180Y-94188498D01*
X228314482Y-94152188D01*
X228190000Y-94139928D01*
X226190000Y-94139928D01*
X226065518Y-94152188D01*
X225945820Y-94188498D01*
X225835506Y-94247463D01*
X225738815Y-94326815D01*
X225659463Y-94423506D01*
X225600498Y-94533820D01*
X225564188Y-94653518D01*
X225551928Y-94778000D01*
X225551928Y-95878000D01*
X225564188Y-96002482D01*
X225600498Y-96122180D01*
X225630335Y-96178000D01*
X225600498Y-96233820D01*
X225564188Y-96353518D01*
X225551928Y-96478000D01*
X225551928Y-97578000D01*
X225564188Y-97702482D01*
X225600498Y-97822180D01*
X225630335Y-97878000D01*
X225600498Y-97933820D01*
X225564188Y-98053518D01*
X225551928Y-98178000D01*
X225551928Y-99278000D01*
X225564188Y-99402482D01*
X225600498Y-99522180D01*
X225659463Y-99632494D01*
X225738815Y-99729185D01*
X225835506Y-99808537D01*
X225945820Y-99867502D01*
X226065518Y-99903812D01*
X226190000Y-99916072D01*
X227804217Y-99916072D01*
X225080738Y-102639552D01*
X225041245Y-102671963D01*
X224911907Y-102829562D01*
X224815800Y-103009367D01*
X224774882Y-103144253D01*
X224745061Y-103153299D01*
X224634747Y-103212264D01*
X224538056Y-103291616D01*
X224506641Y-103329895D01*
X224475226Y-103291616D01*
X224378535Y-103212264D01*
X224268221Y-103153299D01*
X224148523Y-103116989D01*
X224024041Y-103104729D01*
X223951912Y-103104729D01*
X223932549Y-103088838D01*
X220507817Y-99664107D01*
X220475406Y-99624614D01*
X220317807Y-99495276D01*
X220138003Y-99399169D01*
X219942905Y-99339986D01*
X219790848Y-99325010D01*
X219790838Y-99325010D01*
X219740010Y-99320004D01*
X219689182Y-99325010D01*
X216850721Y-99325010D01*
X212296072Y-94770362D01*
X212296072Y-94545999D01*
X212279008Y-94372745D01*
X212228472Y-94206149D01*
X212146405Y-94052613D01*
X212035962Y-93918038D01*
X211987176Y-93878000D01*
X229046117Y-93878000D01*
X228956226Y-93938063D01*
%TA.AperFunction,Conductor*%
D28*
G36*
X228956226Y-93938063D02*
G01*
X228812063Y-94082226D01*
X228698795Y-94251744D01*
X228658806Y-94348286D01*
X228641185Y-94326815D01*
X228544494Y-94247463D01*
X228434180Y-94188498D01*
X228314482Y-94152188D01*
X228190000Y-94139928D01*
X226190000Y-94139928D01*
X226065518Y-94152188D01*
X225945820Y-94188498D01*
X225835506Y-94247463D01*
X225738815Y-94326815D01*
X225659463Y-94423506D01*
X225600498Y-94533820D01*
X225564188Y-94653518D01*
X225551928Y-94778000D01*
X225551928Y-95878000D01*
X225564188Y-96002482D01*
X225600498Y-96122180D01*
X225630335Y-96178000D01*
X225600498Y-96233820D01*
X225564188Y-96353518D01*
X225551928Y-96478000D01*
X225551928Y-97578000D01*
X225564188Y-97702482D01*
X225600498Y-97822180D01*
X225630335Y-97878000D01*
X225600498Y-97933820D01*
X225564188Y-98053518D01*
X225551928Y-98178000D01*
X225551928Y-99278000D01*
X225564188Y-99402482D01*
X225600498Y-99522180D01*
X225659463Y-99632494D01*
X225738815Y-99729185D01*
X225835506Y-99808537D01*
X225945820Y-99867502D01*
X226065518Y-99903812D01*
X226190000Y-99916072D01*
X227804217Y-99916072D01*
X225080738Y-102639552D01*
X225041245Y-102671963D01*
X224911907Y-102829562D01*
X224815800Y-103009367D01*
X224774882Y-103144253D01*
X224745061Y-103153299D01*
X224634747Y-103212264D01*
X224538056Y-103291616D01*
X224506641Y-103329895D01*
X224475226Y-103291616D01*
X224378535Y-103212264D01*
X224268221Y-103153299D01*
X224148523Y-103116989D01*
X224024041Y-103104729D01*
X223951912Y-103104729D01*
X223932549Y-103088838D01*
X220507817Y-99664107D01*
X220475406Y-99624614D01*
X220317807Y-99495276D01*
X220138003Y-99399169D01*
X219942905Y-99339986D01*
X219790848Y-99325010D01*
X219790838Y-99325010D01*
X219740010Y-99320004D01*
X219689182Y-99325010D01*
X216850721Y-99325010D01*
X212296072Y-94770362D01*
X212296072Y-94545999D01*
X212279008Y-94372745D01*
X212228472Y-94206149D01*
X212146405Y-94052613D01*
X212035962Y-93918038D01*
X211987176Y-93878000D01*
X229046117Y-93878000D01*
X228956226Y-93938063D01*
G37*
%TD.AperFunction*%
%TD*%
D29*
X179578000Y-130810000D03*
X179578000Y-101600000D03*
X175260000Y-130810000D03*
X177292000Y-130810000D03*
X197866000Y-93980000D03*
X197866000Y-94996000D03*
X197866000Y-96012000D03*
X198882000Y-93980000D03*
X198882000Y-94996000D03*
X198882000Y-96012000D03*
X213106000Y-100076000D03*
X215392000Y-97028000D03*
X213868000Y-100838000D03*
X216154000Y-97790000D03*
X178816000Y-95504000D03*
X178816000Y-94488000D03*
X178816000Y-96520000D03*
X178816000Y-97536000D03*
X178816000Y-98552000D03*
X175006000Y-98044000D03*
X175006000Y-99060000D03*
X199950000Y-144272000D03*
X211074000Y-118618000D03*
X203200000Y-118618000D03*
X228854000Y-98298000D03*
X229616000Y-94742000D03*
X203962000Y-95504000D03*
X203962000Y-98044000D03*
X203962000Y-96774000D03*
X215182000Y-137764000D03*
X207982000Y-137764000D03*
D30*
X218332000Y-143764000D03*
X204832000Y-143764000D03*
D29*
X234442000Y-140970000D03*
X236982000Y-140970000D03*
X239522000Y-140970000D03*
X242062000Y-140970000D03*
X233396641Y-104530201D03*
X233396641Y-107070201D03*
X225776641Y-104530201D03*
X218156641Y-107070201D03*
X215616641Y-107070201D03*
X210536641Y-107070201D03*
X210536641Y-104530201D03*
X213076641Y-104530201D03*
X215616641Y-104530201D03*
X228316641Y-104530201D03*
X220696641Y-104530201D03*
X223236641Y-107070201D03*
X225776641Y-107070201D03*
X230856641Y-104530201D03*
X223236641Y-104530201D03*
X213076641Y-107070201D03*
X218156641Y-104530201D03*
X230856641Y-107070201D03*
X220696641Y-107070201D03*
X228316641Y-107070201D03*
X240039201Y-113430361D03*
X240039201Y-121050361D03*
X237499201Y-123590361D03*
X240039201Y-110890361D03*
X237499201Y-118510361D03*
X240039201Y-115970361D03*
X240039201Y-118510361D03*
X237499201Y-110890361D03*
X240039201Y-123590361D03*
X237499201Y-121050361D03*
X237499201Y-115970361D03*
X237499201Y-113430361D03*
X205241201Y-126384361D03*
X207781201Y-126384361D03*
X205241201Y-131464361D03*
X207781201Y-131464361D03*
X205241201Y-128924361D03*
X207781201Y-128924361D03*
X200415201Y-136864401D03*
X246135201Y-136864401D03*
X200415201Y-105744321D03*
X207781201Y-111144361D03*
X205241201Y-111144361D03*
X207781201Y-113684361D03*
X205241201Y-113684361D03*
X207781201Y-116224361D03*
X205241201Y-116224361D03*
X207781201Y-118764361D03*
X205241201Y-118764361D03*
X207781201Y-121304361D03*
X205241201Y-121304361D03*
X207781201Y-123844361D03*
X205241201Y-123844361D03*
X237499201Y-131210361D03*
X240039201Y-131210361D03*
X237499201Y-128670361D03*
X240039201Y-128670361D03*
X237499201Y-126130361D03*
X240039201Y-126130361D03*
M02*
