%TF.GenerationSoftware,KiCad,Pcbnew,(5.1.10)-1*%
%TF.CreationDate,2021-10-24T16:06:26+08:00*%
%TF.ProjectId,M1W,4d31572e-6b69-4636-9164-5f7063625858,rev?*%
%TF.SameCoordinates,Original*%
%TF.FileFunction,Paste,Bot*%
%TF.FilePolarity,Positive*%
%FSLAX46Y46*%
G04 Gerber Fmt 4.6, Leading zero omitted, Abs format (unit mm)*
G04 Created by KiCad (PCBNEW (5.1.10)-1) date 2021-10-24 16:06:26*
%MOMM*%
%LPD*%
G01*
G04 APERTURE LIST*
G04 APERTURE END LIST*
%TO.C,R3*%
G36*
G01*
X180194000Y-104197999D02*
X180194000Y-105098001D01*
G75*
G02*
X179944001Y-105348000I-249999J0D01*
G01*
X179243999Y-105348000D01*
G75*
G02*
X178994000Y-105098001I0J249999D01*
G01*
X178994000Y-104197999D01*
G75*
G02*
X179243999Y-103948000I249999J0D01*
G01*
X179944001Y-103948000D01*
G75*
G02*
X180194000Y-104197999I0J-249999D01*
G01*
G37*
G36*
G01*
X182194000Y-104197999D02*
X182194000Y-105098001D01*
G75*
G02*
X181944001Y-105348000I-249999J0D01*
G01*
X181243999Y-105348000D01*
G75*
G02*
X180994000Y-105098001I0J249999D01*
G01*
X180994000Y-104197999D01*
G75*
G02*
X181243999Y-103948000I249999J0D01*
G01*
X181944001Y-103948000D01*
G75*
G02*
X182194000Y-104197999I0J-249999D01*
G01*
G37*
%TD*%
%TO.C,R2*%
G36*
G01*
X180194000Y-115373999D02*
X180194000Y-116274001D01*
G75*
G02*
X179944001Y-116524000I-249999J0D01*
G01*
X179243999Y-116524000D01*
G75*
G02*
X178994000Y-116274001I0J249999D01*
G01*
X178994000Y-115373999D01*
G75*
G02*
X179243999Y-115124000I249999J0D01*
G01*
X179944001Y-115124000D01*
G75*
G02*
X180194000Y-115373999I0J-249999D01*
G01*
G37*
G36*
G01*
X182194000Y-115373999D02*
X182194000Y-116274001D01*
G75*
G02*
X181944001Y-116524000I-249999J0D01*
G01*
X181243999Y-116524000D01*
G75*
G02*
X180994000Y-116274001I0J249999D01*
G01*
X180994000Y-115373999D01*
G75*
G02*
X181243999Y-115124000I249999J0D01*
G01*
X181944001Y-115124000D01*
G75*
G02*
X182194000Y-115373999I0J-249999D01*
G01*
G37*
%TD*%
%TO.C,R1*%
G36*
G01*
X180194000Y-128327999D02*
X180194000Y-129228001D01*
G75*
G02*
X179944001Y-129478000I-249999J0D01*
G01*
X179243999Y-129478000D01*
G75*
G02*
X178994000Y-129228001I0J249999D01*
G01*
X178994000Y-128327999D01*
G75*
G02*
X179243999Y-128078000I249999J0D01*
G01*
X179944001Y-128078000D01*
G75*
G02*
X180194000Y-128327999I0J-249999D01*
G01*
G37*
G36*
G01*
X182194000Y-128327999D02*
X182194000Y-129228001D01*
G75*
G02*
X181944001Y-129478000I-249999J0D01*
G01*
X181243999Y-129478000D01*
G75*
G02*
X180994000Y-129228001I0J249999D01*
G01*
X180994000Y-128327999D01*
G75*
G02*
X181243999Y-128078000I249999J0D01*
G01*
X181944001Y-128078000D01*
G75*
G02*
X182194000Y-128327999I0J-249999D01*
G01*
G37*
%TD*%
%TO.C,D3*%
G36*
G01*
X184354500Y-103573000D02*
X184354500Y-105723000D01*
G75*
G02*
X184104500Y-105973000I-250000J0D01*
G01*
X183179500Y-105973000D01*
G75*
G02*
X182929500Y-105723000I0J250000D01*
G01*
X182929500Y-103573000D01*
G75*
G02*
X183179500Y-103323000I250000J0D01*
G01*
X184104500Y-103323000D01*
G75*
G02*
X184354500Y-103573000I0J-250000D01*
G01*
G37*
G36*
G01*
X187329500Y-103573000D02*
X187329500Y-105723000D01*
G75*
G02*
X187079500Y-105973000I-250000J0D01*
G01*
X186154500Y-105973000D01*
G75*
G02*
X185904500Y-105723000I0J250000D01*
G01*
X185904500Y-103573000D01*
G75*
G02*
X186154500Y-103323000I250000J0D01*
G01*
X187079500Y-103323000D01*
G75*
G02*
X187329500Y-103573000I0J-250000D01*
G01*
G37*
%TD*%
%TO.C,D2*%
G36*
G01*
X184391000Y-114749000D02*
X184391000Y-116899000D01*
G75*
G02*
X184141000Y-117149000I-250000J0D01*
G01*
X183216000Y-117149000D01*
G75*
G02*
X182966000Y-116899000I0J250000D01*
G01*
X182966000Y-114749000D01*
G75*
G02*
X183216000Y-114499000I250000J0D01*
G01*
X184141000Y-114499000D01*
G75*
G02*
X184391000Y-114749000I0J-250000D01*
G01*
G37*
G36*
G01*
X187366000Y-114749000D02*
X187366000Y-116899000D01*
G75*
G02*
X187116000Y-117149000I-250000J0D01*
G01*
X186191000Y-117149000D01*
G75*
G02*
X185941000Y-116899000I0J250000D01*
G01*
X185941000Y-114749000D01*
G75*
G02*
X186191000Y-114499000I250000J0D01*
G01*
X187116000Y-114499000D01*
G75*
G02*
X187366000Y-114749000I0J-250000D01*
G01*
G37*
%TD*%
%TO.C,D1*%
G36*
G01*
X184391000Y-127703000D02*
X184391000Y-129853000D01*
G75*
G02*
X184141000Y-130103000I-250000J0D01*
G01*
X183216000Y-130103000D01*
G75*
G02*
X182966000Y-129853000I0J250000D01*
G01*
X182966000Y-127703000D01*
G75*
G02*
X183216000Y-127453000I250000J0D01*
G01*
X184141000Y-127453000D01*
G75*
G02*
X184391000Y-127703000I0J-250000D01*
G01*
G37*
G36*
G01*
X187366000Y-127703000D02*
X187366000Y-129853000D01*
G75*
G02*
X187116000Y-130103000I-250000J0D01*
G01*
X186191000Y-130103000D01*
G75*
G02*
X185941000Y-129853000I0J250000D01*
G01*
X185941000Y-127703000D01*
G75*
G02*
X186191000Y-127453000I250000J0D01*
G01*
X187116000Y-127453000D01*
G75*
G02*
X187366000Y-127703000I0J-250000D01*
G01*
G37*
%TD*%
%TO.C,C2*%
G36*
G01*
X212910000Y-118143000D02*
X212910000Y-119093000D01*
G75*
G02*
X212660000Y-119343000I-250000J0D01*
G01*
X211985000Y-119343000D01*
G75*
G02*
X211735000Y-119093000I0J250000D01*
G01*
X211735000Y-118143000D01*
G75*
G02*
X211985000Y-117893000I250000J0D01*
G01*
X212660000Y-117893000D01*
G75*
G02*
X212910000Y-118143000I0J-250000D01*
G01*
G37*
G36*
G01*
X214985000Y-118143000D02*
X214985000Y-119093000D01*
G75*
G02*
X214735000Y-119343000I-250000J0D01*
G01*
X214060000Y-119343000D01*
G75*
G02*
X213810000Y-119093000I0J250000D01*
G01*
X213810000Y-118143000D01*
G75*
G02*
X214060000Y-117893000I250000J0D01*
G01*
X214735000Y-117893000D01*
G75*
G02*
X214985000Y-118143000I0J-250000D01*
G01*
G37*
%TD*%
%TO.C,C1*%
G36*
G01*
X201618000Y-119093000D02*
X201618000Y-118143000D01*
G75*
G02*
X201868000Y-117893000I250000J0D01*
G01*
X202543000Y-117893000D01*
G75*
G02*
X202793000Y-118143000I0J-250000D01*
G01*
X202793000Y-119093000D01*
G75*
G02*
X202543000Y-119343000I-250000J0D01*
G01*
X201868000Y-119343000D01*
G75*
G02*
X201618000Y-119093000I0J250000D01*
G01*
G37*
G36*
G01*
X199543000Y-119093000D02*
X199543000Y-118143000D01*
G75*
G02*
X199793000Y-117893000I250000J0D01*
G01*
X200468000Y-117893000D01*
G75*
G02*
X200718000Y-118143000I0J-250000D01*
G01*
X200718000Y-119093000D01*
G75*
G02*
X200468000Y-119343000I-250000J0D01*
G01*
X199793000Y-119343000D01*
G75*
G02*
X199543000Y-119093000I0J250000D01*
G01*
G37*
%TD*%
%TO.C,FU1*%
G36*
G01*
X176463000Y-100955000D02*
X177613000Y-100955000D01*
G75*
G02*
X177863000Y-101205000I0J-250000D01*
G01*
X177863000Y-102305000D01*
G75*
G02*
X177613000Y-102555000I-250000J0D01*
G01*
X176463000Y-102555000D01*
G75*
G02*
X176213000Y-102305000I0J250000D01*
G01*
X176213000Y-101205000D01*
G75*
G02*
X176463000Y-100955000I250000J0D01*
G01*
G37*
G36*
G01*
X176463000Y-98105000D02*
X177613000Y-98105000D01*
G75*
G02*
X177863000Y-98355000I0J-250000D01*
G01*
X177863000Y-99455000D01*
G75*
G02*
X177613000Y-99705000I-250000J0D01*
G01*
X176463000Y-99705000D01*
G75*
G02*
X176213000Y-99455000I0J250000D01*
G01*
X176213000Y-98355000D01*
G75*
G02*
X176463000Y-98105000I250000J0D01*
G01*
G37*
%TD*%
M02*
