%TF.GenerationSoftware,KiCad,Pcbnew,(5.1.10)-1*%
%TF.CreationDate,2021-10-24T16:06:26+08:00*%
%TF.ProjectId,M1W,4d31572e-6b69-4636-9164-5f7063625858,rev?*%
%TF.SameCoordinates,Original*%
%TF.FileFunction,Copper,L2,Bot*%
%TF.FilePolarity,Positive*%
%FSLAX46Y46*%
G04 Gerber Fmt 4.6, Leading zero omitted, Abs format (unit mm)*
G04 Created by KiCad (PCBNEW (5.1.10)-1) date 2021-10-24 16:06:26*
%MOMM*%
%LPD*%
G01*
G04 APERTURE LIST*
%TA.AperFunction,ComponentPad*%
%ADD10R,1.500000X1.050000*%
%TD*%
%TA.AperFunction,ComponentPad*%
%ADD11O,1.500000X1.050000*%
%TD*%
%TA.AperFunction,ComponentPad*%
%ADD12R,3.716000X3.716000*%
%TD*%
%TA.AperFunction,ComponentPad*%
%ADD13C,3.716000*%
%TD*%
%TA.AperFunction,ComponentPad*%
%ADD14O,1.200000X2.400000*%
%TD*%
%TA.AperFunction,ComponentPad*%
%ADD15O,1.700000X1.700000*%
%TD*%
%TA.AperFunction,ComponentPad*%
%ADD16R,1.700000X1.700000*%
%TD*%
%TA.AperFunction,ComponentPad*%
%ADD17R,1.574800X1.574800*%
%TD*%
%TA.AperFunction,WasherPad*%
%ADD18R,3.100020X3.100020*%
%TD*%
%TA.AperFunction,ViaPad*%
%ADD19C,0.800000*%
%TD*%
%TA.AperFunction,ViaPad*%
%ADD20C,1.200000*%
%TD*%
%TA.AperFunction,Conductor*%
%ADD21C,0.800000*%
%TD*%
%TA.AperFunction,Conductor*%
%ADD22C,1.200000*%
%TD*%
%TA.AperFunction,Conductor*%
%ADD23C,0.500000*%
%TD*%
%TA.AperFunction,Conductor*%
%ADD24C,0.254000*%
%TD*%
%TA.AperFunction,Conductor*%
%ADD25C,0.350000*%
%TD*%
%ADD26C,0.350000*%
%ADD27O,0.600000X1.700000*%
G04 APERTURE END LIST*
%TO.P,R3,2*%
%TO.N,+5V*%
%TA.AperFunction,SMDPad,CuDef*%
G36*
G01*
X180194000Y-104197999D02*
X180194000Y-105098001D01*
G75*
G02*
X179944001Y-105348000I-249999J0D01*
G01*
X179243999Y-105348000D01*
G75*
G02*
X178994000Y-105098001I0J249999D01*
G01*
X178994000Y-104197999D01*
G75*
G02*
X179243999Y-103948000I249999J0D01*
G01*
X179944001Y-103948000D01*
G75*
G02*
X180194000Y-104197999I0J-249999D01*
G01*
G37*
%TD.AperFunction*%
%TO.P,R3,1*%
%TO.N,Net-(D3-Pad2)*%
%TA.AperFunction,SMDPad,CuDef*%
G36*
G01*
X182194000Y-104197999D02*
X182194000Y-105098001D01*
G75*
G02*
X181944001Y-105348000I-249999J0D01*
G01*
X181243999Y-105348000D01*
G75*
G02*
X180994000Y-105098001I0J249999D01*
G01*
X180994000Y-104197999D01*
G75*
G02*
X181243999Y-103948000I249999J0D01*
G01*
X181944001Y-103948000D01*
G75*
G02*
X182194000Y-104197999I0J-249999D01*
G01*
G37*
%TD.AperFunction*%
%TD*%
%TO.P,R2,2*%
%TO.N,+5V*%
%TA.AperFunction,SMDPad,CuDef*%
G36*
G01*
X180194000Y-115373999D02*
X180194000Y-116274001D01*
G75*
G02*
X179944001Y-116524000I-249999J0D01*
G01*
X179243999Y-116524000D01*
G75*
G02*
X178994000Y-116274001I0J249999D01*
G01*
X178994000Y-115373999D01*
G75*
G02*
X179243999Y-115124000I249999J0D01*
G01*
X179944001Y-115124000D01*
G75*
G02*
X180194000Y-115373999I0J-249999D01*
G01*
G37*
%TD.AperFunction*%
%TO.P,R2,1*%
%TO.N,Net-(D2-Pad2)*%
%TA.AperFunction,SMDPad,CuDef*%
G36*
G01*
X182194000Y-115373999D02*
X182194000Y-116274001D01*
G75*
G02*
X181944001Y-116524000I-249999J0D01*
G01*
X181243999Y-116524000D01*
G75*
G02*
X180994000Y-116274001I0J249999D01*
G01*
X180994000Y-115373999D01*
G75*
G02*
X181243999Y-115124000I249999J0D01*
G01*
X181944001Y-115124000D01*
G75*
G02*
X182194000Y-115373999I0J-249999D01*
G01*
G37*
%TD.AperFunction*%
%TD*%
%TO.P,R1,2*%
%TO.N,+5V*%
%TA.AperFunction,SMDPad,CuDef*%
G36*
G01*
X180194000Y-128327999D02*
X180194000Y-129228001D01*
G75*
G02*
X179944001Y-129478000I-249999J0D01*
G01*
X179243999Y-129478000D01*
G75*
G02*
X178994000Y-129228001I0J249999D01*
G01*
X178994000Y-128327999D01*
G75*
G02*
X179243999Y-128078000I249999J0D01*
G01*
X179944001Y-128078000D01*
G75*
G02*
X180194000Y-128327999I0J-249999D01*
G01*
G37*
%TD.AperFunction*%
%TO.P,R1,1*%
%TO.N,Net-(D1-Pad2)*%
%TA.AperFunction,SMDPad,CuDef*%
G36*
G01*
X182194000Y-128327999D02*
X182194000Y-129228001D01*
G75*
G02*
X181944001Y-129478000I-249999J0D01*
G01*
X181243999Y-129478000D01*
G75*
G02*
X180994000Y-129228001I0J249999D01*
G01*
X180994000Y-128327999D01*
G75*
G02*
X181243999Y-128078000I249999J0D01*
G01*
X181944001Y-128078000D01*
G75*
G02*
X182194000Y-128327999I0J-249999D01*
G01*
G37*
%TD.AperFunction*%
%TD*%
D10*
%TO.P,Q1,1*%
%TO.N,GND*%
X203962000Y-95504000D03*
D11*
%TO.P,Q1,3*%
%TO.N,Net-(D1-Pad1)*%
X203962000Y-98044000D03*
%TO.P,Q1,2*%
%TO.N,Net-(Q1-Pad2)*%
X203962000Y-96774000D03*
%TD*%
%TO.P,D3,2*%
%TO.N,Net-(D3-Pad2)*%
%TA.AperFunction,SMDPad,CuDef*%
G36*
G01*
X184354500Y-103573000D02*
X184354500Y-105723000D01*
G75*
G02*
X184104500Y-105973000I-250000J0D01*
G01*
X183179500Y-105973000D01*
G75*
G02*
X182929500Y-105723000I0J250000D01*
G01*
X182929500Y-103573000D01*
G75*
G02*
X183179500Y-103323000I250000J0D01*
G01*
X184104500Y-103323000D01*
G75*
G02*
X184354500Y-103573000I0J-250000D01*
G01*
G37*
%TD.AperFunction*%
%TO.P,D3,1*%
%TO.N,Net-(D1-Pad1)*%
%TA.AperFunction,SMDPad,CuDef*%
G36*
G01*
X187329500Y-103573000D02*
X187329500Y-105723000D01*
G75*
G02*
X187079500Y-105973000I-250000J0D01*
G01*
X186154500Y-105973000D01*
G75*
G02*
X185904500Y-105723000I0J250000D01*
G01*
X185904500Y-103573000D01*
G75*
G02*
X186154500Y-103323000I250000J0D01*
G01*
X187079500Y-103323000D01*
G75*
G02*
X187329500Y-103573000I0J-250000D01*
G01*
G37*
%TD.AperFunction*%
%TD*%
%TO.P,D2,2*%
%TO.N,Net-(D2-Pad2)*%
%TA.AperFunction,SMDPad,CuDef*%
G36*
G01*
X184391000Y-114749000D02*
X184391000Y-116899000D01*
G75*
G02*
X184141000Y-117149000I-250000J0D01*
G01*
X183216000Y-117149000D01*
G75*
G02*
X182966000Y-116899000I0J250000D01*
G01*
X182966000Y-114749000D01*
G75*
G02*
X183216000Y-114499000I250000J0D01*
G01*
X184141000Y-114499000D01*
G75*
G02*
X184391000Y-114749000I0J-250000D01*
G01*
G37*
%TD.AperFunction*%
%TO.P,D2,1*%
%TO.N,Net-(D1-Pad1)*%
%TA.AperFunction,SMDPad,CuDef*%
G36*
G01*
X187366000Y-114749000D02*
X187366000Y-116899000D01*
G75*
G02*
X187116000Y-117149000I-250000J0D01*
G01*
X186191000Y-117149000D01*
G75*
G02*
X185941000Y-116899000I0J250000D01*
G01*
X185941000Y-114749000D01*
G75*
G02*
X186191000Y-114499000I250000J0D01*
G01*
X187116000Y-114499000D01*
G75*
G02*
X187366000Y-114749000I0J-250000D01*
G01*
G37*
%TD.AperFunction*%
%TD*%
%TO.P,D1,2*%
%TO.N,Net-(D1-Pad2)*%
%TA.AperFunction,SMDPad,CuDef*%
G36*
G01*
X184391000Y-127703000D02*
X184391000Y-129853000D01*
G75*
G02*
X184141000Y-130103000I-250000J0D01*
G01*
X183216000Y-130103000D01*
G75*
G02*
X182966000Y-129853000I0J250000D01*
G01*
X182966000Y-127703000D01*
G75*
G02*
X183216000Y-127453000I250000J0D01*
G01*
X184141000Y-127453000D01*
G75*
G02*
X184391000Y-127703000I0J-250000D01*
G01*
G37*
%TD.AperFunction*%
%TO.P,D1,1*%
%TO.N,Net-(D1-Pad1)*%
%TA.AperFunction,SMDPad,CuDef*%
G36*
G01*
X187366000Y-127703000D02*
X187366000Y-129853000D01*
G75*
G02*
X187116000Y-130103000I-250000J0D01*
G01*
X186191000Y-130103000D01*
G75*
G02*
X185941000Y-129853000I0J250000D01*
G01*
X185941000Y-127703000D01*
G75*
G02*
X186191000Y-127453000I250000J0D01*
G01*
X187116000Y-127453000D01*
G75*
G02*
X187366000Y-127703000I0J-250000D01*
G01*
G37*
%TD.AperFunction*%
%TD*%
%TO.P,C2,2*%
%TO.N,Key2*%
%TA.AperFunction,SMDPad,CuDef*%
G36*
G01*
X212910000Y-118143000D02*
X212910000Y-119093000D01*
G75*
G02*
X212660000Y-119343000I-250000J0D01*
G01*
X211985000Y-119343000D01*
G75*
G02*
X211735000Y-119093000I0J250000D01*
G01*
X211735000Y-118143000D01*
G75*
G02*
X211985000Y-117893000I250000J0D01*
G01*
X212660000Y-117893000D01*
G75*
G02*
X212910000Y-118143000I0J-250000D01*
G01*
G37*
%TD.AperFunction*%
%TO.P,C2,1*%
%TO.N,GND*%
%TA.AperFunction,SMDPad,CuDef*%
G36*
G01*
X214985000Y-118143000D02*
X214985000Y-119093000D01*
G75*
G02*
X214735000Y-119343000I-250000J0D01*
G01*
X214060000Y-119343000D01*
G75*
G02*
X213810000Y-119093000I0J250000D01*
G01*
X213810000Y-118143000D01*
G75*
G02*
X214060000Y-117893000I250000J0D01*
G01*
X214735000Y-117893000D01*
G75*
G02*
X214985000Y-118143000I0J-250000D01*
G01*
G37*
%TD.AperFunction*%
%TD*%
%TO.P,C1,2*%
%TO.N,Key1*%
%TA.AperFunction,SMDPad,CuDef*%
G36*
G01*
X201618000Y-119093000D02*
X201618000Y-118143000D01*
G75*
G02*
X201868000Y-117893000I250000J0D01*
G01*
X202543000Y-117893000D01*
G75*
G02*
X202793000Y-118143000I0J-250000D01*
G01*
X202793000Y-119093000D01*
G75*
G02*
X202543000Y-119343000I-250000J0D01*
G01*
X201868000Y-119343000D01*
G75*
G02*
X201618000Y-119093000I0J250000D01*
G01*
G37*
%TD.AperFunction*%
%TO.P,C1,1*%
%TO.N,GND*%
%TA.AperFunction,SMDPad,CuDef*%
G36*
G01*
X199543000Y-119093000D02*
X199543000Y-118143000D01*
G75*
G02*
X199793000Y-117893000I250000J0D01*
G01*
X200468000Y-117893000D01*
G75*
G02*
X200718000Y-118143000I0J-250000D01*
G01*
X200718000Y-119093000D01*
G75*
G02*
X200468000Y-119343000I-250000J0D01*
G01*
X199793000Y-119343000D01*
G75*
G02*
X199543000Y-119093000I0J250000D01*
G01*
G37*
%TD.AperFunction*%
%TD*%
D12*
%TO.P,J1,1*%
%TO.N,Net-(J1-Pad1)*%
X215182000Y-137764000D03*
D13*
%TO.P,J1,2*%
%TO.N,Net-(J1-Pad2)*%
X207982000Y-137764000D03*
D14*
%TO.P,J1,S1*%
%TO.N,N/C*%
X218332000Y-143764000D03*
%TO.P,J1,S2*%
X204832000Y-143764000D03*
%TD*%
D15*
%TO.P,H1,4*%
%TO.N,GND*%
X234442000Y-140970000D03*
%TO.P,H1,3*%
X236982000Y-140970000D03*
%TO.P,H1,2*%
%TO.N,+5V*%
X239522000Y-140970000D03*
D16*
%TO.P,H1,1*%
X242062000Y-140970000D03*
%TD*%
%TO.P,FU1,2*%
%TO.N,+5V*%
%TA.AperFunction,SMDPad,CuDef*%
G36*
G01*
X176463000Y-100955000D02*
X177613000Y-100955000D01*
G75*
G02*
X177863000Y-101205000I0J-250000D01*
G01*
X177863000Y-102305000D01*
G75*
G02*
X177613000Y-102555000I-250000J0D01*
G01*
X176463000Y-102555000D01*
G75*
G02*
X176213000Y-102305000I0J250000D01*
G01*
X176213000Y-101205000D01*
G75*
G02*
X176463000Y-100955000I250000J0D01*
G01*
G37*
%TD.AperFunction*%
%TO.P,FU1,1*%
%TO.N,Net-(FU1-Pad1)*%
%TA.AperFunction,SMDPad,CuDef*%
G36*
G01*
X176463000Y-98105000D02*
X177613000Y-98105000D01*
G75*
G02*
X177863000Y-98355000I0J-250000D01*
G01*
X177863000Y-99455000D01*
G75*
G02*
X177613000Y-99705000I-250000J0D01*
G01*
X176463000Y-99705000D01*
G75*
G02*
X176213000Y-99455000I0J250000D01*
G01*
X176213000Y-98355000D01*
G75*
G02*
X176463000Y-98105000I250000J0D01*
G01*
G37*
%TD.AperFunction*%
%TD*%
D17*
%TO.P,MAIN1,34*%
%TO.N,N/C*%
X233396641Y-104530201D03*
%TO.P,MAIN1,35*%
X233396641Y-107070201D03*
%TO.P,MAIN1,28*%
%TO.N,RGB5050-G*%
X225776641Y-104530201D03*
%TO.P,MAIN1,23*%
%TO.N,N/C*%
X218156641Y-107070201D03*
%TO.P,MAIN1,21*%
X215616641Y-107070201D03*
%TO.P,MAIN1,56*%
X210536641Y-107070201D03*
%TO.P,MAIN1,57*%
X210536641Y-104530201D03*
%TO.P,MAIN1,18*%
X213076641Y-104530201D03*
%TO.P,MAIN1,20*%
X215616641Y-104530201D03*
%TO.P,MAIN1,30*%
X228316641Y-104530201D03*
%TO.P,MAIN1,24*%
X220696641Y-104530201D03*
%TO.P,MAIN1,27*%
%TO.N,RGB5050-R*%
X223236641Y-107070201D03*
%TO.P,MAIN1,29*%
%TO.N,RGB5050-B*%
X225776641Y-107070201D03*
%TO.P,MAIN1,32*%
%TO.N,N/C*%
X230856641Y-104530201D03*
%TO.P,MAIN1,26*%
%TO.N,IO8_LED*%
X223236641Y-104530201D03*
%TO.P,MAIN1,19*%
%TO.N,N/C*%
X213076641Y-107070201D03*
%TO.P,MAIN1,22*%
X218156641Y-104530201D03*
%TO.P,MAIN1,33*%
X230856641Y-107070201D03*
%TO.P,MAIN1,25*%
X220696641Y-107070201D03*
%TO.P,MAIN1,31*%
X228316641Y-107070201D03*
%TO.P,MAIN1,39*%
X240039201Y-113430361D03*
%TO.P,MAIN1,45*%
X240039201Y-121050361D03*
%TO.P,MAIN1,46*%
X237499201Y-123590361D03*
%TO.P,MAIN1,37*%
X240039201Y-110890361D03*
%TO.P,MAIN1,42*%
X237499201Y-118510361D03*
%TO.P,MAIN1,41*%
X240039201Y-115970361D03*
%TO.P,MAIN1,43*%
X240039201Y-118510361D03*
%TO.P,MAIN1,36*%
X237499201Y-110890361D03*
%TO.P,MAIN1,47*%
X240039201Y-123590361D03*
%TO.P,MAIN1,44*%
X237499201Y-121050361D03*
%TO.P,MAIN1,40*%
X237499201Y-115970361D03*
%TO.P,MAIN1,38*%
X237499201Y-113430361D03*
%TO.P,MAIN1,4*%
X205241201Y-126384361D03*
%TO.P,MAIN1,5*%
X207781201Y-126384361D03*
%TO.P,MAIN1,0*%
X205241201Y-131464361D03*
%TO.P,MAIN1,1*%
X207781201Y-131464361D03*
%TO.P,MAIN1,2*%
X205241201Y-128924361D03*
%TO.P,MAIN1,3*%
X207781201Y-128924361D03*
D18*
%TO.P,MAIN1,*%
%TO.N,*%
X200415201Y-136864401D03*
X246135201Y-136864401D03*
X200415201Y-105744321D03*
D17*
%TO.P,MAIN1,17*%
%TO.N,N/C*%
X207781201Y-111144361D03*
%TO.P,MAIN1,16*%
X205241201Y-111144361D03*
%TO.P,MAIN1,15*%
X207781201Y-113684361D03*
%TO.P,MAIN1,14*%
X205241201Y-113684361D03*
%TO.P,MAIN1,13*%
X207781201Y-116224361D03*
%TO.P,MAIN1,12*%
X205241201Y-116224361D03*
%TO.P,MAIN1,11*%
%TO.N,Key2*%
X207781201Y-118764361D03*
%TO.P,MAIN1,10*%
%TO.N,Key1*%
X205241201Y-118764361D03*
%TO.P,MAIN1,9*%
%TO.N,N/C*%
X207781201Y-121304361D03*
%TO.P,MAIN1,8*%
X205241201Y-121304361D03*
%TO.P,MAIN1,7*%
X207781201Y-123844361D03*
%TO.P,MAIN1,6*%
X205241201Y-123844361D03*
%TO.P,MAIN1,51*%
X237499201Y-131210361D03*
%TO.P,MAIN1,50*%
X240039201Y-131210361D03*
%TO.P,MAIN1,52*%
%TO.N,+5V*%
X237499201Y-128670361D03*
%TO.P,MAIN1,53*%
%TO.N,N/C*%
X240039201Y-128670361D03*
%TO.P,MAIN1,54*%
%TO.N,GND*%
X237499201Y-126130361D03*
%TO.P,MAIN1,55*%
X240039201Y-126130361D03*
%TD*%
D19*
%TO.N,+5V*%
X179578000Y-130810000D03*
X179578000Y-101600000D03*
X175260000Y-130810000D03*
X177292000Y-130810000D03*
%TO.N,GND*%
X197866000Y-93980000D03*
X197866000Y-94996000D03*
X197866000Y-96012000D03*
X198882000Y-93980000D03*
X198882000Y-94996000D03*
X198882000Y-96012000D03*
X213106000Y-100076000D03*
X215392000Y-97028000D03*
X213868000Y-100838000D03*
X216154000Y-97790000D03*
%TO.N,Net-(FU1-Pad1)*%
X178816000Y-95504000D03*
X178816000Y-94488000D03*
X178816000Y-96520000D03*
X178816000Y-97536000D03*
X178816000Y-98552000D03*
X175006000Y-98044000D03*
X175006000Y-99060000D03*
D20*
%TO.N,Net-(J1-Pad2)*%
X199950000Y-144272000D03*
D19*
%TO.N,Key2*%
X211074000Y-118618000D03*
%TO.N,Key1*%
X203200000Y-118618000D03*
%TO.N,Net-(D4-Pad1)*%
X228854000Y-98298000D03*
X229616000Y-94742000D03*
%TD*%
D21*
%TO.N,+5V*%
X179594000Y-104311000D02*
X177038000Y-101755000D01*
D22*
%TO.N,Net-(J1-Pad2)*%
X200914000Y-144272000D02*
X199950000Y-144272000D01*
X207422000Y-137764000D02*
X200914000Y-144272000D01*
X207982000Y-137764000D02*
X207422000Y-137764000D01*
D23*
%TO.N,Key2*%
X212322500Y-118618000D02*
X211074000Y-118618000D01*
%TO.N,Key1*%
X202205500Y-118618000D02*
X203200000Y-118618000D01*
%TO.N,Net-(D1-Pad2)*%
X181594000Y-128778000D02*
X183424500Y-128778000D01*
D21*
%TO.N,Net-(D1-Pad1)*%
X186363000Y-104648000D02*
X192967000Y-98044000D01*
X192967000Y-98044000D02*
X203708000Y-98044000D01*
D23*
X186690000Y-128487500D02*
X186399500Y-128778000D01*
X186690000Y-104975000D02*
X186690000Y-128487500D01*
X186363000Y-104648000D02*
X186690000Y-104975000D01*
%TO.N,Net-(D2-Pad2)*%
X181594000Y-115824000D02*
X183424500Y-115824000D01*
%TO.N,Net-(D3-Pad2)*%
X181594000Y-104648000D02*
X183388000Y-104648000D01*
%TO.N,Net-(D4-Pad1)*%
X228854000Y-95504000D02*
X229616000Y-94742000D01*
X228854000Y-98298000D02*
X228854000Y-95504000D01*
%TD*%
D24*
%TO.N,Net-(FU1-Pad1)*%
X179705000Y-99695000D02*
X178501012Y-99695000D01*
X178498000Y-99190750D01*
X178339250Y-99032000D01*
X177165000Y-99032000D01*
X177165000Y-99052000D01*
X176911000Y-99052000D01*
X176911000Y-99032000D01*
X175736750Y-99032000D01*
X175578000Y-99190750D01*
X175574988Y-99695000D01*
X174371000Y-99695000D01*
X174371000Y-98105000D01*
X175574928Y-98105000D01*
X175578000Y-98619250D01*
X175736750Y-98778000D01*
X176911000Y-98778000D01*
X176911000Y-97628750D01*
X177165000Y-97628750D01*
X177165000Y-98778000D01*
X178339250Y-98778000D01*
X178498000Y-98619250D01*
X178501072Y-98105000D01*
X178488812Y-97980518D01*
X178452502Y-97860820D01*
X178393537Y-97750506D01*
X178314185Y-97653815D01*
X178217494Y-97574463D01*
X178107180Y-97515498D01*
X177987482Y-97479188D01*
X177863000Y-97466928D01*
X177323750Y-97470000D01*
X177165000Y-97628750D01*
X176911000Y-97628750D01*
X176752250Y-97470000D01*
X176213000Y-97466928D01*
X176088518Y-97479188D01*
X175968820Y-97515498D01*
X175858506Y-97574463D01*
X175761815Y-97653815D01*
X175682463Y-97750506D01*
X175623498Y-97860820D01*
X175587188Y-97980518D01*
X175574928Y-98105000D01*
X174371000Y-98105000D01*
X174371000Y-93878000D01*
X179705000Y-93878000D01*
X179705000Y-99695000D01*
%TA.AperFunction,Conductor*%
D25*
G36*
X179705000Y-99695000D02*
G01*
X178501012Y-99695000D01*
X178498000Y-99190750D01*
X178339250Y-99032000D01*
X177165000Y-99032000D01*
X177165000Y-99052000D01*
X176911000Y-99052000D01*
X176911000Y-99032000D01*
X175736750Y-99032000D01*
X175578000Y-99190750D01*
X175574988Y-99695000D01*
X174371000Y-99695000D01*
X174371000Y-98105000D01*
X175574928Y-98105000D01*
X175578000Y-98619250D01*
X175736750Y-98778000D01*
X176911000Y-98778000D01*
X176911000Y-97628750D01*
X177165000Y-97628750D01*
X177165000Y-98778000D01*
X178339250Y-98778000D01*
X178498000Y-98619250D01*
X178501072Y-98105000D01*
X178488812Y-97980518D01*
X178452502Y-97860820D01*
X178393537Y-97750506D01*
X178314185Y-97653815D01*
X178217494Y-97574463D01*
X178107180Y-97515498D01*
X177987482Y-97479188D01*
X177863000Y-97466928D01*
X177323750Y-97470000D01*
X177165000Y-97628750D01*
X176911000Y-97628750D01*
X176752250Y-97470000D01*
X176213000Y-97466928D01*
X176088518Y-97479188D01*
X175968820Y-97515498D01*
X175858506Y-97574463D01*
X175761815Y-97653815D01*
X175682463Y-97750506D01*
X175623498Y-97860820D01*
X175587188Y-97980518D01*
X175574928Y-98105000D01*
X174371000Y-98105000D01*
X174371000Y-93878000D01*
X179705000Y-93878000D01*
X179705000Y-99695000D01*
G37*
%TD.AperFunction*%
%TD*%
D24*
%TO.N,+5V*%
X180213000Y-131191000D02*
X174371000Y-131191000D01*
X174371000Y-100965000D01*
X180213000Y-100965000D01*
X180213000Y-131191000D01*
%TA.AperFunction,Conductor*%
D25*
G36*
X180213000Y-131191000D02*
G01*
X174371000Y-131191000D01*
X174371000Y-100965000D01*
X180213000Y-100965000D01*
X180213000Y-131191000D01*
G37*
%TD.AperFunction*%
%TD*%
D24*
%TO.N,GND*%
X228956226Y-93938063D02*
X228812063Y-94082226D01*
X228698795Y-94251744D01*
X228620774Y-94440102D01*
X228609465Y-94496956D01*
X228258951Y-94847471D01*
X228225184Y-94875183D01*
X228197471Y-94908951D01*
X228197468Y-94908954D01*
X228114590Y-95009941D01*
X228032412Y-95163687D01*
X227981805Y-95330510D01*
X227964719Y-95504000D01*
X227969001Y-95547479D01*
X227969000Y-97759545D01*
X227936795Y-97807744D01*
X227858774Y-97996102D01*
X227819000Y-98196061D01*
X227819000Y-98399939D01*
X227858774Y-98599898D01*
X227936795Y-98788256D01*
X228050063Y-98957774D01*
X228194226Y-99101937D01*
X228363744Y-99215205D01*
X228552102Y-99293226D01*
X228752061Y-99333000D01*
X228955939Y-99333000D01*
X229155898Y-99293226D01*
X229344256Y-99215205D01*
X229513774Y-99101937D01*
X229657937Y-98957774D01*
X229771205Y-98788256D01*
X229849226Y-98599898D01*
X229889000Y-98399939D01*
X229889000Y-98196061D01*
X229849226Y-97996102D01*
X229771205Y-97807744D01*
X229739000Y-97759546D01*
X229739000Y-95870578D01*
X229861044Y-95748535D01*
X229917898Y-95737226D01*
X230106256Y-95659205D01*
X230275774Y-95545937D01*
X230419937Y-95401774D01*
X230533205Y-95232256D01*
X230611226Y-95043898D01*
X230651000Y-94843939D01*
X230651000Y-94640061D01*
X230611226Y-94440102D01*
X230533205Y-94251744D01*
X230419937Y-94082226D01*
X230275774Y-93938063D01*
X230185883Y-93878000D01*
X248514000Y-93878000D01*
X248514001Y-145390000D01*
X219028556Y-145390000D01*
X219209502Y-145241502D01*
X219363833Y-145053449D01*
X219478511Y-144838901D01*
X219549130Y-144606102D01*
X219567000Y-144424665D01*
X219567000Y-143103335D01*
X219549130Y-142921898D01*
X219478511Y-142689099D01*
X219363833Y-142474551D01*
X219209502Y-142286498D01*
X219021449Y-142132167D01*
X218806901Y-142017489D01*
X218574102Y-141946870D01*
X218332000Y-141923025D01*
X218089899Y-141946870D01*
X217857100Y-142017489D01*
X217642552Y-142132167D01*
X217454499Y-142286498D01*
X217300168Y-142474551D01*
X217185489Y-142689099D01*
X217114870Y-142921898D01*
X217097000Y-143103335D01*
X217097000Y-144424664D01*
X217114870Y-144606101D01*
X217185489Y-144838900D01*
X217300167Y-145053448D01*
X217454498Y-145241502D01*
X217635443Y-145390000D01*
X205528556Y-145390000D01*
X205709502Y-145241502D01*
X205863833Y-145053449D01*
X205978511Y-144838901D01*
X206049130Y-144606102D01*
X206067000Y-144424665D01*
X206067000Y-143103335D01*
X206049130Y-142921898D01*
X205978511Y-142689099D01*
X205863833Y-142474551D01*
X205709502Y-142286498D01*
X205521449Y-142132167D01*
X205306901Y-142017489D01*
X205074102Y-141946870D01*
X204993611Y-141938942D01*
X205605662Y-141326891D01*
X233000519Y-141326891D01*
X233097843Y-141601252D01*
X233246822Y-141851355D01*
X233441731Y-142067588D01*
X233675080Y-142241641D01*
X233937901Y-142366825D01*
X234085110Y-142411476D01*
X234315000Y-142290155D01*
X234315000Y-141097000D01*
X234569000Y-141097000D01*
X234569000Y-142290155D01*
X234798890Y-142411476D01*
X234946099Y-142366825D01*
X235208920Y-142241641D01*
X235442269Y-142067588D01*
X235637178Y-141851355D01*
X235712000Y-141725745D01*
X235786822Y-141851355D01*
X235981731Y-142067588D01*
X236215080Y-142241641D01*
X236477901Y-142366825D01*
X236625110Y-142411476D01*
X236855000Y-142290155D01*
X236855000Y-141097000D01*
X234569000Y-141097000D01*
X234315000Y-141097000D01*
X233121186Y-141097000D01*
X233000519Y-141326891D01*
X205605662Y-141326891D01*
X206319444Y-140613109D01*
X233000519Y-140613109D01*
X233121186Y-140843000D01*
X234315000Y-140843000D01*
X234315000Y-139649845D01*
X234569000Y-139649845D01*
X234569000Y-140843000D01*
X236855000Y-140843000D01*
X236855000Y-139649845D01*
X237109000Y-139649845D01*
X237109000Y-140843000D01*
X237129000Y-140843000D01*
X237129000Y-141097000D01*
X237109000Y-141097000D01*
X237109000Y-142290155D01*
X237338890Y-142411476D01*
X237486099Y-142366825D01*
X237748920Y-142241641D01*
X237982269Y-142067588D01*
X238177178Y-141851355D01*
X238246805Y-141734466D01*
X238368525Y-141916632D01*
X238575368Y-142123475D01*
X238818589Y-142285990D01*
X239088842Y-142397932D01*
X239375740Y-142455000D01*
X239668260Y-142455000D01*
X239955158Y-142397932D01*
X240225411Y-142285990D01*
X240468632Y-142123475D01*
X240600487Y-141991620D01*
X240622498Y-142064180D01*
X240681463Y-142174494D01*
X240760815Y-142271185D01*
X240857506Y-142350537D01*
X240967820Y-142409502D01*
X241087518Y-142445812D01*
X241212000Y-142458072D01*
X242912000Y-142458072D01*
X243036482Y-142445812D01*
X243156180Y-142409502D01*
X243266494Y-142350537D01*
X243363185Y-142271185D01*
X243442537Y-142174494D01*
X243501502Y-142064180D01*
X243537812Y-141944482D01*
X243550072Y-141820000D01*
X243550072Y-140120000D01*
X243537812Y-139995518D01*
X243501502Y-139875820D01*
X243442537Y-139765506D01*
X243363185Y-139668815D01*
X243266494Y-139589463D01*
X243156180Y-139530498D01*
X243036482Y-139494188D01*
X242912000Y-139481928D01*
X241212000Y-139481928D01*
X241087518Y-139494188D01*
X240967820Y-139530498D01*
X240857506Y-139589463D01*
X240760815Y-139668815D01*
X240681463Y-139765506D01*
X240622498Y-139875820D01*
X240600487Y-139948380D01*
X240468632Y-139816525D01*
X240225411Y-139654010D01*
X239955158Y-139542068D01*
X239668260Y-139485000D01*
X239375740Y-139485000D01*
X239088842Y-139542068D01*
X238818589Y-139654010D01*
X238575368Y-139816525D01*
X238368525Y-140023368D01*
X238246805Y-140205534D01*
X238177178Y-140088645D01*
X237982269Y-139872412D01*
X237748920Y-139698359D01*
X237486099Y-139573175D01*
X237338890Y-139528524D01*
X237109000Y-139649845D01*
X236855000Y-139649845D01*
X236625110Y-139528524D01*
X236477901Y-139573175D01*
X236215080Y-139698359D01*
X235981731Y-139872412D01*
X235786822Y-140088645D01*
X235712000Y-140214255D01*
X235637178Y-140088645D01*
X235442269Y-139872412D01*
X235208920Y-139698359D01*
X234946099Y-139573175D01*
X234798890Y-139528524D01*
X234569000Y-139649845D01*
X234315000Y-139649845D01*
X234085110Y-139528524D01*
X233937901Y-139573175D01*
X233675080Y-139698359D01*
X233441731Y-139872412D01*
X233246822Y-140088645D01*
X233097843Y-140338748D01*
X233000519Y-140613109D01*
X206319444Y-140613109D01*
X206912960Y-140019593D01*
X207254819Y-140161196D01*
X207736461Y-140257000D01*
X208227539Y-140257000D01*
X208709181Y-140161196D01*
X209162879Y-139973268D01*
X209571195Y-139700440D01*
X209918440Y-139353195D01*
X210191268Y-138944879D01*
X210379196Y-138491181D01*
X210475000Y-138009539D01*
X210475000Y-137518461D01*
X210379196Y-137036819D01*
X210191268Y-136583121D01*
X209918440Y-136174805D01*
X209649635Y-135906000D01*
X212685928Y-135906000D01*
X212685928Y-139622000D01*
X212698188Y-139746482D01*
X212734498Y-139866180D01*
X212793463Y-139976494D01*
X212872815Y-140073185D01*
X212969506Y-140152537D01*
X213079820Y-140211502D01*
X213199518Y-140247812D01*
X213324000Y-140260072D01*
X217040000Y-140260072D01*
X217164482Y-140247812D01*
X217284180Y-140211502D01*
X217394494Y-140152537D01*
X217491185Y-140073185D01*
X217570537Y-139976494D01*
X217629502Y-139866180D01*
X217665812Y-139746482D01*
X217678072Y-139622000D01*
X217678072Y-135906000D01*
X217665812Y-135781518D01*
X217629502Y-135661820D01*
X217570537Y-135551506D01*
X217491185Y-135454815D01*
X217394494Y-135375463D01*
X217284180Y-135316498D01*
X217277235Y-135314391D01*
X243947119Y-135314391D01*
X243947119Y-138414411D01*
X243959379Y-138538893D01*
X243995689Y-138658591D01*
X244054654Y-138768905D01*
X244134006Y-138865596D01*
X244230697Y-138944948D01*
X244341011Y-139003913D01*
X244460709Y-139040223D01*
X244585191Y-139052483D01*
X247685211Y-139052483D01*
X247809693Y-139040223D01*
X247929391Y-139003913D01*
X248039705Y-138944948D01*
X248136396Y-138865596D01*
X248215748Y-138768905D01*
X248274713Y-138658591D01*
X248311023Y-138538893D01*
X248323283Y-138414411D01*
X248323283Y-135314391D01*
X248311023Y-135189909D01*
X248274713Y-135070211D01*
X248215748Y-134959897D01*
X248136396Y-134863206D01*
X248039705Y-134783854D01*
X247929391Y-134724889D01*
X247809693Y-134688579D01*
X247685211Y-134676319D01*
X244585191Y-134676319D01*
X244460709Y-134688579D01*
X244341011Y-134724889D01*
X244230697Y-134783854D01*
X244134006Y-134863206D01*
X244054654Y-134959897D01*
X243995689Y-135070211D01*
X243959379Y-135189909D01*
X243947119Y-135314391D01*
X217277235Y-135314391D01*
X217164482Y-135280188D01*
X217040000Y-135267928D01*
X213324000Y-135267928D01*
X213199518Y-135280188D01*
X213079820Y-135316498D01*
X212969506Y-135375463D01*
X212872815Y-135454815D01*
X212793463Y-135551506D01*
X212734498Y-135661820D01*
X212698188Y-135781518D01*
X212685928Y-135906000D01*
X209649635Y-135906000D01*
X209571195Y-135827560D01*
X209162879Y-135554732D01*
X208709181Y-135366804D01*
X208227539Y-135271000D01*
X207736461Y-135271000D01*
X207254819Y-135366804D01*
X206801121Y-135554732D01*
X206392805Y-135827560D01*
X206045560Y-136174805D01*
X205772732Y-136583121D01*
X205584804Y-137036819D01*
X205489000Y-137518461D01*
X205489000Y-137950446D01*
X200402447Y-143037000D01*
X199828363Y-143037000D01*
X199768562Y-143048895D01*
X199707898Y-143054870D01*
X199649567Y-143072564D01*
X199589764Y-143084460D01*
X199533429Y-143107795D01*
X199475099Y-143125489D01*
X199421342Y-143154223D01*
X199365008Y-143177557D01*
X199314311Y-143211432D01*
X199260551Y-143240167D01*
X199213429Y-143278839D01*
X199162733Y-143312713D01*
X199119620Y-143355826D01*
X199072498Y-143394498D01*
X199033826Y-143441620D01*
X198990713Y-143484733D01*
X198956839Y-143535429D01*
X198918167Y-143582551D01*
X198889432Y-143636311D01*
X198855557Y-143687008D01*
X198832223Y-143743342D01*
X198803489Y-143797099D01*
X198785795Y-143855429D01*
X198762460Y-143911764D01*
X198750564Y-143971567D01*
X198732870Y-144029898D01*
X198726895Y-144090562D01*
X198715000Y-144150363D01*
X198715000Y-144211335D01*
X198709025Y-144272000D01*
X198715000Y-144332665D01*
X198715000Y-144393637D01*
X198726895Y-144453438D01*
X198732870Y-144514102D01*
X198750564Y-144572433D01*
X198762460Y-144632236D01*
X198785795Y-144688571D01*
X198803489Y-144746901D01*
X198832223Y-144800658D01*
X198855557Y-144856992D01*
X198889432Y-144907689D01*
X198918167Y-144961449D01*
X198956839Y-145008571D01*
X198990713Y-145059267D01*
X199033826Y-145102380D01*
X199072498Y-145149502D01*
X199119619Y-145188173D01*
X199162733Y-145231287D01*
X199213429Y-145265161D01*
X199260551Y-145303833D01*
X199314311Y-145332568D01*
X199365008Y-145366443D01*
X199421342Y-145389777D01*
X199421759Y-145390000D01*
X196859922Y-145390000D01*
X196986818Y-135314391D01*
X198227119Y-135314391D01*
X198227119Y-138414411D01*
X198239379Y-138538893D01*
X198275689Y-138658591D01*
X198334654Y-138768905D01*
X198414006Y-138865596D01*
X198510697Y-138944948D01*
X198621011Y-139003913D01*
X198740709Y-139040223D01*
X198865191Y-139052483D01*
X201965211Y-139052483D01*
X202089693Y-139040223D01*
X202209391Y-139003913D01*
X202319705Y-138944948D01*
X202416396Y-138865596D01*
X202495748Y-138768905D01*
X202554713Y-138658591D01*
X202591023Y-138538893D01*
X202603283Y-138414411D01*
X202603283Y-135314391D01*
X202591023Y-135189909D01*
X202554713Y-135070211D01*
X202495748Y-134959897D01*
X202416396Y-134863206D01*
X202319705Y-134783854D01*
X202209391Y-134724889D01*
X202089693Y-134688579D01*
X201965211Y-134676319D01*
X198865191Y-134676319D01*
X198740709Y-134688579D01*
X198621011Y-134724889D01*
X198510697Y-134783854D01*
X198414006Y-134863206D01*
X198334654Y-134959897D01*
X198275689Y-135070211D01*
X198239379Y-135189909D01*
X198227119Y-135314391D01*
X196986818Y-135314391D01*
X197203082Y-118143000D01*
X200979928Y-118143000D01*
X200979928Y-119093000D01*
X200996992Y-119266254D01*
X201047528Y-119432850D01*
X201129595Y-119586386D01*
X201240038Y-119720962D01*
X201374614Y-119831405D01*
X201528150Y-119913472D01*
X201694746Y-119964008D01*
X201868000Y-119981072D01*
X202543000Y-119981072D01*
X202716254Y-119964008D01*
X202882850Y-119913472D01*
X203036386Y-119831405D01*
X203170962Y-119720962D01*
X203226737Y-119653000D01*
X203301939Y-119653000D01*
X203501898Y-119613226D01*
X203690256Y-119535205D01*
X203815729Y-119451367D01*
X203815729Y-119551761D01*
X203827989Y-119676243D01*
X203864299Y-119795941D01*
X203923264Y-119906255D01*
X204002616Y-120002946D01*
X204040895Y-120034361D01*
X204002616Y-120065776D01*
X203923264Y-120162467D01*
X203864299Y-120272781D01*
X203827989Y-120392479D01*
X203815729Y-120516961D01*
X203815729Y-122091761D01*
X203827989Y-122216243D01*
X203864299Y-122335941D01*
X203923264Y-122446255D01*
X204002616Y-122542946D01*
X204040895Y-122574361D01*
X204002616Y-122605776D01*
X203923264Y-122702467D01*
X203864299Y-122812781D01*
X203827989Y-122932479D01*
X203815729Y-123056961D01*
X203815729Y-124631761D01*
X203827989Y-124756243D01*
X203864299Y-124875941D01*
X203923264Y-124986255D01*
X204002616Y-125082946D01*
X204040895Y-125114361D01*
X204002616Y-125145776D01*
X203923264Y-125242467D01*
X203864299Y-125352781D01*
X203827989Y-125472479D01*
X203815729Y-125596961D01*
X203815729Y-127171761D01*
X203827989Y-127296243D01*
X203864299Y-127415941D01*
X203923264Y-127526255D01*
X204002616Y-127622946D01*
X204040895Y-127654361D01*
X204002616Y-127685776D01*
X203923264Y-127782467D01*
X203864299Y-127892781D01*
X203827989Y-128012479D01*
X203815729Y-128136961D01*
X203815729Y-129711761D01*
X203827989Y-129836243D01*
X203864299Y-129955941D01*
X203923264Y-130066255D01*
X204002616Y-130162946D01*
X204040895Y-130194361D01*
X204002616Y-130225776D01*
X203923264Y-130322467D01*
X203864299Y-130432781D01*
X203827989Y-130552479D01*
X203815729Y-130676961D01*
X203815729Y-132251761D01*
X203827989Y-132376243D01*
X203864299Y-132495941D01*
X203923264Y-132606255D01*
X204002616Y-132702946D01*
X204099307Y-132782298D01*
X204209621Y-132841263D01*
X204329319Y-132877573D01*
X204453801Y-132889833D01*
X206028601Y-132889833D01*
X206153083Y-132877573D01*
X206272781Y-132841263D01*
X206383095Y-132782298D01*
X206479786Y-132702946D01*
X206511201Y-132664667D01*
X206542616Y-132702946D01*
X206639307Y-132782298D01*
X206749621Y-132841263D01*
X206869319Y-132877573D01*
X206993801Y-132889833D01*
X208568601Y-132889833D01*
X208693083Y-132877573D01*
X208812781Y-132841263D01*
X208923095Y-132782298D01*
X209019786Y-132702946D01*
X209099138Y-132606255D01*
X209158103Y-132495941D01*
X209194413Y-132376243D01*
X209206673Y-132251761D01*
X209206673Y-130676961D01*
X209194413Y-130552479D01*
X209158103Y-130432781D01*
X209099138Y-130322467D01*
X209019786Y-130225776D01*
X208981507Y-130194361D01*
X209019786Y-130162946D01*
X209099138Y-130066255D01*
X209158103Y-129955941D01*
X209194413Y-129836243D01*
X209206673Y-129711761D01*
X209206673Y-128136961D01*
X209194413Y-128012479D01*
X209158103Y-127892781D01*
X209099138Y-127782467D01*
X209019786Y-127685776D01*
X208981507Y-127654361D01*
X209019786Y-127622946D01*
X209099138Y-127526255D01*
X209158103Y-127415941D01*
X209194413Y-127296243D01*
X209206673Y-127171761D01*
X209206673Y-126917761D01*
X236073729Y-126917761D01*
X236085989Y-127042243D01*
X236122299Y-127161941D01*
X236181264Y-127272255D01*
X236260616Y-127368946D01*
X236298895Y-127400361D01*
X236260616Y-127431776D01*
X236181264Y-127528467D01*
X236122299Y-127638781D01*
X236085989Y-127758479D01*
X236073729Y-127882961D01*
X236073729Y-129457761D01*
X236085989Y-129582243D01*
X236122299Y-129701941D01*
X236181264Y-129812255D01*
X236260616Y-129908946D01*
X236298895Y-129940361D01*
X236260616Y-129971776D01*
X236181264Y-130068467D01*
X236122299Y-130178781D01*
X236085989Y-130298479D01*
X236073729Y-130422961D01*
X236073729Y-131997761D01*
X236085989Y-132122243D01*
X236122299Y-132241941D01*
X236181264Y-132352255D01*
X236260616Y-132448946D01*
X236357307Y-132528298D01*
X236467621Y-132587263D01*
X236587319Y-132623573D01*
X236711801Y-132635833D01*
X238286601Y-132635833D01*
X238411083Y-132623573D01*
X238530781Y-132587263D01*
X238641095Y-132528298D01*
X238737786Y-132448946D01*
X238769201Y-132410667D01*
X238800616Y-132448946D01*
X238897307Y-132528298D01*
X239007621Y-132587263D01*
X239127319Y-132623573D01*
X239251801Y-132635833D01*
X240826601Y-132635833D01*
X240951083Y-132623573D01*
X241070781Y-132587263D01*
X241181095Y-132528298D01*
X241277786Y-132448946D01*
X241357138Y-132352255D01*
X241416103Y-132241941D01*
X241452413Y-132122243D01*
X241464673Y-131997761D01*
X241464673Y-130422961D01*
X241452413Y-130298479D01*
X241416103Y-130178781D01*
X241357138Y-130068467D01*
X241277786Y-129971776D01*
X241239507Y-129940361D01*
X241277786Y-129908946D01*
X241357138Y-129812255D01*
X241416103Y-129701941D01*
X241452413Y-129582243D01*
X241464673Y-129457761D01*
X241464673Y-127882961D01*
X241452413Y-127758479D01*
X241416103Y-127638781D01*
X241357138Y-127528467D01*
X241277786Y-127431776D01*
X241239507Y-127400361D01*
X241277786Y-127368946D01*
X241357138Y-127272255D01*
X241416103Y-127161941D01*
X241452413Y-127042243D01*
X241464673Y-126917761D01*
X241461601Y-126416111D01*
X241302851Y-126257361D01*
X240166201Y-126257361D01*
X240166201Y-126277361D01*
X239912201Y-126277361D01*
X239912201Y-126257361D01*
X238775551Y-126257361D01*
X238769201Y-126263711D01*
X238762851Y-126257361D01*
X237626201Y-126257361D01*
X237626201Y-126277361D01*
X237372201Y-126277361D01*
X237372201Y-126257361D01*
X236235551Y-126257361D01*
X236076801Y-126416111D01*
X236073729Y-126917761D01*
X209206673Y-126917761D01*
X209206673Y-125596961D01*
X209194413Y-125472479D01*
X209158103Y-125352781D01*
X209099138Y-125242467D01*
X209019786Y-125145776D01*
X208981507Y-125114361D01*
X209019786Y-125082946D01*
X209099138Y-124986255D01*
X209158103Y-124875941D01*
X209194413Y-124756243D01*
X209206673Y-124631761D01*
X209206673Y-123056961D01*
X209194413Y-122932479D01*
X209158103Y-122812781D01*
X209099138Y-122702467D01*
X209019786Y-122605776D01*
X208981507Y-122574361D01*
X209019786Y-122542946D01*
X209099138Y-122446255D01*
X209158103Y-122335941D01*
X209194413Y-122216243D01*
X209206673Y-122091761D01*
X209206673Y-120516961D01*
X209194413Y-120392479D01*
X209158103Y-120272781D01*
X209099138Y-120162467D01*
X209019786Y-120065776D01*
X208981507Y-120034361D01*
X209019786Y-120002946D01*
X209099138Y-119906255D01*
X209158103Y-119795941D01*
X209194413Y-119676243D01*
X209206673Y-119551761D01*
X209206673Y-118516061D01*
X210039000Y-118516061D01*
X210039000Y-118719939D01*
X210078774Y-118919898D01*
X210156795Y-119108256D01*
X210270063Y-119277774D01*
X210414226Y-119421937D01*
X210583744Y-119535205D01*
X210772102Y-119613226D01*
X210972061Y-119653000D01*
X211175939Y-119653000D01*
X211283676Y-119631570D01*
X211357038Y-119720962D01*
X211491614Y-119831405D01*
X211645150Y-119913472D01*
X211811746Y-119964008D01*
X211985000Y-119981072D01*
X212660000Y-119981072D01*
X212833254Y-119964008D01*
X212999850Y-119913472D01*
X213153386Y-119831405D01*
X213287962Y-119720962D01*
X213398405Y-119586386D01*
X213480472Y-119432850D01*
X213531008Y-119266254D01*
X213548072Y-119093000D01*
X213548072Y-118143000D01*
X213531008Y-117969746D01*
X213480472Y-117803150D01*
X213398405Y-117649614D01*
X213287962Y-117515038D01*
X213153386Y-117404595D01*
X212999850Y-117322528D01*
X212833254Y-117271992D01*
X212660000Y-117254928D01*
X211985000Y-117254928D01*
X211811746Y-117271992D01*
X211645150Y-117322528D01*
X211491614Y-117404595D01*
X211357038Y-117515038D01*
X211283676Y-117604430D01*
X211175939Y-117583000D01*
X210972061Y-117583000D01*
X210772102Y-117622774D01*
X210583744Y-117700795D01*
X210414226Y-117814063D01*
X210270063Y-117958226D01*
X210156795Y-118127744D01*
X210078774Y-118316102D01*
X210039000Y-118516061D01*
X209206673Y-118516061D01*
X209206673Y-117976961D01*
X209194413Y-117852479D01*
X209158103Y-117732781D01*
X209099138Y-117622467D01*
X209019786Y-117525776D01*
X208981507Y-117494361D01*
X209019786Y-117462946D01*
X209099138Y-117366255D01*
X209158103Y-117255941D01*
X209194413Y-117136243D01*
X209206673Y-117011761D01*
X209206673Y-115436961D01*
X209194413Y-115312479D01*
X209158103Y-115192781D01*
X209099138Y-115082467D01*
X209019786Y-114985776D01*
X208981507Y-114954361D01*
X209019786Y-114922946D01*
X209099138Y-114826255D01*
X209158103Y-114715941D01*
X209194413Y-114596243D01*
X209206673Y-114471761D01*
X209206673Y-112896961D01*
X209194413Y-112772479D01*
X209158103Y-112652781D01*
X209099138Y-112542467D01*
X209019786Y-112445776D01*
X208981507Y-112414361D01*
X209019786Y-112382946D01*
X209099138Y-112286255D01*
X209158103Y-112175941D01*
X209194413Y-112056243D01*
X209206673Y-111931761D01*
X209206673Y-110356961D01*
X209194413Y-110232479D01*
X209158103Y-110112781D01*
X209152855Y-110102961D01*
X236073729Y-110102961D01*
X236073729Y-111677761D01*
X236085989Y-111802243D01*
X236122299Y-111921941D01*
X236181264Y-112032255D01*
X236260616Y-112128946D01*
X236298895Y-112160361D01*
X236260616Y-112191776D01*
X236181264Y-112288467D01*
X236122299Y-112398781D01*
X236085989Y-112518479D01*
X236073729Y-112642961D01*
X236073729Y-114217761D01*
X236085989Y-114342243D01*
X236122299Y-114461941D01*
X236181264Y-114572255D01*
X236260616Y-114668946D01*
X236298895Y-114700361D01*
X236260616Y-114731776D01*
X236181264Y-114828467D01*
X236122299Y-114938781D01*
X236085989Y-115058479D01*
X236073729Y-115182961D01*
X236073729Y-116757761D01*
X236085989Y-116882243D01*
X236122299Y-117001941D01*
X236181264Y-117112255D01*
X236260616Y-117208946D01*
X236298895Y-117240361D01*
X236260616Y-117271776D01*
X236181264Y-117368467D01*
X236122299Y-117478781D01*
X236085989Y-117598479D01*
X236073729Y-117722961D01*
X236073729Y-119297761D01*
X236085989Y-119422243D01*
X236122299Y-119541941D01*
X236181264Y-119652255D01*
X236260616Y-119748946D01*
X236298895Y-119780361D01*
X236260616Y-119811776D01*
X236181264Y-119908467D01*
X236122299Y-120018781D01*
X236085989Y-120138479D01*
X236073729Y-120262961D01*
X236073729Y-121837761D01*
X236085989Y-121962243D01*
X236122299Y-122081941D01*
X236181264Y-122192255D01*
X236260616Y-122288946D01*
X236298895Y-122320361D01*
X236260616Y-122351776D01*
X236181264Y-122448467D01*
X236122299Y-122558781D01*
X236085989Y-122678479D01*
X236073729Y-122802961D01*
X236073729Y-124377761D01*
X236085989Y-124502243D01*
X236122299Y-124621941D01*
X236181264Y-124732255D01*
X236260616Y-124828946D01*
X236298895Y-124860361D01*
X236260616Y-124891776D01*
X236181264Y-124988467D01*
X236122299Y-125098781D01*
X236085989Y-125218479D01*
X236073729Y-125342961D01*
X236076801Y-125844611D01*
X236235551Y-126003361D01*
X237372201Y-126003361D01*
X237372201Y-125983361D01*
X237626201Y-125983361D01*
X237626201Y-126003361D01*
X238762851Y-126003361D01*
X238769201Y-125997011D01*
X238775551Y-126003361D01*
X239912201Y-126003361D01*
X239912201Y-125983361D01*
X240166201Y-125983361D01*
X240166201Y-126003361D01*
X241302851Y-126003361D01*
X241461601Y-125844611D01*
X241464673Y-125342961D01*
X241452413Y-125218479D01*
X241416103Y-125098781D01*
X241357138Y-124988467D01*
X241277786Y-124891776D01*
X241239507Y-124860361D01*
X241277786Y-124828946D01*
X241357138Y-124732255D01*
X241416103Y-124621941D01*
X241452413Y-124502243D01*
X241464673Y-124377761D01*
X241464673Y-122802961D01*
X241452413Y-122678479D01*
X241416103Y-122558781D01*
X241357138Y-122448467D01*
X241277786Y-122351776D01*
X241239507Y-122320361D01*
X241277786Y-122288946D01*
X241357138Y-122192255D01*
X241416103Y-122081941D01*
X241452413Y-121962243D01*
X241464673Y-121837761D01*
X241464673Y-120262961D01*
X241452413Y-120138479D01*
X241416103Y-120018781D01*
X241357138Y-119908467D01*
X241277786Y-119811776D01*
X241239507Y-119780361D01*
X241277786Y-119748946D01*
X241357138Y-119652255D01*
X241416103Y-119541941D01*
X241452413Y-119422243D01*
X241464673Y-119297761D01*
X241464673Y-117722961D01*
X241452413Y-117598479D01*
X241416103Y-117478781D01*
X241357138Y-117368467D01*
X241277786Y-117271776D01*
X241239507Y-117240361D01*
X241277786Y-117208946D01*
X241357138Y-117112255D01*
X241416103Y-117001941D01*
X241452413Y-116882243D01*
X241464673Y-116757761D01*
X241464673Y-115182961D01*
X241452413Y-115058479D01*
X241416103Y-114938781D01*
X241357138Y-114828467D01*
X241277786Y-114731776D01*
X241239507Y-114700361D01*
X241277786Y-114668946D01*
X241357138Y-114572255D01*
X241416103Y-114461941D01*
X241452413Y-114342243D01*
X241464673Y-114217761D01*
X241464673Y-112642961D01*
X241452413Y-112518479D01*
X241416103Y-112398781D01*
X241357138Y-112288467D01*
X241277786Y-112191776D01*
X241239507Y-112160361D01*
X241277786Y-112128946D01*
X241357138Y-112032255D01*
X241416103Y-111921941D01*
X241452413Y-111802243D01*
X241464673Y-111677761D01*
X241464673Y-110102961D01*
X241452413Y-109978479D01*
X241416103Y-109858781D01*
X241357138Y-109748467D01*
X241277786Y-109651776D01*
X241181095Y-109572424D01*
X241070781Y-109513459D01*
X240951083Y-109477149D01*
X240826601Y-109464889D01*
X239251801Y-109464889D01*
X239127319Y-109477149D01*
X239007621Y-109513459D01*
X238897307Y-109572424D01*
X238800616Y-109651776D01*
X238769201Y-109690055D01*
X238737786Y-109651776D01*
X238641095Y-109572424D01*
X238530781Y-109513459D01*
X238411083Y-109477149D01*
X238286601Y-109464889D01*
X236711801Y-109464889D01*
X236587319Y-109477149D01*
X236467621Y-109513459D01*
X236357307Y-109572424D01*
X236260616Y-109651776D01*
X236181264Y-109748467D01*
X236122299Y-109858781D01*
X236085989Y-109978479D01*
X236073729Y-110102961D01*
X209152855Y-110102961D01*
X209099138Y-110002467D01*
X209019786Y-109905776D01*
X208923095Y-109826424D01*
X208812781Y-109767459D01*
X208693083Y-109731149D01*
X208568601Y-109718889D01*
X206993801Y-109718889D01*
X206869319Y-109731149D01*
X206749621Y-109767459D01*
X206639307Y-109826424D01*
X206542616Y-109905776D01*
X206511201Y-109944055D01*
X206479786Y-109905776D01*
X206383095Y-109826424D01*
X206272781Y-109767459D01*
X206153083Y-109731149D01*
X206028601Y-109718889D01*
X204453801Y-109718889D01*
X204329319Y-109731149D01*
X204209621Y-109767459D01*
X204099307Y-109826424D01*
X204002616Y-109905776D01*
X203923264Y-110002467D01*
X203864299Y-110112781D01*
X203827989Y-110232479D01*
X203815729Y-110356961D01*
X203815729Y-111931761D01*
X203827989Y-112056243D01*
X203864299Y-112175941D01*
X203923264Y-112286255D01*
X204002616Y-112382946D01*
X204040895Y-112414361D01*
X204002616Y-112445776D01*
X203923264Y-112542467D01*
X203864299Y-112652781D01*
X203827989Y-112772479D01*
X203815729Y-112896961D01*
X203815729Y-114471761D01*
X203827989Y-114596243D01*
X203864299Y-114715941D01*
X203923264Y-114826255D01*
X204002616Y-114922946D01*
X204040895Y-114954361D01*
X204002616Y-114985776D01*
X203923264Y-115082467D01*
X203864299Y-115192781D01*
X203827989Y-115312479D01*
X203815729Y-115436961D01*
X203815729Y-117011761D01*
X203827989Y-117136243D01*
X203864299Y-117255941D01*
X203923264Y-117366255D01*
X204002616Y-117462946D01*
X204040895Y-117494361D01*
X204002616Y-117525776D01*
X203923264Y-117622467D01*
X203864299Y-117732781D01*
X203843035Y-117802878D01*
X203690256Y-117700795D01*
X203501898Y-117622774D01*
X203301939Y-117583000D01*
X203226737Y-117583000D01*
X203170962Y-117515038D01*
X203036386Y-117404595D01*
X202882850Y-117322528D01*
X202716254Y-117271992D01*
X202543000Y-117254928D01*
X201868000Y-117254928D01*
X201694746Y-117271992D01*
X201528150Y-117322528D01*
X201374614Y-117404595D01*
X201240038Y-117515038D01*
X201129595Y-117649614D01*
X201047528Y-117803150D01*
X200996992Y-117969746D01*
X200979928Y-118143000D01*
X197203082Y-118143000D01*
X197378759Y-104194311D01*
X198227119Y-104194311D01*
X198227119Y-107294331D01*
X198239379Y-107418813D01*
X198275689Y-107538511D01*
X198334654Y-107648825D01*
X198414006Y-107745516D01*
X198510697Y-107824868D01*
X198621011Y-107883833D01*
X198740709Y-107920143D01*
X198865191Y-107932403D01*
X201965211Y-107932403D01*
X202089693Y-107920143D01*
X202209391Y-107883833D01*
X202319705Y-107824868D01*
X202416396Y-107745516D01*
X202495748Y-107648825D01*
X202554713Y-107538511D01*
X202591023Y-107418813D01*
X202603283Y-107294331D01*
X202603283Y-104194311D01*
X202591023Y-104069829D01*
X202554713Y-103950131D01*
X202495748Y-103839817D01*
X202416396Y-103743126D01*
X202416000Y-103742801D01*
X209111169Y-103742801D01*
X209111169Y-105317601D01*
X209123429Y-105442083D01*
X209159739Y-105561781D01*
X209218704Y-105672095D01*
X209298056Y-105768786D01*
X209336335Y-105800201D01*
X209298056Y-105831616D01*
X209218704Y-105928307D01*
X209159739Y-106038621D01*
X209123429Y-106158319D01*
X209111169Y-106282801D01*
X209111169Y-107857601D01*
X209123429Y-107982083D01*
X209159739Y-108101781D01*
X209218704Y-108212095D01*
X209298056Y-108308786D01*
X209394747Y-108388138D01*
X209505061Y-108447103D01*
X209624759Y-108483413D01*
X209749241Y-108495673D01*
X211324041Y-108495673D01*
X211448523Y-108483413D01*
X211568221Y-108447103D01*
X211678535Y-108388138D01*
X211775226Y-108308786D01*
X211806641Y-108270507D01*
X211838056Y-108308786D01*
X211934747Y-108388138D01*
X212045061Y-108447103D01*
X212164759Y-108483413D01*
X212289241Y-108495673D01*
X213864041Y-108495673D01*
X213988523Y-108483413D01*
X214108221Y-108447103D01*
X214218535Y-108388138D01*
X214315226Y-108308786D01*
X214346641Y-108270507D01*
X214378056Y-108308786D01*
X214474747Y-108388138D01*
X214585061Y-108447103D01*
X214704759Y-108483413D01*
X214829241Y-108495673D01*
X216404041Y-108495673D01*
X216528523Y-108483413D01*
X216648221Y-108447103D01*
X216758535Y-108388138D01*
X216855226Y-108308786D01*
X216886641Y-108270507D01*
X216918056Y-108308786D01*
X217014747Y-108388138D01*
X217125061Y-108447103D01*
X217244759Y-108483413D01*
X217369241Y-108495673D01*
X218944041Y-108495673D01*
X219068523Y-108483413D01*
X219188221Y-108447103D01*
X219298535Y-108388138D01*
X219395226Y-108308786D01*
X219426641Y-108270507D01*
X219458056Y-108308786D01*
X219554747Y-108388138D01*
X219665061Y-108447103D01*
X219784759Y-108483413D01*
X219909241Y-108495673D01*
X221484041Y-108495673D01*
X221608523Y-108483413D01*
X221728221Y-108447103D01*
X221838535Y-108388138D01*
X221935226Y-108308786D01*
X221966641Y-108270507D01*
X221998056Y-108308786D01*
X222094747Y-108388138D01*
X222205061Y-108447103D01*
X222324759Y-108483413D01*
X222449241Y-108495673D01*
X224024041Y-108495673D01*
X224148523Y-108483413D01*
X224268221Y-108447103D01*
X224378535Y-108388138D01*
X224475226Y-108308786D01*
X224506641Y-108270507D01*
X224538056Y-108308786D01*
X224634747Y-108388138D01*
X224745061Y-108447103D01*
X224864759Y-108483413D01*
X224989241Y-108495673D01*
X226564041Y-108495673D01*
X226688523Y-108483413D01*
X226808221Y-108447103D01*
X226918535Y-108388138D01*
X227015226Y-108308786D01*
X227046641Y-108270507D01*
X227078056Y-108308786D01*
X227174747Y-108388138D01*
X227285061Y-108447103D01*
X227404759Y-108483413D01*
X227529241Y-108495673D01*
X229104041Y-108495673D01*
X229228523Y-108483413D01*
X229348221Y-108447103D01*
X229458535Y-108388138D01*
X229555226Y-108308786D01*
X229586641Y-108270507D01*
X229618056Y-108308786D01*
X229714747Y-108388138D01*
X229825061Y-108447103D01*
X229944759Y-108483413D01*
X230069241Y-108495673D01*
X231644041Y-108495673D01*
X231768523Y-108483413D01*
X231888221Y-108447103D01*
X231998535Y-108388138D01*
X232095226Y-108308786D01*
X232126641Y-108270507D01*
X232158056Y-108308786D01*
X232254747Y-108388138D01*
X232365061Y-108447103D01*
X232484759Y-108483413D01*
X232609241Y-108495673D01*
X234184041Y-108495673D01*
X234308523Y-108483413D01*
X234428221Y-108447103D01*
X234538535Y-108388138D01*
X234635226Y-108308786D01*
X234714578Y-108212095D01*
X234773543Y-108101781D01*
X234809853Y-107982083D01*
X234822113Y-107857601D01*
X234822113Y-106282801D01*
X234809853Y-106158319D01*
X234773543Y-106038621D01*
X234714578Y-105928307D01*
X234635226Y-105831616D01*
X234596947Y-105800201D01*
X234635226Y-105768786D01*
X234714578Y-105672095D01*
X234773543Y-105561781D01*
X234809853Y-105442083D01*
X234822113Y-105317601D01*
X234822113Y-103742801D01*
X234809853Y-103618319D01*
X234773543Y-103498621D01*
X234714578Y-103388307D01*
X234635226Y-103291616D01*
X234538535Y-103212264D01*
X234428221Y-103153299D01*
X234308523Y-103116989D01*
X234184041Y-103104729D01*
X232609241Y-103104729D01*
X232484759Y-103116989D01*
X232365061Y-103153299D01*
X232254747Y-103212264D01*
X232158056Y-103291616D01*
X232126641Y-103329895D01*
X232095226Y-103291616D01*
X231998535Y-103212264D01*
X231888221Y-103153299D01*
X231768523Y-103116989D01*
X231644041Y-103104729D01*
X230069241Y-103104729D01*
X229944759Y-103116989D01*
X229825061Y-103153299D01*
X229714747Y-103212264D01*
X229618056Y-103291616D01*
X229586641Y-103329895D01*
X229555226Y-103291616D01*
X229458535Y-103212264D01*
X229348221Y-103153299D01*
X229228523Y-103116989D01*
X229104041Y-103104729D01*
X227529241Y-103104729D01*
X227404759Y-103116989D01*
X227285061Y-103153299D01*
X227174747Y-103212264D01*
X227078056Y-103291616D01*
X227046641Y-103329895D01*
X227015226Y-103291616D01*
X226918535Y-103212264D01*
X226808221Y-103153299D01*
X226688523Y-103116989D01*
X226564041Y-103104729D01*
X224989241Y-103104729D01*
X224864759Y-103116989D01*
X224745061Y-103153299D01*
X224634747Y-103212264D01*
X224538056Y-103291616D01*
X224506641Y-103329895D01*
X224475226Y-103291616D01*
X224378535Y-103212264D01*
X224268221Y-103153299D01*
X224148523Y-103116989D01*
X224024041Y-103104729D01*
X222449241Y-103104729D01*
X222324759Y-103116989D01*
X222205061Y-103153299D01*
X222094747Y-103212264D01*
X221998056Y-103291616D01*
X221966641Y-103329895D01*
X221935226Y-103291616D01*
X221838535Y-103212264D01*
X221728221Y-103153299D01*
X221608523Y-103116989D01*
X221484041Y-103104729D01*
X219909241Y-103104729D01*
X219784759Y-103116989D01*
X219665061Y-103153299D01*
X219554747Y-103212264D01*
X219458056Y-103291616D01*
X219426641Y-103329895D01*
X219395226Y-103291616D01*
X219298535Y-103212264D01*
X219188221Y-103153299D01*
X219068523Y-103116989D01*
X218944041Y-103104729D01*
X217369241Y-103104729D01*
X217244759Y-103116989D01*
X217125061Y-103153299D01*
X217014747Y-103212264D01*
X216918056Y-103291616D01*
X216886641Y-103329895D01*
X216855226Y-103291616D01*
X216758535Y-103212264D01*
X216648221Y-103153299D01*
X216528523Y-103116989D01*
X216404041Y-103104729D01*
X214829241Y-103104729D01*
X214704759Y-103116989D01*
X214585061Y-103153299D01*
X214474747Y-103212264D01*
X214378056Y-103291616D01*
X214346641Y-103329895D01*
X214315226Y-103291616D01*
X214218535Y-103212264D01*
X214108221Y-103153299D01*
X213988523Y-103116989D01*
X213864041Y-103104729D01*
X212289241Y-103104729D01*
X212164759Y-103116989D01*
X212045061Y-103153299D01*
X211934747Y-103212264D01*
X211838056Y-103291616D01*
X211806641Y-103329895D01*
X211775226Y-103291616D01*
X211678535Y-103212264D01*
X211568221Y-103153299D01*
X211448523Y-103116989D01*
X211324041Y-103104729D01*
X209749241Y-103104729D01*
X209624759Y-103116989D01*
X209505061Y-103153299D01*
X209394747Y-103212264D01*
X209298056Y-103291616D01*
X209218704Y-103388307D01*
X209159739Y-103498621D01*
X209123429Y-103618319D01*
X209111169Y-103742801D01*
X202416000Y-103742801D01*
X202319705Y-103663774D01*
X202209391Y-103604809D01*
X202089693Y-103568499D01*
X201965211Y-103556239D01*
X198865191Y-103556239D01*
X198740709Y-103568499D01*
X198621011Y-103604809D01*
X198510697Y-103663774D01*
X198414006Y-103743126D01*
X198334654Y-103839817D01*
X198275689Y-103950131D01*
X198239379Y-104069829D01*
X198227119Y-104194311D01*
X197378759Y-104194311D01*
X197443184Y-99079000D01*
X203212579Y-99079000D01*
X203290940Y-99120885D01*
X203509600Y-99187215D01*
X203680021Y-99204000D01*
X204243979Y-99204000D01*
X204414400Y-99187215D01*
X204633060Y-99120885D01*
X204834579Y-99013171D01*
X205011212Y-98868212D01*
X205156171Y-98691579D01*
X205263885Y-98490060D01*
X205330215Y-98271400D01*
X205352612Y-98044000D01*
X205330215Y-97816600D01*
X205263885Y-97597940D01*
X205162895Y-97409000D01*
X205263885Y-97220060D01*
X205330215Y-97001400D01*
X205352612Y-96774000D01*
X205330215Y-96546600D01*
X205266907Y-96337902D01*
X205301502Y-96273180D01*
X205337812Y-96153482D01*
X205350072Y-96029000D01*
X205347000Y-95789750D01*
X205188250Y-95631000D01*
X204415109Y-95631000D01*
X204414400Y-95630785D01*
X204243979Y-95614000D01*
X203680021Y-95614000D01*
X203509600Y-95630785D01*
X203508891Y-95631000D01*
X202735750Y-95631000D01*
X202577000Y-95789750D01*
X202573928Y-96029000D01*
X202586188Y-96153482D01*
X202622498Y-96273180D01*
X202657093Y-96337902D01*
X202593785Y-96546600D01*
X202571388Y-96774000D01*
X202593785Y-97001400D01*
X202596090Y-97009000D01*
X197469254Y-97009000D01*
X197484990Y-95759599D01*
X197485000Y-95758000D01*
X197485000Y-94979000D01*
X202573928Y-94979000D01*
X202577000Y-95218250D01*
X202735750Y-95377000D01*
X203835000Y-95377000D01*
X203835000Y-94502750D01*
X204089000Y-94502750D01*
X204089000Y-95377000D01*
X205188250Y-95377000D01*
X205347000Y-95218250D01*
X205350072Y-94979000D01*
X205337812Y-94854518D01*
X205301502Y-94734820D01*
X205242537Y-94624506D01*
X205163185Y-94527815D01*
X205066494Y-94448463D01*
X204956180Y-94389498D01*
X204836482Y-94353188D01*
X204712000Y-94340928D01*
X204247750Y-94344000D01*
X204089000Y-94502750D01*
X203835000Y-94502750D01*
X203676250Y-94344000D01*
X203212000Y-94340928D01*
X203087518Y-94353188D01*
X202967820Y-94389498D01*
X202857506Y-94448463D01*
X202760815Y-94527815D01*
X202681463Y-94624506D01*
X202622498Y-94734820D01*
X202586188Y-94854518D01*
X202573928Y-94979000D01*
X197485000Y-94979000D01*
X197485000Y-93878000D01*
X229046117Y-93878000D01*
X228956226Y-93938063D01*
%TA.AperFunction,Conductor*%
D25*
G36*
X228956226Y-93938063D02*
G01*
X228812063Y-94082226D01*
X228698795Y-94251744D01*
X228620774Y-94440102D01*
X228609465Y-94496956D01*
X228258951Y-94847471D01*
X228225184Y-94875183D01*
X228197471Y-94908951D01*
X228197468Y-94908954D01*
X228114590Y-95009941D01*
X228032412Y-95163687D01*
X227981805Y-95330510D01*
X227964719Y-95504000D01*
X227969001Y-95547479D01*
X227969000Y-97759545D01*
X227936795Y-97807744D01*
X227858774Y-97996102D01*
X227819000Y-98196061D01*
X227819000Y-98399939D01*
X227858774Y-98599898D01*
X227936795Y-98788256D01*
X228050063Y-98957774D01*
X228194226Y-99101937D01*
X228363744Y-99215205D01*
X228552102Y-99293226D01*
X228752061Y-99333000D01*
X228955939Y-99333000D01*
X229155898Y-99293226D01*
X229344256Y-99215205D01*
X229513774Y-99101937D01*
X229657937Y-98957774D01*
X229771205Y-98788256D01*
X229849226Y-98599898D01*
X229889000Y-98399939D01*
X229889000Y-98196061D01*
X229849226Y-97996102D01*
X229771205Y-97807744D01*
X229739000Y-97759546D01*
X229739000Y-95870578D01*
X229861044Y-95748535D01*
X229917898Y-95737226D01*
X230106256Y-95659205D01*
X230275774Y-95545937D01*
X230419937Y-95401774D01*
X230533205Y-95232256D01*
X230611226Y-95043898D01*
X230651000Y-94843939D01*
X230651000Y-94640061D01*
X230611226Y-94440102D01*
X230533205Y-94251744D01*
X230419937Y-94082226D01*
X230275774Y-93938063D01*
X230185883Y-93878000D01*
X248514000Y-93878000D01*
X248514001Y-145390000D01*
X219028556Y-145390000D01*
X219209502Y-145241502D01*
X219363833Y-145053449D01*
X219478511Y-144838901D01*
X219549130Y-144606102D01*
X219567000Y-144424665D01*
X219567000Y-143103335D01*
X219549130Y-142921898D01*
X219478511Y-142689099D01*
X219363833Y-142474551D01*
X219209502Y-142286498D01*
X219021449Y-142132167D01*
X218806901Y-142017489D01*
X218574102Y-141946870D01*
X218332000Y-141923025D01*
X218089899Y-141946870D01*
X217857100Y-142017489D01*
X217642552Y-142132167D01*
X217454499Y-142286498D01*
X217300168Y-142474551D01*
X217185489Y-142689099D01*
X217114870Y-142921898D01*
X217097000Y-143103335D01*
X217097000Y-144424664D01*
X217114870Y-144606101D01*
X217185489Y-144838900D01*
X217300167Y-145053448D01*
X217454498Y-145241502D01*
X217635443Y-145390000D01*
X205528556Y-145390000D01*
X205709502Y-145241502D01*
X205863833Y-145053449D01*
X205978511Y-144838901D01*
X206049130Y-144606102D01*
X206067000Y-144424665D01*
X206067000Y-143103335D01*
X206049130Y-142921898D01*
X205978511Y-142689099D01*
X205863833Y-142474551D01*
X205709502Y-142286498D01*
X205521449Y-142132167D01*
X205306901Y-142017489D01*
X205074102Y-141946870D01*
X204993611Y-141938942D01*
X205605662Y-141326891D01*
X233000519Y-141326891D01*
X233097843Y-141601252D01*
X233246822Y-141851355D01*
X233441731Y-142067588D01*
X233675080Y-142241641D01*
X233937901Y-142366825D01*
X234085110Y-142411476D01*
X234315000Y-142290155D01*
X234315000Y-141097000D01*
X234569000Y-141097000D01*
X234569000Y-142290155D01*
X234798890Y-142411476D01*
X234946099Y-142366825D01*
X235208920Y-142241641D01*
X235442269Y-142067588D01*
X235637178Y-141851355D01*
X235712000Y-141725745D01*
X235786822Y-141851355D01*
X235981731Y-142067588D01*
X236215080Y-142241641D01*
X236477901Y-142366825D01*
X236625110Y-142411476D01*
X236855000Y-142290155D01*
X236855000Y-141097000D01*
X234569000Y-141097000D01*
X234315000Y-141097000D01*
X233121186Y-141097000D01*
X233000519Y-141326891D01*
X205605662Y-141326891D01*
X206319444Y-140613109D01*
X233000519Y-140613109D01*
X233121186Y-140843000D01*
X234315000Y-140843000D01*
X234315000Y-139649845D01*
X234569000Y-139649845D01*
X234569000Y-140843000D01*
X236855000Y-140843000D01*
X236855000Y-139649845D01*
X237109000Y-139649845D01*
X237109000Y-140843000D01*
X237129000Y-140843000D01*
X237129000Y-141097000D01*
X237109000Y-141097000D01*
X237109000Y-142290155D01*
X237338890Y-142411476D01*
X237486099Y-142366825D01*
X237748920Y-142241641D01*
X237982269Y-142067588D01*
X238177178Y-141851355D01*
X238246805Y-141734466D01*
X238368525Y-141916632D01*
X238575368Y-142123475D01*
X238818589Y-142285990D01*
X239088842Y-142397932D01*
X239375740Y-142455000D01*
X239668260Y-142455000D01*
X239955158Y-142397932D01*
X240225411Y-142285990D01*
X240468632Y-142123475D01*
X240600487Y-141991620D01*
X240622498Y-142064180D01*
X240681463Y-142174494D01*
X240760815Y-142271185D01*
X240857506Y-142350537D01*
X240967820Y-142409502D01*
X241087518Y-142445812D01*
X241212000Y-142458072D01*
X242912000Y-142458072D01*
X243036482Y-142445812D01*
X243156180Y-142409502D01*
X243266494Y-142350537D01*
X243363185Y-142271185D01*
X243442537Y-142174494D01*
X243501502Y-142064180D01*
X243537812Y-141944482D01*
X243550072Y-141820000D01*
X243550072Y-140120000D01*
X243537812Y-139995518D01*
X243501502Y-139875820D01*
X243442537Y-139765506D01*
X243363185Y-139668815D01*
X243266494Y-139589463D01*
X243156180Y-139530498D01*
X243036482Y-139494188D01*
X242912000Y-139481928D01*
X241212000Y-139481928D01*
X241087518Y-139494188D01*
X240967820Y-139530498D01*
X240857506Y-139589463D01*
X240760815Y-139668815D01*
X240681463Y-139765506D01*
X240622498Y-139875820D01*
X240600487Y-139948380D01*
X240468632Y-139816525D01*
X240225411Y-139654010D01*
X239955158Y-139542068D01*
X239668260Y-139485000D01*
X239375740Y-139485000D01*
X239088842Y-139542068D01*
X238818589Y-139654010D01*
X238575368Y-139816525D01*
X238368525Y-140023368D01*
X238246805Y-140205534D01*
X238177178Y-140088645D01*
X237982269Y-139872412D01*
X237748920Y-139698359D01*
X237486099Y-139573175D01*
X237338890Y-139528524D01*
X237109000Y-139649845D01*
X236855000Y-139649845D01*
X236625110Y-139528524D01*
X236477901Y-139573175D01*
X236215080Y-139698359D01*
X235981731Y-139872412D01*
X235786822Y-140088645D01*
X235712000Y-140214255D01*
X235637178Y-140088645D01*
X235442269Y-139872412D01*
X235208920Y-139698359D01*
X234946099Y-139573175D01*
X234798890Y-139528524D01*
X234569000Y-139649845D01*
X234315000Y-139649845D01*
X234085110Y-139528524D01*
X233937901Y-139573175D01*
X233675080Y-139698359D01*
X233441731Y-139872412D01*
X233246822Y-140088645D01*
X233097843Y-140338748D01*
X233000519Y-140613109D01*
X206319444Y-140613109D01*
X206912960Y-140019593D01*
X207254819Y-140161196D01*
X207736461Y-140257000D01*
X208227539Y-140257000D01*
X208709181Y-140161196D01*
X209162879Y-139973268D01*
X209571195Y-139700440D01*
X209918440Y-139353195D01*
X210191268Y-138944879D01*
X210379196Y-138491181D01*
X210475000Y-138009539D01*
X210475000Y-137518461D01*
X210379196Y-137036819D01*
X210191268Y-136583121D01*
X209918440Y-136174805D01*
X209649635Y-135906000D01*
X212685928Y-135906000D01*
X212685928Y-139622000D01*
X212698188Y-139746482D01*
X212734498Y-139866180D01*
X212793463Y-139976494D01*
X212872815Y-140073185D01*
X212969506Y-140152537D01*
X213079820Y-140211502D01*
X213199518Y-140247812D01*
X213324000Y-140260072D01*
X217040000Y-140260072D01*
X217164482Y-140247812D01*
X217284180Y-140211502D01*
X217394494Y-140152537D01*
X217491185Y-140073185D01*
X217570537Y-139976494D01*
X217629502Y-139866180D01*
X217665812Y-139746482D01*
X217678072Y-139622000D01*
X217678072Y-135906000D01*
X217665812Y-135781518D01*
X217629502Y-135661820D01*
X217570537Y-135551506D01*
X217491185Y-135454815D01*
X217394494Y-135375463D01*
X217284180Y-135316498D01*
X217277235Y-135314391D01*
X243947119Y-135314391D01*
X243947119Y-138414411D01*
X243959379Y-138538893D01*
X243995689Y-138658591D01*
X244054654Y-138768905D01*
X244134006Y-138865596D01*
X244230697Y-138944948D01*
X244341011Y-139003913D01*
X244460709Y-139040223D01*
X244585191Y-139052483D01*
X247685211Y-139052483D01*
X247809693Y-139040223D01*
X247929391Y-139003913D01*
X248039705Y-138944948D01*
X248136396Y-138865596D01*
X248215748Y-138768905D01*
X248274713Y-138658591D01*
X248311023Y-138538893D01*
X248323283Y-138414411D01*
X248323283Y-135314391D01*
X248311023Y-135189909D01*
X248274713Y-135070211D01*
X248215748Y-134959897D01*
X248136396Y-134863206D01*
X248039705Y-134783854D01*
X247929391Y-134724889D01*
X247809693Y-134688579D01*
X247685211Y-134676319D01*
X244585191Y-134676319D01*
X244460709Y-134688579D01*
X244341011Y-134724889D01*
X244230697Y-134783854D01*
X244134006Y-134863206D01*
X244054654Y-134959897D01*
X243995689Y-135070211D01*
X243959379Y-135189909D01*
X243947119Y-135314391D01*
X217277235Y-135314391D01*
X217164482Y-135280188D01*
X217040000Y-135267928D01*
X213324000Y-135267928D01*
X213199518Y-135280188D01*
X213079820Y-135316498D01*
X212969506Y-135375463D01*
X212872815Y-135454815D01*
X212793463Y-135551506D01*
X212734498Y-135661820D01*
X212698188Y-135781518D01*
X212685928Y-135906000D01*
X209649635Y-135906000D01*
X209571195Y-135827560D01*
X209162879Y-135554732D01*
X208709181Y-135366804D01*
X208227539Y-135271000D01*
X207736461Y-135271000D01*
X207254819Y-135366804D01*
X206801121Y-135554732D01*
X206392805Y-135827560D01*
X206045560Y-136174805D01*
X205772732Y-136583121D01*
X205584804Y-137036819D01*
X205489000Y-137518461D01*
X205489000Y-137950446D01*
X200402447Y-143037000D01*
X199828363Y-143037000D01*
X199768562Y-143048895D01*
X199707898Y-143054870D01*
X199649567Y-143072564D01*
X199589764Y-143084460D01*
X199533429Y-143107795D01*
X199475099Y-143125489D01*
X199421342Y-143154223D01*
X199365008Y-143177557D01*
X199314311Y-143211432D01*
X199260551Y-143240167D01*
X199213429Y-143278839D01*
X199162733Y-143312713D01*
X199119620Y-143355826D01*
X199072498Y-143394498D01*
X199033826Y-143441620D01*
X198990713Y-143484733D01*
X198956839Y-143535429D01*
X198918167Y-143582551D01*
X198889432Y-143636311D01*
X198855557Y-143687008D01*
X198832223Y-143743342D01*
X198803489Y-143797099D01*
X198785795Y-143855429D01*
X198762460Y-143911764D01*
X198750564Y-143971567D01*
X198732870Y-144029898D01*
X198726895Y-144090562D01*
X198715000Y-144150363D01*
X198715000Y-144211335D01*
X198709025Y-144272000D01*
X198715000Y-144332665D01*
X198715000Y-144393637D01*
X198726895Y-144453438D01*
X198732870Y-144514102D01*
X198750564Y-144572433D01*
X198762460Y-144632236D01*
X198785795Y-144688571D01*
X198803489Y-144746901D01*
X198832223Y-144800658D01*
X198855557Y-144856992D01*
X198889432Y-144907689D01*
X198918167Y-144961449D01*
X198956839Y-145008571D01*
X198990713Y-145059267D01*
X199033826Y-145102380D01*
X199072498Y-145149502D01*
X199119619Y-145188173D01*
X199162733Y-145231287D01*
X199213429Y-145265161D01*
X199260551Y-145303833D01*
X199314311Y-145332568D01*
X199365008Y-145366443D01*
X199421342Y-145389777D01*
X199421759Y-145390000D01*
X196859922Y-145390000D01*
X196986818Y-135314391D01*
X198227119Y-135314391D01*
X198227119Y-138414411D01*
X198239379Y-138538893D01*
X198275689Y-138658591D01*
X198334654Y-138768905D01*
X198414006Y-138865596D01*
X198510697Y-138944948D01*
X198621011Y-139003913D01*
X198740709Y-139040223D01*
X198865191Y-139052483D01*
X201965211Y-139052483D01*
X202089693Y-139040223D01*
X202209391Y-139003913D01*
X202319705Y-138944948D01*
X202416396Y-138865596D01*
X202495748Y-138768905D01*
X202554713Y-138658591D01*
X202591023Y-138538893D01*
X202603283Y-138414411D01*
X202603283Y-135314391D01*
X202591023Y-135189909D01*
X202554713Y-135070211D01*
X202495748Y-134959897D01*
X202416396Y-134863206D01*
X202319705Y-134783854D01*
X202209391Y-134724889D01*
X202089693Y-134688579D01*
X201965211Y-134676319D01*
X198865191Y-134676319D01*
X198740709Y-134688579D01*
X198621011Y-134724889D01*
X198510697Y-134783854D01*
X198414006Y-134863206D01*
X198334654Y-134959897D01*
X198275689Y-135070211D01*
X198239379Y-135189909D01*
X198227119Y-135314391D01*
X196986818Y-135314391D01*
X197203082Y-118143000D01*
X200979928Y-118143000D01*
X200979928Y-119093000D01*
X200996992Y-119266254D01*
X201047528Y-119432850D01*
X201129595Y-119586386D01*
X201240038Y-119720962D01*
X201374614Y-119831405D01*
X201528150Y-119913472D01*
X201694746Y-119964008D01*
X201868000Y-119981072D01*
X202543000Y-119981072D01*
X202716254Y-119964008D01*
X202882850Y-119913472D01*
X203036386Y-119831405D01*
X203170962Y-119720962D01*
X203226737Y-119653000D01*
X203301939Y-119653000D01*
X203501898Y-119613226D01*
X203690256Y-119535205D01*
X203815729Y-119451367D01*
X203815729Y-119551761D01*
X203827989Y-119676243D01*
X203864299Y-119795941D01*
X203923264Y-119906255D01*
X204002616Y-120002946D01*
X204040895Y-120034361D01*
X204002616Y-120065776D01*
X203923264Y-120162467D01*
X203864299Y-120272781D01*
X203827989Y-120392479D01*
X203815729Y-120516961D01*
X203815729Y-122091761D01*
X203827989Y-122216243D01*
X203864299Y-122335941D01*
X203923264Y-122446255D01*
X204002616Y-122542946D01*
X204040895Y-122574361D01*
X204002616Y-122605776D01*
X203923264Y-122702467D01*
X203864299Y-122812781D01*
X203827989Y-122932479D01*
X203815729Y-123056961D01*
X203815729Y-124631761D01*
X203827989Y-124756243D01*
X203864299Y-124875941D01*
X203923264Y-124986255D01*
X204002616Y-125082946D01*
X204040895Y-125114361D01*
X204002616Y-125145776D01*
X203923264Y-125242467D01*
X203864299Y-125352781D01*
X203827989Y-125472479D01*
X203815729Y-125596961D01*
X203815729Y-127171761D01*
X203827989Y-127296243D01*
X203864299Y-127415941D01*
X203923264Y-127526255D01*
X204002616Y-127622946D01*
X204040895Y-127654361D01*
X204002616Y-127685776D01*
X203923264Y-127782467D01*
X203864299Y-127892781D01*
X203827989Y-128012479D01*
X203815729Y-128136961D01*
X203815729Y-129711761D01*
X203827989Y-129836243D01*
X203864299Y-129955941D01*
X203923264Y-130066255D01*
X204002616Y-130162946D01*
X204040895Y-130194361D01*
X204002616Y-130225776D01*
X203923264Y-130322467D01*
X203864299Y-130432781D01*
X203827989Y-130552479D01*
X203815729Y-130676961D01*
X203815729Y-132251761D01*
X203827989Y-132376243D01*
X203864299Y-132495941D01*
X203923264Y-132606255D01*
X204002616Y-132702946D01*
X204099307Y-132782298D01*
X204209621Y-132841263D01*
X204329319Y-132877573D01*
X204453801Y-132889833D01*
X206028601Y-132889833D01*
X206153083Y-132877573D01*
X206272781Y-132841263D01*
X206383095Y-132782298D01*
X206479786Y-132702946D01*
X206511201Y-132664667D01*
X206542616Y-132702946D01*
X206639307Y-132782298D01*
X206749621Y-132841263D01*
X206869319Y-132877573D01*
X206993801Y-132889833D01*
X208568601Y-132889833D01*
X208693083Y-132877573D01*
X208812781Y-132841263D01*
X208923095Y-132782298D01*
X209019786Y-132702946D01*
X209099138Y-132606255D01*
X209158103Y-132495941D01*
X209194413Y-132376243D01*
X209206673Y-132251761D01*
X209206673Y-130676961D01*
X209194413Y-130552479D01*
X209158103Y-130432781D01*
X209099138Y-130322467D01*
X209019786Y-130225776D01*
X208981507Y-130194361D01*
X209019786Y-130162946D01*
X209099138Y-130066255D01*
X209158103Y-129955941D01*
X209194413Y-129836243D01*
X209206673Y-129711761D01*
X209206673Y-128136961D01*
X209194413Y-128012479D01*
X209158103Y-127892781D01*
X209099138Y-127782467D01*
X209019786Y-127685776D01*
X208981507Y-127654361D01*
X209019786Y-127622946D01*
X209099138Y-127526255D01*
X209158103Y-127415941D01*
X209194413Y-127296243D01*
X209206673Y-127171761D01*
X209206673Y-126917761D01*
X236073729Y-126917761D01*
X236085989Y-127042243D01*
X236122299Y-127161941D01*
X236181264Y-127272255D01*
X236260616Y-127368946D01*
X236298895Y-127400361D01*
X236260616Y-127431776D01*
X236181264Y-127528467D01*
X236122299Y-127638781D01*
X236085989Y-127758479D01*
X236073729Y-127882961D01*
X236073729Y-129457761D01*
X236085989Y-129582243D01*
X236122299Y-129701941D01*
X236181264Y-129812255D01*
X236260616Y-129908946D01*
X236298895Y-129940361D01*
X236260616Y-129971776D01*
X236181264Y-130068467D01*
X236122299Y-130178781D01*
X236085989Y-130298479D01*
X236073729Y-130422961D01*
X236073729Y-131997761D01*
X236085989Y-132122243D01*
X236122299Y-132241941D01*
X236181264Y-132352255D01*
X236260616Y-132448946D01*
X236357307Y-132528298D01*
X236467621Y-132587263D01*
X236587319Y-132623573D01*
X236711801Y-132635833D01*
X238286601Y-132635833D01*
X238411083Y-132623573D01*
X238530781Y-132587263D01*
X238641095Y-132528298D01*
X238737786Y-132448946D01*
X238769201Y-132410667D01*
X238800616Y-132448946D01*
X238897307Y-132528298D01*
X239007621Y-132587263D01*
X239127319Y-132623573D01*
X239251801Y-132635833D01*
X240826601Y-132635833D01*
X240951083Y-132623573D01*
X241070781Y-132587263D01*
X241181095Y-132528298D01*
X241277786Y-132448946D01*
X241357138Y-132352255D01*
X241416103Y-132241941D01*
X241452413Y-132122243D01*
X241464673Y-131997761D01*
X241464673Y-130422961D01*
X241452413Y-130298479D01*
X241416103Y-130178781D01*
X241357138Y-130068467D01*
X241277786Y-129971776D01*
X241239507Y-129940361D01*
X241277786Y-129908946D01*
X241357138Y-129812255D01*
X241416103Y-129701941D01*
X241452413Y-129582243D01*
X241464673Y-129457761D01*
X241464673Y-127882961D01*
X241452413Y-127758479D01*
X241416103Y-127638781D01*
X241357138Y-127528467D01*
X241277786Y-127431776D01*
X241239507Y-127400361D01*
X241277786Y-127368946D01*
X241357138Y-127272255D01*
X241416103Y-127161941D01*
X241452413Y-127042243D01*
X241464673Y-126917761D01*
X241461601Y-126416111D01*
X241302851Y-126257361D01*
X240166201Y-126257361D01*
X240166201Y-126277361D01*
X239912201Y-126277361D01*
X239912201Y-126257361D01*
X238775551Y-126257361D01*
X238769201Y-126263711D01*
X238762851Y-126257361D01*
X237626201Y-126257361D01*
X237626201Y-126277361D01*
X237372201Y-126277361D01*
X237372201Y-126257361D01*
X236235551Y-126257361D01*
X236076801Y-126416111D01*
X236073729Y-126917761D01*
X209206673Y-126917761D01*
X209206673Y-125596961D01*
X209194413Y-125472479D01*
X209158103Y-125352781D01*
X209099138Y-125242467D01*
X209019786Y-125145776D01*
X208981507Y-125114361D01*
X209019786Y-125082946D01*
X209099138Y-124986255D01*
X209158103Y-124875941D01*
X209194413Y-124756243D01*
X209206673Y-124631761D01*
X209206673Y-123056961D01*
X209194413Y-122932479D01*
X209158103Y-122812781D01*
X209099138Y-122702467D01*
X209019786Y-122605776D01*
X208981507Y-122574361D01*
X209019786Y-122542946D01*
X209099138Y-122446255D01*
X209158103Y-122335941D01*
X209194413Y-122216243D01*
X209206673Y-122091761D01*
X209206673Y-120516961D01*
X209194413Y-120392479D01*
X209158103Y-120272781D01*
X209099138Y-120162467D01*
X209019786Y-120065776D01*
X208981507Y-120034361D01*
X209019786Y-120002946D01*
X209099138Y-119906255D01*
X209158103Y-119795941D01*
X209194413Y-119676243D01*
X209206673Y-119551761D01*
X209206673Y-118516061D01*
X210039000Y-118516061D01*
X210039000Y-118719939D01*
X210078774Y-118919898D01*
X210156795Y-119108256D01*
X210270063Y-119277774D01*
X210414226Y-119421937D01*
X210583744Y-119535205D01*
X210772102Y-119613226D01*
X210972061Y-119653000D01*
X211175939Y-119653000D01*
X211283676Y-119631570D01*
X211357038Y-119720962D01*
X211491614Y-119831405D01*
X211645150Y-119913472D01*
X211811746Y-119964008D01*
X211985000Y-119981072D01*
X212660000Y-119981072D01*
X212833254Y-119964008D01*
X212999850Y-119913472D01*
X213153386Y-119831405D01*
X213287962Y-119720962D01*
X213398405Y-119586386D01*
X213480472Y-119432850D01*
X213531008Y-119266254D01*
X213548072Y-119093000D01*
X213548072Y-118143000D01*
X213531008Y-117969746D01*
X213480472Y-117803150D01*
X213398405Y-117649614D01*
X213287962Y-117515038D01*
X213153386Y-117404595D01*
X212999850Y-117322528D01*
X212833254Y-117271992D01*
X212660000Y-117254928D01*
X211985000Y-117254928D01*
X211811746Y-117271992D01*
X211645150Y-117322528D01*
X211491614Y-117404595D01*
X211357038Y-117515038D01*
X211283676Y-117604430D01*
X211175939Y-117583000D01*
X210972061Y-117583000D01*
X210772102Y-117622774D01*
X210583744Y-117700795D01*
X210414226Y-117814063D01*
X210270063Y-117958226D01*
X210156795Y-118127744D01*
X210078774Y-118316102D01*
X210039000Y-118516061D01*
X209206673Y-118516061D01*
X209206673Y-117976961D01*
X209194413Y-117852479D01*
X209158103Y-117732781D01*
X209099138Y-117622467D01*
X209019786Y-117525776D01*
X208981507Y-117494361D01*
X209019786Y-117462946D01*
X209099138Y-117366255D01*
X209158103Y-117255941D01*
X209194413Y-117136243D01*
X209206673Y-117011761D01*
X209206673Y-115436961D01*
X209194413Y-115312479D01*
X209158103Y-115192781D01*
X209099138Y-115082467D01*
X209019786Y-114985776D01*
X208981507Y-114954361D01*
X209019786Y-114922946D01*
X209099138Y-114826255D01*
X209158103Y-114715941D01*
X209194413Y-114596243D01*
X209206673Y-114471761D01*
X209206673Y-112896961D01*
X209194413Y-112772479D01*
X209158103Y-112652781D01*
X209099138Y-112542467D01*
X209019786Y-112445776D01*
X208981507Y-112414361D01*
X209019786Y-112382946D01*
X209099138Y-112286255D01*
X209158103Y-112175941D01*
X209194413Y-112056243D01*
X209206673Y-111931761D01*
X209206673Y-110356961D01*
X209194413Y-110232479D01*
X209158103Y-110112781D01*
X209152855Y-110102961D01*
X236073729Y-110102961D01*
X236073729Y-111677761D01*
X236085989Y-111802243D01*
X236122299Y-111921941D01*
X236181264Y-112032255D01*
X236260616Y-112128946D01*
X236298895Y-112160361D01*
X236260616Y-112191776D01*
X236181264Y-112288467D01*
X236122299Y-112398781D01*
X236085989Y-112518479D01*
X236073729Y-112642961D01*
X236073729Y-114217761D01*
X236085989Y-114342243D01*
X236122299Y-114461941D01*
X236181264Y-114572255D01*
X236260616Y-114668946D01*
X236298895Y-114700361D01*
X236260616Y-114731776D01*
X236181264Y-114828467D01*
X236122299Y-114938781D01*
X236085989Y-115058479D01*
X236073729Y-115182961D01*
X236073729Y-116757761D01*
X236085989Y-116882243D01*
X236122299Y-117001941D01*
X236181264Y-117112255D01*
X236260616Y-117208946D01*
X236298895Y-117240361D01*
X236260616Y-117271776D01*
X236181264Y-117368467D01*
X236122299Y-117478781D01*
X236085989Y-117598479D01*
X236073729Y-117722961D01*
X236073729Y-119297761D01*
X236085989Y-119422243D01*
X236122299Y-119541941D01*
X236181264Y-119652255D01*
X236260616Y-119748946D01*
X236298895Y-119780361D01*
X236260616Y-119811776D01*
X236181264Y-119908467D01*
X236122299Y-120018781D01*
X236085989Y-120138479D01*
X236073729Y-120262961D01*
X236073729Y-121837761D01*
X236085989Y-121962243D01*
X236122299Y-122081941D01*
X236181264Y-122192255D01*
X236260616Y-122288946D01*
X236298895Y-122320361D01*
X236260616Y-122351776D01*
X236181264Y-122448467D01*
X236122299Y-122558781D01*
X236085989Y-122678479D01*
X236073729Y-122802961D01*
X236073729Y-124377761D01*
X236085989Y-124502243D01*
X236122299Y-124621941D01*
X236181264Y-124732255D01*
X236260616Y-124828946D01*
X236298895Y-124860361D01*
X236260616Y-124891776D01*
X236181264Y-124988467D01*
X236122299Y-125098781D01*
X236085989Y-125218479D01*
X236073729Y-125342961D01*
X236076801Y-125844611D01*
X236235551Y-126003361D01*
X237372201Y-126003361D01*
X237372201Y-125983361D01*
X237626201Y-125983361D01*
X237626201Y-126003361D01*
X238762851Y-126003361D01*
X238769201Y-125997011D01*
X238775551Y-126003361D01*
X239912201Y-126003361D01*
X239912201Y-125983361D01*
X240166201Y-125983361D01*
X240166201Y-126003361D01*
X241302851Y-126003361D01*
X241461601Y-125844611D01*
X241464673Y-125342961D01*
X241452413Y-125218479D01*
X241416103Y-125098781D01*
X241357138Y-124988467D01*
X241277786Y-124891776D01*
X241239507Y-124860361D01*
X241277786Y-124828946D01*
X241357138Y-124732255D01*
X241416103Y-124621941D01*
X241452413Y-124502243D01*
X241464673Y-124377761D01*
X241464673Y-122802961D01*
X241452413Y-122678479D01*
X241416103Y-122558781D01*
X241357138Y-122448467D01*
X241277786Y-122351776D01*
X241239507Y-122320361D01*
X241277786Y-122288946D01*
X241357138Y-122192255D01*
X241416103Y-122081941D01*
X241452413Y-121962243D01*
X241464673Y-121837761D01*
X241464673Y-120262961D01*
X241452413Y-120138479D01*
X241416103Y-120018781D01*
X241357138Y-119908467D01*
X241277786Y-119811776D01*
X241239507Y-119780361D01*
X241277786Y-119748946D01*
X241357138Y-119652255D01*
X241416103Y-119541941D01*
X241452413Y-119422243D01*
X241464673Y-119297761D01*
X241464673Y-117722961D01*
X241452413Y-117598479D01*
X241416103Y-117478781D01*
X241357138Y-117368467D01*
X241277786Y-117271776D01*
X241239507Y-117240361D01*
X241277786Y-117208946D01*
X241357138Y-117112255D01*
X241416103Y-117001941D01*
X241452413Y-116882243D01*
X241464673Y-116757761D01*
X241464673Y-115182961D01*
X241452413Y-115058479D01*
X241416103Y-114938781D01*
X241357138Y-114828467D01*
X241277786Y-114731776D01*
X241239507Y-114700361D01*
X241277786Y-114668946D01*
X241357138Y-114572255D01*
X241416103Y-114461941D01*
X241452413Y-114342243D01*
X241464673Y-114217761D01*
X241464673Y-112642961D01*
X241452413Y-112518479D01*
X241416103Y-112398781D01*
X241357138Y-112288467D01*
X241277786Y-112191776D01*
X241239507Y-112160361D01*
X241277786Y-112128946D01*
X241357138Y-112032255D01*
X241416103Y-111921941D01*
X241452413Y-111802243D01*
X241464673Y-111677761D01*
X241464673Y-110102961D01*
X241452413Y-109978479D01*
X241416103Y-109858781D01*
X241357138Y-109748467D01*
X241277786Y-109651776D01*
X241181095Y-109572424D01*
X241070781Y-109513459D01*
X240951083Y-109477149D01*
X240826601Y-109464889D01*
X239251801Y-109464889D01*
X239127319Y-109477149D01*
X239007621Y-109513459D01*
X238897307Y-109572424D01*
X238800616Y-109651776D01*
X238769201Y-109690055D01*
X238737786Y-109651776D01*
X238641095Y-109572424D01*
X238530781Y-109513459D01*
X238411083Y-109477149D01*
X238286601Y-109464889D01*
X236711801Y-109464889D01*
X236587319Y-109477149D01*
X236467621Y-109513459D01*
X236357307Y-109572424D01*
X236260616Y-109651776D01*
X236181264Y-109748467D01*
X236122299Y-109858781D01*
X236085989Y-109978479D01*
X236073729Y-110102961D01*
X209152855Y-110102961D01*
X209099138Y-110002467D01*
X209019786Y-109905776D01*
X208923095Y-109826424D01*
X208812781Y-109767459D01*
X208693083Y-109731149D01*
X208568601Y-109718889D01*
X206993801Y-109718889D01*
X206869319Y-109731149D01*
X206749621Y-109767459D01*
X206639307Y-109826424D01*
X206542616Y-109905776D01*
X206511201Y-109944055D01*
X206479786Y-109905776D01*
X206383095Y-109826424D01*
X206272781Y-109767459D01*
X206153083Y-109731149D01*
X206028601Y-109718889D01*
X204453801Y-109718889D01*
X204329319Y-109731149D01*
X204209621Y-109767459D01*
X204099307Y-109826424D01*
X204002616Y-109905776D01*
X203923264Y-110002467D01*
X203864299Y-110112781D01*
X203827989Y-110232479D01*
X203815729Y-110356961D01*
X203815729Y-111931761D01*
X203827989Y-112056243D01*
X203864299Y-112175941D01*
X203923264Y-112286255D01*
X204002616Y-112382946D01*
X204040895Y-112414361D01*
X204002616Y-112445776D01*
X203923264Y-112542467D01*
X203864299Y-112652781D01*
X203827989Y-112772479D01*
X203815729Y-112896961D01*
X203815729Y-114471761D01*
X203827989Y-114596243D01*
X203864299Y-114715941D01*
X203923264Y-114826255D01*
X204002616Y-114922946D01*
X204040895Y-114954361D01*
X204002616Y-114985776D01*
X203923264Y-115082467D01*
X203864299Y-115192781D01*
X203827989Y-115312479D01*
X203815729Y-115436961D01*
X203815729Y-117011761D01*
X203827989Y-117136243D01*
X203864299Y-117255941D01*
X203923264Y-117366255D01*
X204002616Y-117462946D01*
X204040895Y-117494361D01*
X204002616Y-117525776D01*
X203923264Y-117622467D01*
X203864299Y-117732781D01*
X203843035Y-117802878D01*
X203690256Y-117700795D01*
X203501898Y-117622774D01*
X203301939Y-117583000D01*
X203226737Y-117583000D01*
X203170962Y-117515038D01*
X203036386Y-117404595D01*
X202882850Y-117322528D01*
X202716254Y-117271992D01*
X202543000Y-117254928D01*
X201868000Y-117254928D01*
X201694746Y-117271992D01*
X201528150Y-117322528D01*
X201374614Y-117404595D01*
X201240038Y-117515038D01*
X201129595Y-117649614D01*
X201047528Y-117803150D01*
X200996992Y-117969746D01*
X200979928Y-118143000D01*
X197203082Y-118143000D01*
X197378759Y-104194311D01*
X198227119Y-104194311D01*
X198227119Y-107294331D01*
X198239379Y-107418813D01*
X198275689Y-107538511D01*
X198334654Y-107648825D01*
X198414006Y-107745516D01*
X198510697Y-107824868D01*
X198621011Y-107883833D01*
X198740709Y-107920143D01*
X198865191Y-107932403D01*
X201965211Y-107932403D01*
X202089693Y-107920143D01*
X202209391Y-107883833D01*
X202319705Y-107824868D01*
X202416396Y-107745516D01*
X202495748Y-107648825D01*
X202554713Y-107538511D01*
X202591023Y-107418813D01*
X202603283Y-107294331D01*
X202603283Y-104194311D01*
X202591023Y-104069829D01*
X202554713Y-103950131D01*
X202495748Y-103839817D01*
X202416396Y-103743126D01*
X202416000Y-103742801D01*
X209111169Y-103742801D01*
X209111169Y-105317601D01*
X209123429Y-105442083D01*
X209159739Y-105561781D01*
X209218704Y-105672095D01*
X209298056Y-105768786D01*
X209336335Y-105800201D01*
X209298056Y-105831616D01*
X209218704Y-105928307D01*
X209159739Y-106038621D01*
X209123429Y-106158319D01*
X209111169Y-106282801D01*
X209111169Y-107857601D01*
X209123429Y-107982083D01*
X209159739Y-108101781D01*
X209218704Y-108212095D01*
X209298056Y-108308786D01*
X209394747Y-108388138D01*
X209505061Y-108447103D01*
X209624759Y-108483413D01*
X209749241Y-108495673D01*
X211324041Y-108495673D01*
X211448523Y-108483413D01*
X211568221Y-108447103D01*
X211678535Y-108388138D01*
X211775226Y-108308786D01*
X211806641Y-108270507D01*
X211838056Y-108308786D01*
X211934747Y-108388138D01*
X212045061Y-108447103D01*
X212164759Y-108483413D01*
X212289241Y-108495673D01*
X213864041Y-108495673D01*
X213988523Y-108483413D01*
X214108221Y-108447103D01*
X214218535Y-108388138D01*
X214315226Y-108308786D01*
X214346641Y-108270507D01*
X214378056Y-108308786D01*
X214474747Y-108388138D01*
X214585061Y-108447103D01*
X214704759Y-108483413D01*
X214829241Y-108495673D01*
X216404041Y-108495673D01*
X216528523Y-108483413D01*
X216648221Y-108447103D01*
X216758535Y-108388138D01*
X216855226Y-108308786D01*
X216886641Y-108270507D01*
X216918056Y-108308786D01*
X217014747Y-108388138D01*
X217125061Y-108447103D01*
X217244759Y-108483413D01*
X217369241Y-108495673D01*
X218944041Y-108495673D01*
X219068523Y-108483413D01*
X219188221Y-108447103D01*
X219298535Y-108388138D01*
X219395226Y-108308786D01*
X219426641Y-108270507D01*
X219458056Y-108308786D01*
X219554747Y-108388138D01*
X219665061Y-108447103D01*
X219784759Y-108483413D01*
X219909241Y-108495673D01*
X221484041Y-108495673D01*
X221608523Y-108483413D01*
X221728221Y-108447103D01*
X221838535Y-108388138D01*
X221935226Y-108308786D01*
X221966641Y-108270507D01*
X221998056Y-108308786D01*
X222094747Y-108388138D01*
X222205061Y-108447103D01*
X222324759Y-108483413D01*
X222449241Y-108495673D01*
X224024041Y-108495673D01*
X224148523Y-108483413D01*
X224268221Y-108447103D01*
X224378535Y-108388138D01*
X224475226Y-108308786D01*
X224506641Y-108270507D01*
X224538056Y-108308786D01*
X224634747Y-108388138D01*
X224745061Y-108447103D01*
X224864759Y-108483413D01*
X224989241Y-108495673D01*
X226564041Y-108495673D01*
X226688523Y-108483413D01*
X226808221Y-108447103D01*
X226918535Y-108388138D01*
X227015226Y-108308786D01*
X227046641Y-108270507D01*
X227078056Y-108308786D01*
X227174747Y-108388138D01*
X227285061Y-108447103D01*
X227404759Y-108483413D01*
X227529241Y-108495673D01*
X229104041Y-108495673D01*
X229228523Y-108483413D01*
X229348221Y-108447103D01*
X229458535Y-108388138D01*
X229555226Y-108308786D01*
X229586641Y-108270507D01*
X229618056Y-108308786D01*
X229714747Y-108388138D01*
X229825061Y-108447103D01*
X229944759Y-108483413D01*
X230069241Y-108495673D01*
X231644041Y-108495673D01*
X231768523Y-108483413D01*
X231888221Y-108447103D01*
X231998535Y-108388138D01*
X232095226Y-108308786D01*
X232126641Y-108270507D01*
X232158056Y-108308786D01*
X232254747Y-108388138D01*
X232365061Y-108447103D01*
X232484759Y-108483413D01*
X232609241Y-108495673D01*
X234184041Y-108495673D01*
X234308523Y-108483413D01*
X234428221Y-108447103D01*
X234538535Y-108388138D01*
X234635226Y-108308786D01*
X234714578Y-108212095D01*
X234773543Y-108101781D01*
X234809853Y-107982083D01*
X234822113Y-107857601D01*
X234822113Y-106282801D01*
X234809853Y-106158319D01*
X234773543Y-106038621D01*
X234714578Y-105928307D01*
X234635226Y-105831616D01*
X234596947Y-105800201D01*
X234635226Y-105768786D01*
X234714578Y-105672095D01*
X234773543Y-105561781D01*
X234809853Y-105442083D01*
X234822113Y-105317601D01*
X234822113Y-103742801D01*
X234809853Y-103618319D01*
X234773543Y-103498621D01*
X234714578Y-103388307D01*
X234635226Y-103291616D01*
X234538535Y-103212264D01*
X234428221Y-103153299D01*
X234308523Y-103116989D01*
X234184041Y-103104729D01*
X232609241Y-103104729D01*
X232484759Y-103116989D01*
X232365061Y-103153299D01*
X232254747Y-103212264D01*
X232158056Y-103291616D01*
X232126641Y-103329895D01*
X232095226Y-103291616D01*
X231998535Y-103212264D01*
X231888221Y-103153299D01*
X231768523Y-103116989D01*
X231644041Y-103104729D01*
X230069241Y-103104729D01*
X229944759Y-103116989D01*
X229825061Y-103153299D01*
X229714747Y-103212264D01*
X229618056Y-103291616D01*
X229586641Y-103329895D01*
X229555226Y-103291616D01*
X229458535Y-103212264D01*
X229348221Y-103153299D01*
X229228523Y-103116989D01*
X229104041Y-103104729D01*
X227529241Y-103104729D01*
X227404759Y-103116989D01*
X227285061Y-103153299D01*
X227174747Y-103212264D01*
X227078056Y-103291616D01*
X227046641Y-103329895D01*
X227015226Y-103291616D01*
X226918535Y-103212264D01*
X226808221Y-103153299D01*
X226688523Y-103116989D01*
X226564041Y-103104729D01*
X224989241Y-103104729D01*
X224864759Y-103116989D01*
X224745061Y-103153299D01*
X224634747Y-103212264D01*
X224538056Y-103291616D01*
X224506641Y-103329895D01*
X224475226Y-103291616D01*
X224378535Y-103212264D01*
X224268221Y-103153299D01*
X224148523Y-103116989D01*
X224024041Y-103104729D01*
X222449241Y-103104729D01*
X222324759Y-103116989D01*
X222205061Y-103153299D01*
X222094747Y-103212264D01*
X221998056Y-103291616D01*
X221966641Y-103329895D01*
X221935226Y-103291616D01*
X221838535Y-103212264D01*
X221728221Y-103153299D01*
X221608523Y-103116989D01*
X221484041Y-103104729D01*
X219909241Y-103104729D01*
X219784759Y-103116989D01*
X219665061Y-103153299D01*
X219554747Y-103212264D01*
X219458056Y-103291616D01*
X219426641Y-103329895D01*
X219395226Y-103291616D01*
X219298535Y-103212264D01*
X219188221Y-103153299D01*
X219068523Y-103116989D01*
X218944041Y-103104729D01*
X217369241Y-103104729D01*
X217244759Y-103116989D01*
X217125061Y-103153299D01*
X217014747Y-103212264D01*
X216918056Y-103291616D01*
X216886641Y-103329895D01*
X216855226Y-103291616D01*
X216758535Y-103212264D01*
X216648221Y-103153299D01*
X216528523Y-103116989D01*
X216404041Y-103104729D01*
X214829241Y-103104729D01*
X214704759Y-103116989D01*
X214585061Y-103153299D01*
X214474747Y-103212264D01*
X214378056Y-103291616D01*
X214346641Y-103329895D01*
X214315226Y-103291616D01*
X214218535Y-103212264D01*
X214108221Y-103153299D01*
X213988523Y-103116989D01*
X213864041Y-103104729D01*
X212289241Y-103104729D01*
X212164759Y-103116989D01*
X212045061Y-103153299D01*
X211934747Y-103212264D01*
X211838056Y-103291616D01*
X211806641Y-103329895D01*
X211775226Y-103291616D01*
X211678535Y-103212264D01*
X211568221Y-103153299D01*
X211448523Y-103116989D01*
X211324041Y-103104729D01*
X209749241Y-103104729D01*
X209624759Y-103116989D01*
X209505061Y-103153299D01*
X209394747Y-103212264D01*
X209298056Y-103291616D01*
X209218704Y-103388307D01*
X209159739Y-103498621D01*
X209123429Y-103618319D01*
X209111169Y-103742801D01*
X202416000Y-103742801D01*
X202319705Y-103663774D01*
X202209391Y-103604809D01*
X202089693Y-103568499D01*
X201965211Y-103556239D01*
X198865191Y-103556239D01*
X198740709Y-103568499D01*
X198621011Y-103604809D01*
X198510697Y-103663774D01*
X198414006Y-103743126D01*
X198334654Y-103839817D01*
X198275689Y-103950131D01*
X198239379Y-104069829D01*
X198227119Y-104194311D01*
X197378759Y-104194311D01*
X197443184Y-99079000D01*
X203212579Y-99079000D01*
X203290940Y-99120885D01*
X203509600Y-99187215D01*
X203680021Y-99204000D01*
X204243979Y-99204000D01*
X204414400Y-99187215D01*
X204633060Y-99120885D01*
X204834579Y-99013171D01*
X205011212Y-98868212D01*
X205156171Y-98691579D01*
X205263885Y-98490060D01*
X205330215Y-98271400D01*
X205352612Y-98044000D01*
X205330215Y-97816600D01*
X205263885Y-97597940D01*
X205162895Y-97409000D01*
X205263885Y-97220060D01*
X205330215Y-97001400D01*
X205352612Y-96774000D01*
X205330215Y-96546600D01*
X205266907Y-96337902D01*
X205301502Y-96273180D01*
X205337812Y-96153482D01*
X205350072Y-96029000D01*
X205347000Y-95789750D01*
X205188250Y-95631000D01*
X204415109Y-95631000D01*
X204414400Y-95630785D01*
X204243979Y-95614000D01*
X203680021Y-95614000D01*
X203509600Y-95630785D01*
X203508891Y-95631000D01*
X202735750Y-95631000D01*
X202577000Y-95789750D01*
X202573928Y-96029000D01*
X202586188Y-96153482D01*
X202622498Y-96273180D01*
X202657093Y-96337902D01*
X202593785Y-96546600D01*
X202571388Y-96774000D01*
X202593785Y-97001400D01*
X202596090Y-97009000D01*
X197469254Y-97009000D01*
X197484990Y-95759599D01*
X197485000Y-95758000D01*
X197485000Y-94979000D01*
X202573928Y-94979000D01*
X202577000Y-95218250D01*
X202735750Y-95377000D01*
X203835000Y-95377000D01*
X203835000Y-94502750D01*
X204089000Y-94502750D01*
X204089000Y-95377000D01*
X205188250Y-95377000D01*
X205347000Y-95218250D01*
X205350072Y-94979000D01*
X205337812Y-94854518D01*
X205301502Y-94734820D01*
X205242537Y-94624506D01*
X205163185Y-94527815D01*
X205066494Y-94448463D01*
X204956180Y-94389498D01*
X204836482Y-94353188D01*
X204712000Y-94340928D01*
X204247750Y-94344000D01*
X204089000Y-94502750D01*
X203835000Y-94502750D01*
X203676250Y-94344000D01*
X203212000Y-94340928D01*
X203087518Y-94353188D01*
X202967820Y-94389498D01*
X202857506Y-94448463D01*
X202760815Y-94527815D01*
X202681463Y-94624506D01*
X202622498Y-94734820D01*
X202586188Y-94854518D01*
X202573928Y-94979000D01*
X197485000Y-94979000D01*
X197485000Y-93878000D01*
X229046117Y-93878000D01*
X228956226Y-93938063D01*
G37*
%TD.AperFunction*%
%TD*%
D26*
X179578000Y-130810000D03*
X179578000Y-101600000D03*
X175260000Y-130810000D03*
X177292000Y-130810000D03*
X197866000Y-93980000D03*
X197866000Y-94996000D03*
X197866000Y-96012000D03*
X198882000Y-93980000D03*
X198882000Y-94996000D03*
X198882000Y-96012000D03*
X213106000Y-100076000D03*
X215392000Y-97028000D03*
X213868000Y-100838000D03*
X216154000Y-97790000D03*
X178816000Y-95504000D03*
X178816000Y-94488000D03*
X178816000Y-96520000D03*
X178816000Y-97536000D03*
X178816000Y-98552000D03*
X175006000Y-98044000D03*
X175006000Y-99060000D03*
X199950000Y-144272000D03*
X211074000Y-118618000D03*
X203200000Y-118618000D03*
X228854000Y-98298000D03*
X229616000Y-94742000D03*
X203962000Y-95504000D03*
X203962000Y-98044000D03*
X203962000Y-96774000D03*
X215182000Y-137764000D03*
X207982000Y-137764000D03*
D27*
X218332000Y-143764000D03*
X204832000Y-143764000D03*
D26*
X234442000Y-140970000D03*
X236982000Y-140970000D03*
X239522000Y-140970000D03*
X242062000Y-140970000D03*
X233396641Y-104530201D03*
X233396641Y-107070201D03*
X225776641Y-104530201D03*
X218156641Y-107070201D03*
X215616641Y-107070201D03*
X210536641Y-107070201D03*
X210536641Y-104530201D03*
X213076641Y-104530201D03*
X215616641Y-104530201D03*
X228316641Y-104530201D03*
X220696641Y-104530201D03*
X223236641Y-107070201D03*
X225776641Y-107070201D03*
X230856641Y-104530201D03*
X223236641Y-104530201D03*
X213076641Y-107070201D03*
X218156641Y-104530201D03*
X230856641Y-107070201D03*
X220696641Y-107070201D03*
X228316641Y-107070201D03*
X240039201Y-113430361D03*
X240039201Y-121050361D03*
X237499201Y-123590361D03*
X240039201Y-110890361D03*
X237499201Y-118510361D03*
X240039201Y-115970361D03*
X240039201Y-118510361D03*
X237499201Y-110890361D03*
X240039201Y-123590361D03*
X237499201Y-121050361D03*
X237499201Y-115970361D03*
X237499201Y-113430361D03*
X205241201Y-126384361D03*
X207781201Y-126384361D03*
X205241201Y-131464361D03*
X207781201Y-131464361D03*
X205241201Y-128924361D03*
X207781201Y-128924361D03*
X200415201Y-136864401D03*
X246135201Y-136864401D03*
X200415201Y-105744321D03*
X207781201Y-111144361D03*
X205241201Y-111144361D03*
X207781201Y-113684361D03*
X205241201Y-113684361D03*
X207781201Y-116224361D03*
X205241201Y-116224361D03*
X207781201Y-118764361D03*
X205241201Y-118764361D03*
X207781201Y-121304361D03*
X205241201Y-121304361D03*
X207781201Y-123844361D03*
X205241201Y-123844361D03*
X237499201Y-131210361D03*
X240039201Y-131210361D03*
X237499201Y-128670361D03*
X240039201Y-128670361D03*
X237499201Y-126130361D03*
X240039201Y-126130361D03*
M02*
