%TF.GenerationSoftware,KiCad,Pcbnew,(5.1.10)-1*%
%TF.CreationDate,2021-10-24T16:06:26+08:00*%
%TF.ProjectId,M1W,4d31572e-6b69-4636-9164-5f7063625858,rev?*%
%TF.SameCoordinates,Original*%
%TF.FileFunction,Legend,Bot*%
%TF.FilePolarity,Positive*%
%FSLAX46Y46*%
G04 Gerber Fmt 4.6, Leading zero omitted, Abs format (unit mm)*
G04 Created by KiCad (PCBNEW (5.1.10)-1) date 2021-10-24 16:06:26*
%MOMM*%
%LPD*%
G01*
G04 APERTURE LIST*
%ADD10C,0.300000*%
%ADD11C,0.120000*%
%ADD12C,0.150000*%
G04 APERTURE END LIST*
D10*
X246550571Y-131070571D02*
X245050571Y-131070571D01*
X246550571Y-130213428D02*
X245693428Y-130856285D01*
X245050571Y-130213428D02*
X245907714Y-131070571D01*
X245193428Y-129642000D02*
X245122000Y-129570571D01*
X245050571Y-129427714D01*
X245050571Y-129070571D01*
X245122000Y-128927714D01*
X245193428Y-128856285D01*
X245336285Y-128784857D01*
X245479142Y-128784857D01*
X245693428Y-128856285D01*
X246550571Y-129713428D01*
X246550571Y-128784857D01*
X246550571Y-127356285D02*
X246550571Y-128213428D01*
X246550571Y-127784857D02*
X245050571Y-127784857D01*
X245264857Y-127927714D01*
X245407714Y-128070571D01*
X245479142Y-128213428D01*
X245050571Y-126427714D02*
X245050571Y-126284857D01*
X245122000Y-126142000D01*
X245193428Y-126070571D01*
X245336285Y-125999142D01*
X245622000Y-125927714D01*
X245979142Y-125927714D01*
X246264857Y-125999142D01*
X246407714Y-126070571D01*
X246479142Y-126142000D01*
X246550571Y-126284857D01*
X246550571Y-126427714D01*
X246479142Y-126570571D01*
X246407714Y-126642000D01*
X246264857Y-126713428D01*
X245979142Y-126784857D01*
X245622000Y-126784857D01*
X245336285Y-126713428D01*
X245193428Y-126642000D01*
X245122000Y-126570571D01*
X245050571Y-126427714D01*
X245979142Y-125284857D02*
X245979142Y-124142000D01*
X246550571Y-123427714D02*
X245050571Y-123427714D01*
X246122000Y-122927714D01*
X245050571Y-122427714D01*
X246550571Y-122427714D01*
X246550571Y-120927714D02*
X246550571Y-121784857D01*
X246550571Y-121356285D02*
X245050571Y-121356285D01*
X245264857Y-121499142D01*
X245407714Y-121642000D01*
X245479142Y-121784857D01*
X245050571Y-120427714D02*
X246550571Y-120070571D01*
X245479142Y-119784857D01*
X246550571Y-119499142D01*
X245050571Y-119142000D01*
X246550571Y-117427714D02*
X245050571Y-117427714D01*
X245622000Y-117427714D02*
X245550571Y-117284857D01*
X245550571Y-116999142D01*
X245622000Y-116856285D01*
X245693428Y-116784857D01*
X245836285Y-116713428D01*
X246264857Y-116713428D01*
X246407714Y-116784857D01*
X246479142Y-116856285D01*
X246550571Y-116999142D01*
X246550571Y-117284857D01*
X246479142Y-117427714D01*
X245550571Y-116213428D02*
X246550571Y-115856285D01*
X245550571Y-115499142D02*
X246550571Y-115856285D01*
X246907714Y-115999142D01*
X246979142Y-116070571D01*
X247050571Y-116213428D01*
X246550571Y-113784857D02*
X245050571Y-113784857D01*
X245979142Y-113642000D02*
X246550571Y-113213428D01*
X245550571Y-113213428D02*
X246122000Y-113784857D01*
X246550571Y-111927714D02*
X245764857Y-111927714D01*
X245622000Y-111999142D01*
X245550571Y-112142000D01*
X245550571Y-112427714D01*
X245622000Y-112570571D01*
X246479142Y-111927714D02*
X246550571Y-112070571D01*
X246550571Y-112427714D01*
X246479142Y-112570571D01*
X246336285Y-112642000D01*
X246193428Y-112642000D01*
X246050571Y-112570571D01*
X245979142Y-112427714D01*
X245979142Y-112070571D01*
X245907714Y-111927714D01*
X246550571Y-111213428D02*
X245550571Y-111213428D01*
X245693428Y-111213428D02*
X245622000Y-111142000D01*
X245550571Y-110999142D01*
X245550571Y-110784857D01*
X245622000Y-110642000D01*
X245764857Y-110570571D01*
X246550571Y-110570571D01*
X245764857Y-110570571D02*
X245622000Y-110499142D01*
X245550571Y-110356285D01*
X245550571Y-110142000D01*
X245622000Y-109999142D01*
X245764857Y-109927714D01*
X246550571Y-109927714D01*
X246550571Y-109213428D02*
X245550571Y-109213428D01*
X245050571Y-109213428D02*
X245122000Y-109284857D01*
X245193428Y-109213428D01*
X245122000Y-109142000D01*
X245050571Y-109213428D01*
X245193428Y-109213428D01*
D11*
%TO.C,R3*%
X180821064Y-103913000D02*
X180366936Y-103913000D01*
X180821064Y-105383000D02*
X180366936Y-105383000D01*
%TO.C,R2*%
X180821064Y-115089000D02*
X180366936Y-115089000D01*
X180821064Y-116559000D02*
X180366936Y-116559000D01*
%TO.C,R1*%
X180821064Y-128043000D02*
X180366936Y-128043000D01*
X180821064Y-129513000D02*
X180366936Y-129513000D01*
%TO.C,D3*%
X183529500Y-103063000D02*
X187589500Y-103063000D01*
X187589500Y-103063000D02*
X187589500Y-106233000D01*
X187589500Y-106233000D02*
X183529500Y-106233000D01*
%TO.C,D2*%
X183566000Y-114239000D02*
X187626000Y-114239000D01*
X187626000Y-114239000D02*
X187626000Y-117409000D01*
X187626000Y-117409000D02*
X183566000Y-117409000D01*
%TO.C,D1*%
X183566000Y-127193000D02*
X187626000Y-127193000D01*
X187626000Y-127193000D02*
X187626000Y-130363000D01*
X187626000Y-130363000D02*
X183566000Y-130363000D01*
%TO.C,C2*%
X213621252Y-117883000D02*
X213098748Y-117883000D01*
X213621252Y-119353000D02*
X213098748Y-119353000D01*
%TO.C,C1*%
X200906748Y-119353000D02*
X201429252Y-119353000D01*
X200906748Y-117883000D02*
X201429252Y-117883000D01*
%TO.C,FU1*%
X176128000Y-99839545D02*
X176128000Y-100820455D01*
X177948000Y-99839545D02*
X177948000Y-100820455D01*
%TO.C,MAIN1*%
X235899001Y-124647001D02*
X235899001Y-132775001D01*
X241614001Y-132775001D02*
X241614001Y-124647001D01*
X235899001Y-132775001D02*
X241614001Y-132775001D01*
X204149001Y-110042001D02*
X204149001Y-127695001D01*
X208975001Y-110042001D02*
X204149001Y-110042001D01*
X208975001Y-127695001D02*
X208975001Y-110042001D01*
X204149001Y-132648001D02*
X204149001Y-132521001D01*
X208975001Y-132648001D02*
X204149001Y-132648001D01*
X208975001Y-127695001D02*
X208975001Y-132648001D01*
X204149001Y-132521001D02*
X204149001Y-127695001D01*
X197672001Y-139760001D02*
X197672001Y-102930001D01*
X197672001Y-102930001D02*
X248599001Y-102930001D01*
X248599001Y-102930001D02*
X248599001Y-139760001D01*
X248599001Y-139760001D02*
X197672001Y-139760001D01*
X210372001Y-133410001D02*
X211642001Y-134680001D01*
X211642001Y-134680001D02*
X233232001Y-134680001D01*
X233232001Y-134680001D02*
X234502001Y-133410001D01*
X234502001Y-133410001D02*
X234502001Y-113090001D01*
X210372001Y-133410001D02*
X210372001Y-110550001D01*
X210372001Y-110550001D02*
X211642001Y-109280001D01*
X211642001Y-109280001D02*
X233232001Y-109280001D01*
X233232001Y-109280001D02*
X234502001Y-110550001D01*
X234502001Y-110550001D02*
X234502001Y-113090001D01*
X210372001Y-132140001D02*
X212912001Y-132140001D01*
X212912001Y-132140001D02*
X212912001Y-134680001D01*
X235899001Y-109788001D02*
X235899001Y-124647001D01*
X241614001Y-109788001D02*
X235899001Y-109788001D01*
X241614001Y-124647001D02*
X241614001Y-109788001D01*
X208972001Y-102930001D02*
X208972001Y-108645001D01*
X208972001Y-108645001D02*
X217100001Y-108645001D01*
X218500001Y-102930001D02*
X210372001Y-102930001D01*
X234372001Y-108645001D02*
X234372001Y-102930001D01*
X217100001Y-108645001D02*
X234372001Y-108645001D01*
X233359001Y-102930001D02*
X218500001Y-102930001D01*
%TO.C,R3*%
D12*
X180760666Y-103450380D02*
X181094000Y-102974190D01*
X181332095Y-103450380D02*
X181332095Y-102450380D01*
X180951142Y-102450380D01*
X180855904Y-102498000D01*
X180808285Y-102545619D01*
X180760666Y-102640857D01*
X180760666Y-102783714D01*
X180808285Y-102878952D01*
X180855904Y-102926571D01*
X180951142Y-102974190D01*
X181332095Y-102974190D01*
X180427333Y-102450380D02*
X179808285Y-102450380D01*
X180141619Y-102831333D01*
X179998761Y-102831333D01*
X179903523Y-102878952D01*
X179855904Y-102926571D01*
X179808285Y-103021809D01*
X179808285Y-103259904D01*
X179855904Y-103355142D01*
X179903523Y-103402761D01*
X179998761Y-103450380D01*
X180284476Y-103450380D01*
X180379714Y-103402761D01*
X180427333Y-103355142D01*
%TO.C,R2*%
X180760666Y-114626380D02*
X181094000Y-114150190D01*
X181332095Y-114626380D02*
X181332095Y-113626380D01*
X180951142Y-113626380D01*
X180855904Y-113674000D01*
X180808285Y-113721619D01*
X180760666Y-113816857D01*
X180760666Y-113959714D01*
X180808285Y-114054952D01*
X180855904Y-114102571D01*
X180951142Y-114150190D01*
X181332095Y-114150190D01*
X180379714Y-113721619D02*
X180332095Y-113674000D01*
X180236857Y-113626380D01*
X179998761Y-113626380D01*
X179903523Y-113674000D01*
X179855904Y-113721619D01*
X179808285Y-113816857D01*
X179808285Y-113912095D01*
X179855904Y-114054952D01*
X180427333Y-114626380D01*
X179808285Y-114626380D01*
%TO.C,R1*%
X180760666Y-127580380D02*
X181094000Y-127104190D01*
X181332095Y-127580380D02*
X181332095Y-126580380D01*
X180951142Y-126580380D01*
X180855904Y-126628000D01*
X180808285Y-126675619D01*
X180760666Y-126770857D01*
X180760666Y-126913714D01*
X180808285Y-127008952D01*
X180855904Y-127056571D01*
X180951142Y-127104190D01*
X181332095Y-127104190D01*
X179808285Y-127580380D02*
X180379714Y-127580380D01*
X180094000Y-127580380D02*
X180094000Y-126580380D01*
X180189238Y-126723238D01*
X180284476Y-126818476D01*
X180379714Y-126866095D01*
%TO.C,D3*%
X185867595Y-102820380D02*
X185867595Y-101820380D01*
X185629500Y-101820380D01*
X185486642Y-101868000D01*
X185391404Y-101963238D01*
X185343785Y-102058476D01*
X185296166Y-102248952D01*
X185296166Y-102391809D01*
X185343785Y-102582285D01*
X185391404Y-102677523D01*
X185486642Y-102772761D01*
X185629500Y-102820380D01*
X185867595Y-102820380D01*
X184962833Y-101820380D02*
X184343785Y-101820380D01*
X184677119Y-102201333D01*
X184534261Y-102201333D01*
X184439023Y-102248952D01*
X184391404Y-102296571D01*
X184343785Y-102391809D01*
X184343785Y-102629904D01*
X184391404Y-102725142D01*
X184439023Y-102772761D01*
X184534261Y-102820380D01*
X184819976Y-102820380D01*
X184915214Y-102772761D01*
X184962833Y-102725142D01*
%TO.C,D2*%
X185904095Y-113996380D02*
X185904095Y-112996380D01*
X185666000Y-112996380D01*
X185523142Y-113044000D01*
X185427904Y-113139238D01*
X185380285Y-113234476D01*
X185332666Y-113424952D01*
X185332666Y-113567809D01*
X185380285Y-113758285D01*
X185427904Y-113853523D01*
X185523142Y-113948761D01*
X185666000Y-113996380D01*
X185904095Y-113996380D01*
X184951714Y-113091619D02*
X184904095Y-113044000D01*
X184808857Y-112996380D01*
X184570761Y-112996380D01*
X184475523Y-113044000D01*
X184427904Y-113091619D01*
X184380285Y-113186857D01*
X184380285Y-113282095D01*
X184427904Y-113424952D01*
X184999333Y-113996380D01*
X184380285Y-113996380D01*
%TO.C,D1*%
X185904095Y-126950380D02*
X185904095Y-125950380D01*
X185666000Y-125950380D01*
X185523142Y-125998000D01*
X185427904Y-126093238D01*
X185380285Y-126188476D01*
X185332666Y-126378952D01*
X185332666Y-126521809D01*
X185380285Y-126712285D01*
X185427904Y-126807523D01*
X185523142Y-126902761D01*
X185666000Y-126950380D01*
X185904095Y-126950380D01*
X184380285Y-126950380D02*
X184951714Y-126950380D01*
X184666000Y-126950380D02*
X184666000Y-125950380D01*
X184761238Y-126093238D01*
X184856476Y-126188476D01*
X184951714Y-126236095D01*
%TO.C,C2*%
X213526666Y-117295142D02*
X213574285Y-117342761D01*
X213717142Y-117390380D01*
X213812380Y-117390380D01*
X213955238Y-117342761D01*
X214050476Y-117247523D01*
X214098095Y-117152285D01*
X214145714Y-116961809D01*
X214145714Y-116818952D01*
X214098095Y-116628476D01*
X214050476Y-116533238D01*
X213955238Y-116438000D01*
X213812380Y-116390380D01*
X213717142Y-116390380D01*
X213574285Y-116438000D01*
X213526666Y-116485619D01*
X213145714Y-116485619D02*
X213098095Y-116438000D01*
X213002857Y-116390380D01*
X212764761Y-116390380D01*
X212669523Y-116438000D01*
X212621904Y-116485619D01*
X212574285Y-116580857D01*
X212574285Y-116676095D01*
X212621904Y-116818952D01*
X213193333Y-117390380D01*
X212574285Y-117390380D01*
%TO.C,C1*%
X201334666Y-120655142D02*
X201382285Y-120702761D01*
X201525142Y-120750380D01*
X201620380Y-120750380D01*
X201763238Y-120702761D01*
X201858476Y-120607523D01*
X201906095Y-120512285D01*
X201953714Y-120321809D01*
X201953714Y-120178952D01*
X201906095Y-119988476D01*
X201858476Y-119893238D01*
X201763238Y-119798000D01*
X201620380Y-119750380D01*
X201525142Y-119750380D01*
X201382285Y-119798000D01*
X201334666Y-119845619D01*
X200382285Y-120750380D02*
X200953714Y-120750380D01*
X200668000Y-120750380D02*
X200668000Y-119750380D01*
X200763238Y-119893238D01*
X200858476Y-119988476D01*
X200953714Y-120036095D01*
%TO.C,FU1*%
X175188571Y-99472857D02*
X175188571Y-99139523D01*
X175712380Y-99139523D02*
X174712380Y-99139523D01*
X174712380Y-99615714D01*
X174712380Y-99996666D02*
X175521904Y-99996666D01*
X175617142Y-100044285D01*
X175664761Y-100091904D01*
X175712380Y-100187142D01*
X175712380Y-100377619D01*
X175664761Y-100472857D01*
X175617142Y-100520476D01*
X175521904Y-100568095D01*
X174712380Y-100568095D01*
X175712380Y-101568095D02*
X175712380Y-100996666D01*
X175712380Y-101282380D02*
X174712380Y-101282380D01*
X174855238Y-101187142D01*
X174950476Y-101091904D01*
X174998095Y-100996666D01*
%TO.C,MAIN1*%
X226913286Y-110875381D02*
X226913286Y-109875381D01*
X226579953Y-110589667D01*
X226246620Y-109875381D01*
X226246620Y-110875381D01*
X225818048Y-110589667D02*
X225341858Y-110589667D01*
X225913286Y-110875381D02*
X225579953Y-109875381D01*
X225246620Y-110875381D01*
X224913286Y-110875381D02*
X224913286Y-109875381D01*
X224532334Y-109875381D02*
X223865667Y-110875381D01*
X223865667Y-109875381D02*
X224532334Y-110875381D01*
X223484715Y-110494429D02*
X222722810Y-110494429D01*
X222246620Y-110875381D02*
X222246620Y-109875381D01*
X221913286Y-110589667D01*
X221579953Y-109875381D01*
X221579953Y-110875381D01*
X220579953Y-110875381D02*
X221151381Y-110875381D01*
X220865667Y-110875381D02*
X220865667Y-109875381D01*
X220960905Y-110018239D01*
X221056143Y-110113477D01*
X221151381Y-110161096D01*
X220246620Y-109875381D02*
X220008524Y-110875381D01*
X219818048Y-110161096D01*
X219627572Y-110875381D01*
X219389477Y-109875381D01*
%TD*%
M02*
